<svg class="nhsapp-icon nhsapp-icon__email" xmlns="http://www.w3.org/2000/svg" aria-hidden="true" focusable="false" height="2rem" width="2rem" viewBox="0 0 24 24">
  <path d="M13.46 15.82C13.03 16.37 12.54 16.82 11.98 17.17C11.43 17.51 10.87 17.7 10.3 17.73C9.67002 17.76 9.05002 17.62 8.44002 17.29C7.83002 16.96 7.31002 16.43 6.90002 15.7C6.49003 14.97 6.26002 14.15 6.22002 13.26C6.16002 12.15 6.39003 11.03 6.90002 9.89999C7.42002 8.75999 8.09002 7.87999 8.92002 7.27999C9.75002 6.67999 10.56 6.34999 11.37 6.30999C11.98 6.27999 12.58 6.40999 13.16 6.68999C13.74 6.96999 14.24 7.42999 14.68 8.04999L14.83 7.14999C14.9 6.71999 15.26 6.39999 15.7 6.36999C16.29 6.33999 16.76 6.85999 16.67 7.44999L15.71 13.39C15.55 14.38 15.47 14.92 15.48 15.02C15.49 15.21 15.57 15.37 15.72 15.5C15.88 15.62 16.06 15.68 16.26 15.67C16.63 15.65 17.11 15.41 17.7 14.95C18.48 14.35 19.07 13.57 19.49 12.61C19.91 11.65 20.1 10.67 20.04 9.66999C19.98 8.50999 19.61 7.43999 18.95 6.45999C18.29 5.47999 17.35 4.72999 16.12 4.18999C14.89 3.64999 13.56 3.41999 12.11 3.49999C10.46 3.58999 8.96002 4.04999 7.63002 4.88999C6.31002 5.71999 5.31002 6.86999 4.63002 8.33999C3.96002 9.79999 3.67002 11.34 3.75002 12.97C3.83002 14.6 4.30002 16.12 5.11002 17.31C5.93002 18.5 7.07003 19.35 8.52003 19.86C9.98003 20.37 11.58 20.58 13.31 20.49C15.16 20.39 16.7 20 17.91 19.32C18.95 18.74 19.76 18.07 20.33 17.32C20.51 17.09 20.77 16.93 21.06 16.91C21.73 16.87 22.17 17.54 21.76 18.07C21.49 18.43 21.16 18.79 20.77 19.16C19.93 19.97 18.92 20.62 17.74 21.12C16.56 21.63 15.11 21.93 13.41 22.02C11.84 22.1 10.38 21.98 9.03002 21.66C7.69002 21.33 6.53003 20.8 5.55002 20.05C4.57002 19.31 3.82002 18.43 3.29002 17.42C2.63002 16.14 2.25002 14.73 2.17002 13.21C2.08002 11.51 2.34002 9.87999 2.97002 8.29999C3.73002 6.36999 4.87002 4.85999 6.40002 3.76999C7.94002 2.67999 9.83003 2.07999 12.1 1.95999C13.85 1.86999 15.44 2.13999 16.87 2.76999C18.31 3.39999 19.47 4.38999 20.35 5.73999C21.1 6.90999 21.51 8.19999 21.59 9.60999C21.7 11.63 21.07 13.46 19.72 15.1C18.51 16.57 17.14 17.35 15.61 17.44C15.12 17.47 14.72 17.41 14.41 17.28C14.11 17.15 13.87 16.95 13.72 16.69C13.62 16.52 13.54 16.23 13.47 15.8L13.46 15.82ZM8.17002 13.27C8.22003 14.22 8.49002 14.95 8.98002 15.46C9.47002 15.96 10.01 16.2 10.6 16.17C11 16.15 11.41 16.01 11.83 15.76C12.26 15.5 12.65 15.13 13.02 14.65C13.4 14.17 13.7 13.57 13.91 12.85C14.13 12.13 14.21 11.41 14.18 10.7C14.13 9.74999 13.85 9.02999 13.34 8.53999C12.84 8.03999 12.24 7.80999 11.56 7.84999C11.11 7.86999 10.69 8.00999 10.3 8.25999C9.92002 8.49999 9.55002 8.88999 9.20002 9.40999C8.85002 9.92999 8.59002 10.56 8.40002 11.28C8.21002 12.01 8.14002 12.67 8.17002 13.27Z" fill="#005EB8"/>
</svg>
