<svg class="nhsapp-icon nhsapp-icon__heart" xmlns="http://www.w3.org/2000/svg" aria-hidden="true" focusable="false" height="2rem" width="2rem" viewBox="0 0 24 24">
  <path
    d="M12 22.05c-.23 0-.45-.1-.6-.26l-4.76-5.1a29.242 29.242 0 0 1-3.7-4.91c-.84-1.29-1.14-2.94-.79-4.5.34-1.52 1.23-2.79 2.51-3.59 2.38-1.47 5.55-.62 7.23 1.95l.12.19.12-.19c1.68-2.57 4.85-3.43 7.23-1.95 1.28.79 2.17 2.07 2.51 3.59.35 1.56.05 3.21-.81 4.52l-.34.56c-.84 1.38-1.81 2.67-2.9 3.84l-5.22 5.6c-.14.15-.39.26-.6.26ZM7.18 4.47c-.61 0-1.21.16-1.75.49-.93.58-1.58 1.51-1.83 2.64-.26 1.17-.04 2.4.6 3.38 1.03 1.7 2.21 3.27 3.53 4.68L12 20.24l4.72-5.07c1.01-1.09 1.93-2.3 2.71-3.59l.35-.58c.65-1 .87-2.23.61-3.4-.25-1.12-.9-2.06-1.83-2.64-1.68-1.04-3.96-.38-5.18 1.5l-.75 1.15c-.28.42-.98.42-1.26 0l-.75-1.15c-.83-1.28-2.15-1.99-3.44-1.99Z"
  />
</svg>