<svg class="nhsapp-icon nhsapp-icon__account" xmlns="http://www.w3.org/2000/svg" aria-hidden="true" focusable="false" height="2rem" width="2rem" viewBox="0 0 24 24">
  <path d="M12 6.85c-1.94 0-3.52 1.58-3.52 3.52s1.58 3.52 3.52 3.52 3.52-1.58 3.52-3.52S13.94 6.85 12 6.85Z" />
  <path
    d="M12.03 2.01c-5.49 0-9.96 4.49-9.96 10s4.47 10.01 9.96 10.01 9.96-4.49 9.96-10.01-4.47-10-9.96-10Zm5.67 16.3c-.25-2.14-1.82-3.8-3.75-3.8h-3.91c-1.91 0-3.48 1.63-3.74 3.75a8.497 8.497 0 0 1-2.73-6.24c0-4.7 3.8-8.51 8.46-8.51s8.46 3.82 8.46 8.51c0 2.49-1.08 4.73-2.79 6.29Z"
  />
</svg>