<svg class="nhsapp-icon nhsapp-icon__calendar" xmlns="http://www.w3.org/2000/svg" aria-hidden="true" focusable="false" height="2em" width="2em" viewBox="0 0 24 24">
    <path d="M5.23907 2C4.96293 2 4.73907 2.22386 4.73907 2.5V3.82606H3C2.44772 3.82606 2 4.27378 2 4.82606V20.1739C2 20.7262 2.44771 21.1739 3 21.1739H13.1685C12.9452 20.7454 12.7726 20.2862 12.6588 19.8043H3.36957V8.39127H20.7174V12.9548C21.2112 13.1608 21.6713 13.4315 22.087 13.7565V4.82606C22.087 4.27378 21.6392 3.82606 21.087 3.82606H19.3479V2.5C19.3479 2.22386 19.124 2 18.8479 2H17.1087C16.8326 2 16.6087 2.22386 16.6087 2.5V3.82606H7.47821V2.5C7.47821 2.22386 7.25435 2 6.9782 2H5.23907ZM20.7174 5.19563H3.36954V7.02171H20.7174V5.19563ZM5.23907 9.76088C4.96293 9.76088 4.73907 9.98474 4.73907 10.2609V12C4.73907 12.2761 4.96293 12.5 5.23908 12.5H6.97821C7.25435 12.5 7.47821 12.2761 7.47821 12V10.2609C7.47821 9.98474 7.25435 9.76088 6.9782 9.76088H5.23907ZM4.73907 15.7391C4.73907 15.463 4.96293 15.2391 5.23907 15.2391H6.9782C7.25435 15.2391 7.47821 15.463 7.47821 15.7391V17.4783C7.47821 17.7544 7.25435 17.9783 6.97821 17.9783H5.23908C4.96293 17.9783 4.73907 17.7544 4.73907 17.4783V15.7391ZM10.2609 9.76088C9.98478 9.76088 9.76093 9.98474 9.76093 10.2609V12C9.76093 12.2761 9.98478 12.5 10.2609 12.5H12.0001C12.2762 12.5 12.5001 12.2761 12.5001 12V10.2609C12.5001 9.98474 12.2762 9.76088 12.0001 9.76088H10.2609ZM9.76093 15.7391C9.76093 15.463 9.98478 15.2391 10.2609 15.2391H12.0001C12.2762 15.2391 12.5001 15.463 12.5001 15.7391V17.4783C12.5001 17.7544 12.2762 17.9783 12.0001 17.9783H10.2609C9.98478 17.9783 9.76093 17.7544 9.76093 17.4783V15.7391ZM15.2826 9.76088C15.0065 9.76088 14.7826 9.98474 14.7826 10.2609V12C14.7826 12.2761 15.0065 12.5 15.2826 12.5H17.0218C17.2979 12.5 17.5218 12.2761 17.5218 12V10.2609C17.5218 9.98474 17.2979 9.76088 17.0218 9.76088H15.2826ZM23 18.4348C23 20.9561 20.9561 23 18.4348 23C15.9135 23 13.8695 20.9561 13.8695 18.4348C13.8695 15.9135 15.9135 13.8696 18.4348 13.8696C20.9561 13.8696 23 15.9135 23 18.4348ZM18.05 15.6956C17.8843 15.6956 17.75 15.83 17.75 15.9956V17.75H15.9957C15.83 17.75 15.6957 17.8843 15.6957 18.05V18.8196C15.6957 18.9853 15.83 19.1196 15.9957 19.1196H17.75V20.8739C17.75 21.0396 17.8843 21.1739 18.05 21.1739H18.8196C18.9853 21.1739 19.1196 21.0396 19.1196 20.8739V19.1196H20.8739C21.0396 19.1196 21.1739 18.9853 21.1739 18.8196V18.05C21.1739 17.8843 21.0396 17.75 20.8739 17.75H19.1196V15.9956C19.1196 15.83 18.9853 15.6956 18.8196 15.6956H18.05Z" />
</svg>
