<svg class="nhsapp-icon" xmlns="http://www.w3.org/2000/svg" height="2em" width="2em" viewBox="0 0 24 24">
  <path
    d="M14 21.99h-4c-.97 0-1.76-.79-1.76-1.76v-4.48H3.76c-.97 0-1.76-.79-1.76-1.76v-4c0-.97.79-1.76 1.76-1.76h4.48V3.77c0-.97.79-1.76 1.76-1.76h4c.97 0 1.76.79 1.76 1.76v4.48h4.48c.97 0 1.76.79 1.76 1.76v4c0 .97-.79 1.76-1.76 1.76h-4.48v4.48c0 .97-.79 1.76-1.76 1.76ZM3.76 9.64c-.2 0-.36.16-.36.36v4c0 .2.16.36.36.36H8.5c.63 0 1.14.51 1.14 1.14v4.73c0 .2.16.36.36.36h4c.2 0 .36-.16.36-.36V15.5c0-.63.51-1.14 1.14-1.14h4.74c.2 0 .36-.16.36-.36v-4c0-.2-.16-.36-.36-.36H15.5c-.63 0-1.14-.51-1.14-1.14V3.77c0-.2-.16-.36-.36-.36h-4c-.2 0-.36.16-.36.36V8.5c0 .63-.51 1.14-1.14 1.14H3.76Z"
  />
</svg>