<svg class="nhsapp-icon nhsapp-icon__download" xmlns="http://www.w3.org/2000/svg" aria-hidden="true" focusable="false" height="2em" width="2em" viewBox="0 0 24 24">
  <path d="M11.746 2.058a.719.719 0 0 0-.421.382c-.059.127-.067.766-.085 6.748l-.02 6.607-1.438-1.617c-.945-1.062-1.486-1.639-1.576-1.682-.297-.141-.741-.036-.921.217a.766.766 0 0 0-.04.815c.117.215 3.51 3.973 3.706 4.104.292.196.645.295 1.049.295.598 0 1.023-.199 1.464-.683 1.237-1.36 3.279-3.692 3.322-3.793a.739.739 0 0 0-.663-1.023.889.889 0 0 0-.331.069c-.103.049-.584.559-1.59 1.689l-1.442 1.618v-6.5c0-4.698-.013-6.559-.045-6.712a.74.74 0 0 0-.496-.547c-.203-.057-.283-.054-.473.013M2.541 11.3a.716.716 0 0 0-.498.486c-.029.105-.042 1.487-.042 4.314 0 3.57.009 4.196.061 4.416a1.908 1.908 0 0 0 1.427 1.424c.378.089 16.644.089 17.022 0a1.908 1.908 0 0 0 1.427-1.424c.052-.22.061-.846.061-4.416 0-2.781-.013-4.21-.041-4.311-.056-.202-.248-.413-.429-.473-.185-.061-.451-.058-.575.005a1.186 1.186 0 0 0-.367.339c-.035.059-.052 1.2-.067 4.32-.022 4.592-.009 4.347-.234 4.468-.145.077-16.427.077-16.572 0-.225-.121-.212.124-.234-4.468-.015-3.12-.032-4.261-.067-4.32a1.144 1.144 0 0 0-.353-.329c-.148-.073-.319-.083-.519-.031" />
</svg>
