<svg class="nhsapp-icon nhsapp-icon--filter" xmlns="http://www.w3.org/2000/svg" aria-hidden="true" focusable="false" height="2rem" width="2rem" viewBox="0 0 24 24">
  <path d="M3.507 7.258c-.081.047-.094.14-.094.688 0 .595.008.64.119.718.106.074.997.083 8.468.083s8.362-.009 8.468-.083c.111-.078.119-.124.119-.69 0-.48-.018-.624-.084-.69-.076-.076-.918-.084-8.493-.082-5.613.001-8.441.019-8.503.056m2.628 4.098c-.03.057-.055.347-.055.644 0 .297.025.587.055.644.054.101.176.103 5.865.103s5.811-.002 5.865-.103c.03-.057.055-.347.055-.644 0-.297-.025-.587-.055-.644-.054-.101-.176-.103-5.865-.103s-5.811.002-5.865.103m2.641 4.016c-.061.087-.083.253-.083.628s.022.541.083.628l.083.119h3.169c3.078 0 3.17-.003 3.223-.103.031-.057.056-.356.056-.663 0-.438-.019-.578-.084-.644-.074-.074-.441-.084-3.224-.084h-3.14l-.083.119" />
</svg>