<svg class="nhsapp-icon nhsapp-icon--heart-filled" xmlns="http://www.w3.org/2000/svg" aria-hidden="true" focusable="false" height="2rem" width="2rem" viewBox="0 0 24 24">
  <path
    d="M21.86 6.77c-.34-1.52-1.23-2.79-2.51-3.59-2.38-1.47-5.55-.62-7.23 1.95l-.12.19-.12-.19C10.2 2.56 7.03 1.71 4.65 3.18c-1.28.79-2.17 2.07-2.51 3.59-.35 1.56-.05 3.21.79 4.5a29.79 29.79 0 0 0 3.7 4.91l4.76 5.1c.15.17.37.26.6.26.21 0 .46-.11.6-.26l5.22-5.6c1.09-1.16 2.06-2.46 2.9-3.84l.34-.56c.86-1.32 1.15-2.96.81-4.52Z"
  />
</svg>