<svg class="nhsapp-icon" xmlns="http://www.w3.org/2000/svg" height="2em" width="2em" viewBox="0 0 24 24">
  <path
    d="M15.24 8.8c-.12-.31-.31-.6-.58-.87s-.62-.49-1.06-.67-.99-.27-1.65-.27c-.51 0-.97.09-1.38.26-.41.17-.76.41-1.06.72-.29.31-.52.67-.68 1.08-.14.35-.23.77-.25 1.14 0 .12.1.22.21.23h1.64c.09 0 .17-.1.19-.19 0-.02.03-.36.07-.51.06-.22.14-.41.26-.57.12-.16.26-.29.44-.39s.4-.15.65-.15c.37 0 .66.1.87.31.21.2.31.52.31.95 0 .25-.04.46-.13.63-.1.17-.23.32-.38.46-.16.14-.33.28-.51.42s-.36.3-.53.49c-.17.19-.31.42-.44.69-.12.27-.2.6-.23 1v.43c0 .09.1.2.2.2h1.45c.1 0 .19-.07.22-.16v-.07c0-.11 0-.23.01-.3.02-.3.12-.51.26-.69s.31-.35.49-.49.38-.29.59-.43c.21-.14.4-.32.57-.52.17-.2.32-.45.43-.74.12-.29.17-.65.17-1.1 0-.27-.06-.56-.17-.87Z"
  />
  <rect width="1.88" height="1.84" x="11" y="15.16" class="cls-1" rx=".23" ry=".23" />
  <path
    d="M12.03 22.02c-5.49 0-9.96-4.49-9.96-10.01s4.47-10 9.96-10 9.96 4.49 9.96 10.01-4.47 10.01-9.96 10.01Zm0-18.51c-4.66 0-8.46 3.81-8.46 8.5s3.79 8.51 8.46 8.51 8.46-3.82 8.46-8.51-3.8-8.5-8.46-8.5Z"
  />
</svg>