<svg class="nhsapp-icon" xmlns="http://www.w3.org/2000/svg" aria-hidden="true" focusable="false" height="2em" width="2em" viewBox="0 0 24 24">
  <path
    d="m21.82 9.73-1.29-1.07v-.03h-.03l-7.55-6.3c-.56-.45-1.35-.45-1.92.01L3.5 8.63h-.03v.03L2.18 9.73c-.32.26-.36.74-.09 1.06.15.18.36.27.58.27.17 0 .34-.06.48-.17l.33-.27v10.57c0 .41.34.75.75.75h15.56c.41 0 .75-.34.75-.75V10.62l.33.27c.32.27.79.22 1.06-.09.27-.32.22-.79-.09-1.06Zm-11.4 10.7v-6.8c0-.09.04-.14.03-.15h3.09s.06.06.06.15v6.8h-3.17Zm8.62 0h-3.95v-6.8c0-.91-.69-1.65-1.53-1.65h-3.11c-.84 0-1.53.74-1.53 1.65v6.8H4.97V9.36l7.04-5.87 7.03 5.87v11.07Z"
  />
</svg>