<svg class="nhsapp-icon nhsapp-icon__home-filled" xmlns="http://www.w3.org/2000/svg" aria-hidden="true" focusable="false" height="2rem" width="2rem" viewBox="0 0 24 24">
  <path
    d="m21.82 9.73-1.29-1.07v-.03h-.03l-7.55-6.3c-.56-.45-1.35-.45-1.92.01L3.5 8.63h-.03v.03L2.18 9.73c-.32.26-.36.74-.09 1.06.15.18.36.27.58.27.17 0 .34-.06.48-.17l.33-.27v10.57c0 .41.34.75.75.75h15.56c.41 0 .75-.34.75-.75V10.62l.33.27c.32.27.79.22 1.06-.09.27-.32.22-.79-.09-1.06Zm-7.48 11.45H9.67v-7.55c0-.5.35-.9.78-.9h3.11c.43 0 .78.4.78.9v7.55Z"
  />
</svg>