<svg class="nhsapp-icon nhsapp-icon__letter" xmlns="http://www.w3.org/2000/svg" aria-hidden="true" focusable="false" height="2rem" width="2rem" viewBox="0 0 24 24">
  <path d="M3.691 4.98a1.614 1.614 0 0 0-1.17 1.086c-.08.258-.081.349-.081 5.97 0 6.212-.009 5.949.222 6.343.14.239.46.528.713.644.117.053.355.116.529.139.213.028 2.915.037 8.276.029 7.275-.012 7.976-.018 8.146-.079a1.746 1.746 0 0 0 1.068-1.087c.06-.187.066-.708.066-5.965s-.006-5.778-.066-5.965a1.746 1.746 0 0 0-1.068-1.087c-.17-.061-.873-.067-8.286-.074-6.715-.007-8.143.001-8.349.046m11.151 1.456 3.743.024-3.277 2.495c-1.802 1.372-3.307 2.503-3.344 2.512-.045.012-1.18-.828-3.306-2.448a372.617 372.617 0 0 1-3.317-2.543c-.077-.075-.031-.076 2.84-.07 1.606.003 4.603.016 6.661.03M7.66 10.125a850.885 850.885 0 0 0 3.402 2.584c.199.139.59.251.878.251.288 0 .679-.112.878-.252.126-.087 6.005-4.557 6.732-5.117l.41-.316V17.68l-8.01-.01-8.01-.01-.01-5.192-.01-5.193.23.176 3.51 2.674" />
</svg>
