<svg class="nhsapp-icon nhsapp-icon__night" xmlns="http://www.w3.org/2000/svg" aria-hidden="true" focusable="false" height="2rem" width="2rem" viewBox="0 0 24 24">
  <path d="M20.8999 14.85C20.8699 14.71 20.7999 14.58 20.6899 14.48C20.5899 14.38 20.4599 14.31 20.3099 14.28C20.1699 14.25 20.0199 14.27 19.8899 14.32C19.0099 14.67 18.0599 14.85 17.0599 14.85C12.8699 14.85 9.03995 11.03 9.03995 6.83C9.03995 5.81 9.21995 4.86 9.55995 4C9.59995 3.89 9.61995 3.76 9.60995 3.64C9.58995 3.52 9.54995 3.4 9.47995 3.3C9.40995 3.2 9.30995 3.12 9.19995 3.06C9.08995 3.01 8.96995 2.97 8.83995 2.98C8.75995 2.98 8.68995 3 8.60995 3.03C5.18995 4.3 3.06995 7.6 3.06995 11.64C3.06995 16.7 7.18995 20.82 12.2499 20.82C15.9299 20.82 20.1799 18.76 20.8699 15.27C20.8999 15.13 20.9299 14.99 20.8999 14.85ZM18.9899 16.13C18.9799 16.19 18.8499 16.33 18.6599 16.59C17.8199 17.69 15.5099 19.33 12.2599 19.33C8.01995 19.33 4.56995 15.88 4.56995 11.64C4.56995 8.87 5.62995 6.6 7.55995 5.27L7.60995 5.24C7.60995 5.24 7.69995 5.18 7.70995 5.17C7.70995 5.18 7.70995 5.23 7.68995 5.26C7.68995 5.28 7.67995 5.31 7.66995 5.33C7.57995 5.83 7.54995 6.25 7.54995 6.83C7.54995 11.9 11.9899 16.34 17.0599 16.34C17.6699 16.34 18.2899 16.27 18.9599 16.14H18.9799L18.9899 16.13Z" />
</svg>
