<svg class="nhsapp-icon nhsapp-icon__phone-call" xmlns="http://www.w3.org/2000/svg" aria-hidden="true" focusable="false" height="2em" width="2em" viewBox="0 0 24 24">
  <path fill-rule="evenodd" clip-rule="evenodd" d="M12.9853 2.97127C12.9956 2.571 13.3285 2.25489 13.7287 2.26523C18.4068 2.38602 22.0653 6.36668 21.9348 11.1298C21.9238 11.5301 21.5904 11.8457 21.1902 11.8347C20.7899 11.8238 20.4743 11.4904 20.4853 11.0901C20.5948 7.0933 17.5333 3.81395 13.6913 3.71475C13.291 3.70441 12.9749 3.37155 12.9853 2.97127ZM5.69278 5.57455C5.69275 5.57451 5.69338 5.57437 5.69475 5.57427ZM5.70849 5.57466C5.71091 5.57488 5.71362 5.57519 5.71666 5.57561C5.7595 5.58156 5.83081 5.60955 5.89676 5.68116L8.34232 8.27713L8.34371 8.2786C8.42271 8.36199 8.44414 8.43311 8.44801 8.47563C8.44833 8.47914 8.44852 8.48229 8.44863 8.48509L6.71405 10.116C6.51899 10.2527 6.39988 10.4804 6.40504 10.7245C6.4055 10.8004 6.41779 10.8763 6.44201 10.9491C6.5069 11.1961 6.62995 11.4911 6.77152 11.785C6.93729 12.1292 7.15303 12.5219 7.40098 12.9227C7.89023 13.7135 8.53875 14.5909 9.21976 15.1931L9.22163 15.1947C10.2438 16.0924 11.0053 16.5695 11.6487 16.8461C12.123 17.0499 12.5501 17.1439 12.8638 17.213C12.9598 17.2341 13.0452 17.2529 13.1181 17.2718C13.3965 17.344 13.6791 17.2442 13.8534 17.0386C13.8791 17.0201 13.9038 16.9997 13.9275 16.9774L15.6633 15.3402C15.6667 15.3404 15.6708 15.3409 15.6756 15.3415C15.7231 15.3483 15.8059 15.38 15.8878 15.4629L18.3937 18.1086C18.4727 18.1919 18.4987 18.2741 18.5023 18.3193C18.5026 18.324 18.5028 18.3279 18.5028 18.3312L16.9527 19.7924C16.95 19.795 16.9473 19.7976 16.9446 19.8003C16.5819 20.0657 16.0137 20.2465 15.2429 20.2765C14.4342 20.308 13.4692 20.1697 12.4429 19.8566C10.3862 19.229 8.18618 17.9313 6.62257 16.0906C4.77256 13.9138 3.91399 11.8469 3.62492 10.2334C3.48002 9.4246 3.47964 8.7387 3.56179 8.21342C3.63689 7.73324 3.77203 7.43916 3.8807 7.29275C3.88607 7.28799 3.89139 7.28314 3.89665 7.27819L5.70849 5.57466ZM2.97132 6.15794L4.74535 4.48997C5.43324 3.84794 6.43417 4.1276 6.96011 4.69537L9.39634 7.28137C9.39662 7.28167 9.3969 7.28196 9.39717 7.28225C9.6777 7.57871 9.85595 7.94726 9.89205 8.34435C9.92762 8.73557 9.82299 9.1838 9.46637 9.51845C9.46621 9.5186 9.46653 9.5183 9.46637 9.51845L7.97154 10.9239C8.00145 10.993 8.03674 11.0704 8.07791 11.1559C8.21901 11.4489 8.40953 11.7968 8.63408 12.1598C9.08956 12.8961 9.65066 13.6382 10.1794 14.1061C11.1267 14.9378 11.7599 15.3156 12.2213 15.5139C12.559 15.6591 12.7953 15.7111 13.0758 15.7728C13.08 15.7738 13.0842 15.7747 13.0884 15.7756L14.6926 14.2626L14.6947 14.2605C15.4022 13.5987 16.4017 13.9122 16.9295 14.4542L16.9364 14.4614L19.446 17.111C19.9851 17.6793 20.2214 18.7077 19.5163 19.3685C19.516 19.3688 19.5156 19.3691 19.5153 19.3694L18.0339 20.766C18.0033 20.8037 17.9685 20.8389 17.9294 20.8709C17.2374 21.4376 16.2941 21.6866 15.2993 21.7254C14.294 21.7645 13.1646 21.5928 12.0197 21.2434C9.73386 20.546 7.28398 19.1088 5.51759 17.0295C3.5176 14.6763 2.53607 12.3781 2.19764 10.4891C2.02879 9.54663 2.01855 8.6969 2.12921 7.98937C2.23704 7.29989 2.47145 6.67495 2.85805 6.25742C2.89298 6.2197 2.93098 6.18653 2.97132 6.15794ZM18.5019 18.3443C18.5018 18.3443 18.5019 18.3437 18.5022 18.3426ZM18.5241 18.3112C18.5239 18.3114 18.5243 18.311 18.5241 18.3112ZM15.6511 15.34C15.6501 15.3402 15.6496 15.3403 15.6496 15.3402ZM12.5853 6.57141C12.5955 6.17113 12.9283 5.85496 13.3286 5.86523C16.0391 5.93473 18.2382 8.11021 18.1547 10.7826C18.1422 11.1828 17.8076 11.4971 17.4074 11.4846C17.0072 11.4721 16.6929 11.1376 16.7054 10.7373C16.7619 8.92977 15.2609 7.36525 13.2914 7.31475C12.8912 7.30449 12.575 6.97168 12.5853 6.57141Z" />
</svg>
