<svg class="nhsapp-icon nhsapp-icon__switch-profile" xmlns="http://www.w3.org/2000/svg" aria-hidden="true" focusable="false" height="2rem" width="2rem" viewBox="0 0 24 24">
  <path
    d="M12.03 2.01c-5.49 0-9.96 4.49-9.96 10s4.47 10.01 9.96 10.01 9.96-4.49 9.96-10.01-4.47-10-9.96-10Zm0 1.5c4.66 0 8.46 3.82 8.46 8.51 0 .98-.17 1.91-.47 2.78a3.287 3.287 0 0 0-2.85-1.66h-3.29c-1.83 0-3.31 1.49-3.31 3.32l.04 3.93c-.18-.03-.35-.06-.52-.11l-.03-3.82c0-.67.19-1.29.49-1.83-.33-.14-.7-.23-1.09-.23H6.88c-1.03 0-1.93.58-2.4 1.43a8.437 8.437 0 0 1-.91-3.82c0-4.69 3.8-8.5 8.46-8.5Zm2.6 16.6Zm-1.39.32Zm-1.95.06Zm-1.21-.2Zm-5.6-4.45Zm4.68 4.17Zm-.85-.36c-.27-.13-.52-.28-.77-.43.25.16.51.3.77.43Zm8.73-.79a8.44 8.44 0 0 0 1.74-1.74c-.49.66-1.08 1.24-1.74 1.74Zm-2.26 1.2c.35-.12.68-.26 1.01-.43-.33.16-.66.31-1.01.43Zm1.15-.49Zm2.9-2.49c.51-.69.91-1.45 1.2-2.27a8.37 8.37 0 0 1-1.2 2.27Z"
  />
  <path
    d="M8.1 14.17c1.39 0 2.52-1.13 2.52-2.52S9.49 9.13 8.1 9.13s-2.52 1.13-2.52 2.52 1.13 2.52 2.52 2.52Zm7.33-1.54c1.77 0 3.21-1.44 3.21-3.21s-1.44-3.21-3.21-3.21-3.21 1.44-3.21 3.21 1.44 3.21 3.21 3.21Z"
  />
</svg>