<svg width="668" height="609" viewBox="0 0 668 609" fill="none" xmlns="http://www.w3.org/2000/svg">
<path d="M85.8499 124V127.878H82V124H85.8499ZM101.249 124V127.878H93.5498L93.5498 124H101.249ZM116.648 124V127.878H108.949V124H116.648ZM132.047 124L132.047 127.878H124.348V124L132.047 124ZM147.447 124V127.878H139.747V124H147.447ZM162.846 124V127.878H155.147V124H162.846ZM178.245 124V127.878H170.545L170.545 124H178.245ZM193.645 124V127.878H185.945V124H193.645ZM209.044 124V127.878H201.344V124H209.044ZM224.443 124V127.878H216.744V124H224.443ZM239.842 124V127.878H232.142V124H239.842ZM255.242 124V127.878H247.542V124H255.242ZM270.641 124V127.878L262.941 127.878L262.941 124H270.641ZM286.04 124L286.04 127.878H278.34V124H286.04ZM301.439 124L301.439 127.878H293.74V124L301.439 124ZM316.839 124V127.878H309.139V124H316.839ZM332.237 124V127.878H324.539L324.539 124H332.237ZM347.637 124V127.878H339.937V124H347.637ZM363.036 124V127.878H355.337V124H363.036ZM378.436 124V127.878H370.736V124H378.436ZM393.834 124V127.878H386.135V124L393.834 124ZM409.234 124V127.878H401.534V124H409.234ZM424.633 124V127.878H416.934V124H424.633ZM440.032 124V127.878H432.333V124H440.032ZM455.431 124V127.878H447.732V124H455.431ZM470.831 124V127.878H463.131V124H470.831ZM486.23 124V127.878H478.531V124H486.23ZM501.629 124V127.878H493.93V124H501.629ZM517.028 124V127.878H509.329V124H517.028ZM532.428 124V127.878L524.728 127.878V124H532.428ZM547.827 124V127.878H540.128L540.128 124H547.827ZM563.226 124V127.878H555.526V124L563.226 124ZM578.625 124V127.878H570.926V124H578.625ZM594.025 124V127.878H586.325V124H594.025ZM605.574 124V127.878H601.725V124H605.574Z" fill="#B2DFF5"/>
<path d="M85.8499 479V482.878H82V479L85.8499 479ZM101.249 479V482.878H93.5498L93.5498 479H101.249ZM116.648 479V482.878H108.949V479H116.648ZM132.047 479L132.047 482.878H124.348V479H132.047ZM147.447 479V482.878H139.747V479H147.447ZM162.846 479V482.878H155.147V479H162.846ZM178.245 479V482.878H170.545L170.545 479H178.245ZM193.645 479V482.878H185.945V479H193.645ZM209.044 479V482.878H201.344V479H209.044ZM224.443 479V482.878H216.744V479H224.443ZM239.842 479V482.878H232.142V479H239.842ZM255.242 479V482.878H247.542V479H255.242ZM270.641 479V482.878H262.941L262.941 479H270.641ZM286.04 479L286.04 482.878H278.34V479H286.04ZM301.439 479L301.439 482.878H293.74V479H301.439ZM316.839 479V482.878H309.139V479H316.839ZM332.237 479V482.878H324.539L324.539 479H332.237ZM347.637 479V482.878H339.937V479H347.637ZM363.036 479V482.878H355.337V479H363.036ZM378.436 479V482.878H370.736V479H378.436ZM393.834 479V482.878H386.135V479H393.834ZM409.234 479V482.878H401.534V479H409.234ZM424.633 479V482.878H416.934V479H424.633ZM440.032 479V482.878H432.333V479H440.032ZM455.431 479V482.878H447.732V479H455.431ZM470.831 479V482.878H463.131V479H470.831ZM486.23 479V482.878H478.531V479H486.23ZM501.629 479V482.878H493.93V479H501.629ZM517.028 479V482.878H509.329V479H517.028ZM532.428 479V482.878H524.728V479H532.428ZM547.827 479V482.878H540.128L540.128 479H547.827ZM563.226 479V482.878H555.526V479H563.226ZM578.625 479V482.878H570.926V479H578.625ZM594.025 479V482.878H586.325V479H594.025ZM605.574 479V482.878H601.725V479H605.574Z" fill="#B2DFF5"/>
<path d="M599 466.945H602.878V470.734H599V466.945ZM599 451.79H602.878V459.367H599V451.79ZM599 436.633H602.878V444.211H599V436.633ZM599 421.477H602.878V429.055H599V421.477ZM599 406.32H602.878V413.899H599V406.32ZM599 391.165H602.878V398.743H599V391.165ZM599 376.009H602.878V383.586H599V376.009ZM599 360.852H602.878V368.431H599V360.852ZM599 345.696H602.878V353.275H599V345.696ZM599 330.541H602.878V338.118H599V330.541ZM599 315.384H602.878V322.962H599V315.384ZM599 300.228H602.878V307.807H599V300.228ZM599 285.072H602.878V292.65H599V285.072ZM599 269.916H602.878V277.494H599V269.916ZM599 254.76H602.878V262.338H599V254.76ZM599 239.603H602.878V247.182H599V239.603ZM599 224.447H602.878V232.026H599V224.447ZM599 209.292H602.878V216.869H599V209.292ZM599 194.135H602.878V201.713H599V194.135ZM599 182.768H602.878V186.558H599V182.768Z" fill="#B2DFF5"/>
<path d="M55.0001 466.945H58.8784V470.734H55.0001V466.945ZM55.0001 451.79H58.8784V459.367H55.0001V451.79ZM55.0001 436.633H58.8784V444.211H55.0001V436.633ZM55.0001 421.477H58.8784V429.055H55.0001L55.0001 421.477ZM55.0001 406.32H58.8784V413.899H55.0001V406.32ZM55.0001 391.165H58.8784V398.743H55.0001V391.165ZM55.0001 376.009H58.8784V383.586H55.0001V376.009ZM55.0001 360.852H58.8784L58.8784 368.431H55.0001V360.852ZM55.0001 345.696H58.8784V353.275H55.0001V345.696ZM55.0001 330.541H58.8784V338.118H55.0001V330.541ZM55.0001 315.384H58.8784V322.962H55.0001V315.384ZM55.0001 300.228H58.8784V307.807H55.0001V300.228ZM55.0001 285.072H58.8784V292.65H55.0001V285.072ZM55.0001 269.916H58.8784L58.8784 277.494H55.0001V269.916ZM55.0001 254.76H58.8784V262.338H55.0001V254.76ZM55.0001 239.603H58.8784V247.182H55.0001V239.603ZM55.0001 224.447H58.8784V232.026H55.0001V224.447ZM55.0001 209.292H58.8784V216.869H55.0001V209.292ZM55.0001 194.135H58.8784V201.713H55.0001V194.135ZM55.0001 182.768H58.8784V186.558H55.0001V182.768Z" fill="#B2DFF5"/>
<path d="M658.018 481.009C658.018 512.494 632.494 538.018 601.009 538.018C569.524 538.018 544 512.494 544 481.009C544 449.524 569.524 424.001 601.009 424.001C632.494 424.001 658.018 449.524 658.018 481.009Z" fill="#005EB8"/>
<path d="M654.331 481.009C654.331 451.56 630.457 427.687 601.009 427.687C571.56 427.688 547.687 451.56 547.687 481.009C547.687 510.458 571.56 534.331 601.009 534.331L601.009 538.018L600.272 538.013C569.127 537.619 544 512.248 544 481.009C544 449.524 569.524 424.001 601.009 424.001C632.494 424.001 658.018 449.524 658.018 481.009L658.013 481.746C657.619 512.891 632.248 538.018 601.009 538.018L601.009 534.331C630.458 534.331 654.331 510.458 654.331 481.009Z" fill="#B2DFF5"/>
<path d="M609.326 494.22C606.983 496.56 604.577 498.74 602.115 500.767L579.227 477.879C581.251 475.414 583.431 473.008 585.774 470.668C598.362 458.08 613.004 450.009 626.371 447.204C630.198 446.402 633.589 449.796 632.784 453.623C629.972 466.998 621.904 481.639 609.326 494.22Z" fill="#B2DFF5"/>
<path d="M580.963 477.8L602.196 499.03C604.332 497.23 606.422 495.309 608.419 493.312C620.429 481.3 628.638 467.113 631.53 453.361C631.825 451.966 631.416 450.593 630.409 449.587C629.403 448.58 628.027 448.169 626.635 448.461C612.894 451.345 598.704 459.554 586.681 471.574C584.689 473.569 582.769 475.656 580.963 477.8ZM602.117 502.05C601.787 502.05 601.458 501.922 601.208 501.673L578.32 478.785C577.853 478.317 577.816 477.574 578.235 477.061C580.31 474.544 582.541 472.087 584.867 469.76C597.238 457.39 611.885 448.934 626.109 445.951C628.335 445.484 630.619 446.166 632.223 447.77C633.83 449.38 634.51 451.666 634.042 453.889C631.049 468.122 622.593 482.769 610.233 495.126C607.901 497.461 605.444 499.691 602.932 501.758C602.693 501.952 602.404 502.05 602.117 502.05Z" fill="#005EB8"/>
<path d="M630.81 460.781C627.952 460.457 625.182 459.195 622.991 457.001C620.797 454.81 619.53 452.035 619.206 449.177C621.62 448.359 624.016 447.701 626.374 447.207C630.196 446.402 633.593 449.799 632.788 453.618C632.291 455.976 631.633 458.372 630.81 460.781Z" fill="#B2DFF5"/>
<path d="M620.643 450.054C621.108 452.325 622.242 454.439 623.897 456.096C625.578 457.777 627.65 458.887 629.936 459.344C630.582 457.344 631.118 455.334 631.532 453.355C631.825 451.966 631.416 450.591 630.409 449.584C629.402 448.58 628.027 448.171 626.64 448.463C624.675 448.872 622.665 449.409 620.643 450.054ZM630.81 462.064C630.765 462.064 630.714 462.061 630.667 462.053C627.395 461.684 624.425 460.252 622.083 457.91C619.772 455.6 618.298 452.548 617.932 449.321C617.865 448.721 618.224 448.155 618.795 447.961C621.254 447.13 623.716 446.453 626.112 445.951C628.329 445.484 630.616 446.163 632.223 447.77C633.83 449.377 634.51 451.664 634.042 453.884C633.538 456.298 632.858 458.76 632.024 461.195C631.846 461.719 631.354 462.064 630.81 462.064Z" fill="#005EB8"/>
<path d="M600.018 471.013C602.494 468.538 606.507 468.538 608.982 471.013C611.457 473.488 611.457 477.501 608.982 479.976C606.507 482.452 602.494 482.452 600.018 479.976C597.543 477.501 597.543 473.488 600.018 471.013Z" fill="white"/>
<path d="M604.501 470.441C603.208 470.441 601.912 470.935 600.926 471.918C598.956 473.891 598.956 477.096 600.926 479.067C602.897 481.038 606.102 481.038 608.076 479.067C610.046 477.096 610.046 473.891 608.076 471.918C607.09 470.935 605.794 470.441 604.501 470.441ZM604.501 483.112C602.549 483.112 600.597 482.368 599.112 480.884C596.14 477.912 596.14 473.076 599.112 470.104C602.081 467.132 606.918 467.132 609.89 470.104C612.862 473.076 612.862 477.912 609.89 480.884C608.405 482.368 606.453 483.112 604.501 483.112Z" fill="#005EB8"/>
<path d="M595.936 512.105C593.471 506.833 589.862 500.669 584.327 495.203C578.999 489.945 573.037 486.463 567.885 484.057C572.193 481.709 575.94 479.667 579.225 477.877L602.116 500.765L595.936 512.105Z" fill="#B2DFF5"/>
<path d="M570.683 483.996C576.387 486.896 581.163 490.28 585.229 494.295C589.446 498.457 592.986 503.389 596.001 509.311L600.532 500.996L578.998 479.463L570.683 483.996ZM595.937 513.393C595.924 513.393 595.91 513.393 595.897 513.391C595.414 513.377 594.978 513.091 594.774 512.652C591.661 505.992 587.948 500.584 583.425 496.12C579.049 491.799 573.787 488.232 567.342 485.223C566.904 485.016 566.619 484.583 566.603 484.1C566.587 483.616 566.845 483.165 567.273 482.934L578.613 476.751C579.112 476.48 579.731 476.568 580.135 476.971L603.023 499.859C603.427 500.263 603.517 500.882 603.243 501.381L597.063 512.724C596.837 513.136 596.404 513.393 595.937 513.393Z" fill="#005EB8"/>
<path d="M585.777 470.673C584.579 471.871 583.421 473.084 582.314 474.317L573.321 465.327L575.228 463.42C580.824 457.824 589.58 457.338 595.731 461.951C592.316 464.564 588.977 467.473 585.777 470.673Z" fill="white"/>
<path d="M575.138 465.326L582.272 472.46C583.092 471.575 583.961 470.675 584.869 469.764C587.61 467.023 590.518 464.431 593.535 462.036C587.976 458.83 580.766 459.696 576.134 464.327L575.138 465.326ZM582.314 475.599C581.974 475.599 581.648 475.463 581.406 475.222L572.416 466.232C571.914 465.73 571.914 464.92 572.416 464.418L574.32 462.514C580.256 456.578 589.79 455.895 596.502 460.925C596.823 461.167 597.011 461.544 597.014 461.945C597.017 462.349 596.831 462.726 596.51 462.97C593.078 465.594 589.772 468.492 586.686 471.581C585.464 472.802 584.314 474.011 583.268 475.174C583.031 475.437 582.699 475.588 582.349 475.599C582.335 475.599 582.325 475.599 582.314 475.599Z" fill="#005EB8"/>
<path d="M616.575 504.766L614.67 506.67L605.686 497.685C606.918 496.578 608.132 495.42 609.33 494.222C612.535 491.014 615.446 487.676 618.049 484.268C622.656 490.411 622.165 499.175 616.575 504.766Z" fill="white"/>
<path d="M607.543 497.729L614.671 504.855L615.667 503.859C620.299 499.23 621.165 492.022 617.967 486.466C615.579 489.475 612.985 492.383 610.236 495.129C609.33 496.038 608.427 496.909 607.543 497.729ZM614.671 507.954C614.342 507.954 614.012 507.829 613.763 507.577L604.778 498.595C604.528 498.345 604.393 498.003 604.404 497.652C604.412 497.299 604.566 496.967 604.828 496.731C605.992 495.687 607.2 494.537 608.422 493.315C611.519 490.219 614.416 486.912 617.032 483.489C617.274 483.173 617.651 482.987 618.052 482.987C618.052 482.987 618.055 482.987 618.057 482.987C618.458 482.987 618.838 483.178 619.077 483.499C624.105 490.205 623.417 499.737 617.481 505.673L615.577 507.577C615.327 507.829 614.998 507.954 614.671 507.954Z" fill="#005EB8"/>
<path d="M630.81 460.781C627.952 460.457 625.182 459.195 622.991 457.001C620.797 454.81 619.53 452.035 619.206 449.177C621.62 448.359 624.016 447.701 626.374 447.207C630.196 446.402 633.593 449.799 632.788 453.618C632.291 455.976 631.633 458.372 630.81 460.781Z" fill="white"/>
<path d="M620.643 450.054C621.108 452.325 622.242 454.439 623.897 456.096C625.578 457.777 627.65 458.887 629.936 459.344C630.582 457.344 631.118 455.334 631.532 453.355C631.825 451.966 631.416 450.591 630.409 449.584C629.402 448.58 628.027 448.171 626.64 448.463C624.675 448.872 622.665 449.409 620.643 450.054ZM630.81 462.064C630.765 462.064 630.714 462.061 630.667 462.053C627.395 461.684 624.425 460.252 622.083 457.91C619.772 455.6 618.298 452.548 617.932 449.321C617.865 448.721 618.224 448.155 618.795 447.961C621.254 447.13 623.716 446.453 626.112 445.951C628.329 445.484 630.616 446.163 632.223 447.77C633.83 449.377 634.51 451.664 634.042 453.884C633.538 456.298 632.858 458.76 632.024 461.195C631.846 461.719 631.354 462.064 630.81 462.064Z" fill="#005EB8"/>
<path d="M568.536 491.129L564.47 495.195Z" fill="#B2DFF5"/>
<path d="M564.47 496.479C564.14 496.479 563.814 496.354 563.561 496.105C563.062 495.603 563.062 494.79 563.561 494.291L567.627 490.225C568.129 489.723 568.942 489.723 569.441 490.225C569.943 490.724 569.943 491.537 569.441 492.039L565.375 496.105C565.126 496.354 564.796 496.479 564.47 496.479Z" fill="white"/>
<path d="M573.617 496.211L569.551 500.277Z" fill="#B2DFF5"/>
<path d="M569.549 501.562C569.223 501.562 568.893 501.438 568.644 501.185C568.142 500.686 568.142 499.873 568.644 499.371L572.71 495.305C573.209 494.803 574.022 494.803 574.524 495.305C575.026 495.807 575.026 496.62 574.524 497.119L570.458 501.185C570.208 501.438 569.879 501.562 569.549 501.562Z" fill="white"/>
<path d="M578.7 501.294L574.634 505.36Z" fill="#B2DFF5"/>
<path d="M574.633 506.645C574.304 506.645 573.977 506.517 573.725 506.268C573.226 505.766 573.226 504.956 573.725 504.454L577.791 500.388C578.293 499.886 579.106 499.886 579.605 500.388C580.107 500.89 580.107 501.7 579.605 502.202L575.542 506.268C575.289 506.517 574.963 506.645 574.633 506.645Z" fill="white"/>
<path d="M583.78 506.375L579.717 510.441Z" fill="#B2DFF5"/>
<path d="M579.717 511.724C579.388 511.724 579.059 511.599 578.809 511.35C578.307 510.848 578.307 510.035 578.809 509.533L582.875 505.467C583.377 504.968 584.187 504.968 584.689 505.467C585.191 505.969 585.191 506.782 584.689 507.284L580.623 511.35C580.373 511.599 580.044 511.724 579.717 511.724Z" fill="white"/>
<path d="M588.863 511.46L584.797 515.524Z" fill="#B2DFF5"/>
<path d="M584.797 516.808C584.467 516.808 584.141 516.68 583.888 516.431C583.389 515.929 583.389 515.116 583.888 514.617L587.955 510.551C588.457 510.049 589.269 510.049 589.771 510.551C590.27 511.053 590.27 511.865 589.771 512.365L585.705 516.431C585.453 516.68 585.126 516.808 584.797 516.808Z" fill="white"/>
<path d="M114.017 481.203C114.017 512.688 88.4937 538.212 57.0087 538.212C25.5236 538.212 0 512.688 0 481.203C0 449.718 25.5236 424.195 57.0087 424.195C88.4937 424.195 114.017 449.718 114.017 481.203Z" fill="#005EB8"/>
<path d="M114.017 127.009C114.017 158.494 88.4937 184.018 57.0087 184.018C25.5236 184.018 0 158.494 0 127.009C0 95.5239 25.5236 70.0002 57.0087 70.0002C88.4937 70.0002 114.017 95.5239 114.017 127.009Z" fill="#005EB8"/>
<path d="M110.331 127.008C110.33 97.5597 86.4569 73.6869 57.0082 73.6869C27.5597 73.6871 3.68692 97.5599 3.68672 127.008C3.68672 156.457 27.5595 180.331 57.0082 180.331L57.0087 184.018L56.2719 184.013C25.1265 183.619 0 158.248 0 127.009C0 95.5239 25.5236 70.0002 57.0087 70.0002C88.4937 70.0002 114.017 95.5239 114.017 127.009L114.013 127.746C113.618 158.891 88.2477 184.018 57.0087 184.018L57.0082 180.331C86.4571 180.331 110.331 156.457 110.331 127.008Z" fill="#B2DFF5"/>
<path d="M88.287 127.015C88.287 125.025 88.0965 123.083 87.7326 121.195L93.6406 115.876C92.9128 113.47 91.9603 111.182 90.7804 108.998L82.8652 109.399C80.6475 106.158 77.8584 103.369 74.6173 101.151L75.0324 93.2359C72.8517 92.056 70.5459 91.1035 68.1548 90.3757L62.8212 96.2837C60.9305 95.9198 58.9915 95.7293 56.9984 95.7293C55.0082 95.7293 53.0664 95.9198 51.1786 96.2837L45.8591 90.3757C43.451 91.1035 41.1651 92.056 38.9816 93.2359L39.3966 101.151C36.1583 103.352 33.3522 106.158 31.1345 109.399L23.2335 108.998C22.0564 111.182 21.104 113.47 20.3762 115.876L26.2671 121.178C25.9032 123.066 25.7127 125.025 25.7127 127.015C25.7127 129.008 25.9032 130.967 26.2671 132.855L20.3762 138.154C21.104 140.563 22.0564 142.851 23.2335 145.032L31.1345 144.634C33.3522 147.875 36.1583 150.681 39.3966 152.882L38.9816 160.797C41.1651 161.96 43.451 162.929 45.8591 163.64L51.1786 157.749C53.0664 158.113 55.0082 158.304 56.9984 158.304C58.9915 158.304 60.9305 158.113 62.8212 157.749L68.1378 163.64C70.5459 162.929 72.8517 161.96 75.0324 160.797L74.6173 152.882C77.8584 150.664 80.6475 147.875 82.8652 144.634L90.7804 145.032C91.9603 142.851 92.9128 140.563 93.6406 138.154L87.7326 132.838C88.0965 130.95 88.287 129.008 88.287 127.015Z" fill="#B2DFF5"/>
<path d="M62.8207 156.376C63.2045 156.376 63.5769 156.538 63.8385 156.828L68.5695 162.068C70.2583 161.522 71.9499 160.823 73.616 159.984L73.2464 152.953C73.2208 152.475 73.4454 152.018 73.8406 151.747C76.951 149.621 79.6036 146.965 81.7303 143.858C82.0004 143.465 82.4582 143.235 82.933 143.264L89.9725 143.616C90.7942 142.001 91.4936 140.315 92.0622 138.587L86.8138 133.859C86.4556 133.537 86.2906 133.051 86.3845 132.579C86.7342 130.754 86.9104 128.883 86.9104 127.015C86.9104 125.15 86.7342 123.279 86.3845 121.454C86.2906 120.982 86.4556 120.496 86.8138 120.175L92.0622 115.446C91.4936 113.718 90.7942 112.032 89.9725 110.417L82.933 110.769C82.4582 110.795 82.0004 110.568 81.7303 110.172C79.6036 107.068 76.951 104.412 73.8406 102.286C73.4454 102.016 73.2208 101.558 73.2464 101.08L73.616 94.0434C72.0125 93.2274 70.3237 92.528 68.5837 91.9537L63.8385 97.2049C63.5172 97.5603 63.031 97.7252 62.5591 97.6314C58.917 96.932 55.0845 96.932 51.4396 97.6314C50.9648 97.7252 50.4787 97.5604 50.1574 97.2021L45.4293 91.9509C43.7006 92.5195 42.0147 93.2218 40.3998 94.0434L40.7694 101.08C40.795 101.561 40.5675 102.018 40.1695 102.288C37.0648 104.398 34.4065 107.051 32.2656 110.172C31.9955 110.568 31.5378 110.795 31.0658 110.769L24.0433 110.417C23.2216 112.032 22.5222 113.718 21.9508 115.446L27.1849 120.158C27.5432 120.479 27.7052 120.965 27.6142 121.437C27.2617 123.262 27.0854 125.139 27.0854 127.015C27.0854 128.894 27.2617 130.771 27.6142 132.596C27.7052 133.068 27.5432 133.554 27.1849 133.876L21.9508 138.587C22.5222 140.315 23.2216 142.001 24.0433 143.616L31.0658 143.264C31.5349 143.235 31.9955 143.465 32.2656 143.858C34.4065 146.982 37.0648 149.635 40.1695 151.745C40.5675 152.015 40.795 152.472 40.7694 152.953L40.3998 159.987C42.0716 160.828 43.7547 161.525 45.4264 162.068L50.1574 156.828C50.4815 156.473 50.9648 156.308 51.4368 156.399C55.0874 157.104 58.9085 157.104 62.5591 156.399C62.6472 156.385 62.7325 156.376 62.8207 156.376ZM45.8586 165.013C45.7307 165.013 45.5998 164.994 45.4719 164.957C43.095 164.257 40.6955 163.265 38.3357 162.011C37.8637 161.761 37.5822 161.258 37.6107 160.726L37.986 153.573C35.0775 151.494 32.5442 148.967 30.446 146.044L23.3041 146.405C22.7582 146.439 22.2749 146.152 22.0247 145.686C20.805 143.426 19.8099 141.026 19.0622 138.553C18.9058 138.044 19.0621 137.492 19.4573 137.134L24.7797 132.346C24.4868 130.595 24.339 128.806 24.339 127.015C24.339 125.227 24.4868 123.438 24.7797 121.687L19.4573 116.896C19.0621 116.541 18.9058 115.989 19.0622 115.481C19.8099 113.007 20.805 110.607 22.0247 108.347C22.2749 107.881 22.7724 107.591 23.3041 107.628L30.446 107.989C32.5442 105.066 35.0775 102.539 37.986 100.46L37.6107 93.307C37.5822 92.7754 37.8609 92.2778 38.33 92.0248C40.5903 90.8051 42.9927 89.8071 45.4634 89.0622C45.9695 88.9059 46.5239 89.0622 46.8821 89.4574L51.687 94.7968C55.1869 94.2112 58.8147 94.2112 62.3117 94.7968L67.1365 89.4546C67.4919 89.0594 68.0463 88.9059 68.5552 89.0622C71.0487 89.8213 73.4483 90.8193 75.6858 92.0248C76.1521 92.2778 76.4335 92.7754 76.4051 93.307L76.0298 100.463C78.9383 102.556 81.463 105.08 83.5527 107.989L90.7117 107.628C91.2576 107.599 91.7381 107.881 91.9911 108.347C93.208 110.607 94.2059 113.007 94.9536 115.481C95.1072 115.989 94.9536 116.541 94.5584 116.896L89.2191 121.704C89.5119 123.456 89.6598 125.238 89.6598 127.015C89.6598 128.795 89.5119 130.578 89.2191 132.329L94.5584 137.134C94.9536 137.492 95.1072 138.044 94.9536 138.553C94.2059 141.026 93.208 143.426 91.9911 145.686C91.7381 146.152 91.2576 146.439 90.7117 146.405L83.5527 146.044C81.463 148.953 78.9383 151.477 76.0298 153.567L76.4051 160.726C76.4335 161.258 76.1492 161.761 75.6773 162.011C73.3345 163.256 70.9264 164.249 68.5268 164.957C68.0179 165.104 67.472 164.951 67.1195 164.561L62.3117 159.236C58.809 159.822 55.1869 159.822 51.687 159.236L46.8792 164.561C46.6148 164.854 46.2424 165.013 45.8586 165.013Z" fill="#005EB8"/>
<path d="M34.5725 127.007C34.5725 114.617 44.6173 104.572 57.0076 104.572C69.4008 104.572 79.4455 114.617 79.4455 127.007C79.4455 139.4 69.4008 149.445 57.0076 149.445C44.6173 149.445 34.5725 139.4 34.5725 127.007Z" fill="white"/>
<path d="M57.0072 105.945C45.393 105.945 35.9453 115.392 35.9453 127.006C35.9453 138.621 45.393 148.071 57.0072 148.071C68.6213 148.071 78.0719 138.621 78.0719 127.006C78.0719 115.392 68.6213 105.945 57.0072 105.945ZM57.0072 150.818C43.8776 150.818 33.196 140.136 33.196 127.006C33.196 113.88 43.8776 103.198 57.0072 103.198C70.1367 103.198 80.8183 113.88 80.8183 127.006C80.8183 140.136 70.1367 150.818 57.0072 150.818Z" fill="#005EB8"/>
<path d="M49.5058 135.611C49.1561 135.611 48.8035 135.477 48.5363 135.21L41.3062 127.98C40.7688 127.442 40.7688 126.575 41.3062 126.038L48.5363 118.808C49.0736 118.271 49.9408 118.271 50.4781 118.808C51.0155 119.345 51.0155 120.215 50.4781 120.75L44.2204 127.007L50.4781 133.268C51.0155 133.803 51.0155 134.673 50.4781 135.21C50.2109 135.477 49.8583 135.611 49.5058 135.611Z" fill="#005EB8"/>
<path d="M64.5071 135.611C64.1574 135.611 63.8048 135.477 63.5376 135.21C63.0002 134.673 63.0002 133.803 63.5376 133.268L69.7953 127.007L63.5376 120.75C63.0002 120.215 63.0002 119.345 63.5376 118.808C64.0721 118.271 64.9421 118.271 65.4795 118.808L72.7067 126.038C73.244 126.575 73.244 127.442 72.7067 127.98L65.4795 135.21C65.2094 135.477 64.8596 135.611 64.5071 135.611Z" fill="#005EB8"/>
<path d="M53.1238 138.741C52.9788 138.741 52.8281 138.718 52.6831 138.67C51.9638 138.425 51.5799 137.646 51.8216 136.927L58.8271 116.209C59.0716 115.49 59.8505 115.106 60.5699 115.347C61.2892 115.589 61.673 116.371 61.4313 117.087L54.4259 137.808C54.2297 138.38 53.6952 138.741 53.1238 138.741Z" fill="#005EB8"/>
<path d="M658.017 127.008C658.017 158.493 632.494 184.017 601.009 184.017C569.524 184.017 544 158.493 544 127.008C544 95.523 569.524 69.9994 601.009 69.9994C632.494 69.9994 658.017 95.523 658.017 127.008Z" fill="#005EB8"/>
<path d="M654.33 127.008C654.33 97.559 630.457 73.6861 601.009 73.6861C571.56 73.6862 547.687 97.559 547.687 127.008C547.687 156.457 571.56 180.33 601.009 180.33L601.009 184.017L600.272 184.012C569.127 183.618 544 158.247 544 127.008C544 95.523 569.524 69.9994 601.009 69.9994C632.494 69.9994 658.017 95.523 658.017 127.008C658.017 158.493 632.494 184.017 601.009 184.017L601.009 180.33C630.457 180.33 654.33 156.457 654.33 127.008Z" fill="#B2DFF5"/>
<path d="M667.546 149.977L656.369 150.122Z" fill="#B2DFF5"/>
<path d="M667.546 139.585L656.369 139.731Z" fill="#B2DFF5"/>
<path d="M667.546 129.194L656.369 129.34Z" fill="#B2DFF5"/>
<path d="M667.546 118.803L656.369 118.949Z" fill="#B2DFF5"/>
<path d="M623.809 106.367V160.903H577.32V93.9282H611.362L623.809 106.367Z" fill="#B2DFF5"/>
<path d="M578.575 159.646H622.554V106.887L610.843 95.1838H578.575V159.646ZM623.809 162.159H577.32C576.626 162.159 576.065 161.595 576.065 160.904V93.9285C576.065 93.2345 576.626 92.6731 577.32 92.6731H611.362C611.695 92.6731 612.015 92.8057 612.249 93.0396L624.696 105.479C624.932 105.715 625.065 106.032 625.065 106.368V160.904C625.065 161.595 624.503 162.159 623.809 162.159Z" fill="#005EB8"/>
<path d="M611.362 106.367L611.362 93.9282L623.809 106.367L611.362 106.367Z" fill="white"/>
<path d="M612.617 105.109H620.776L612.617 96.9585V105.109ZM623.809 107.622H611.362C610.668 107.622 610.104 107.058 610.104 106.367V93.928C610.104 93.4212 610.411 92.9612 610.881 92.7688C611.349 92.5739 611.89 92.6809 612.249 93.0396L624.696 105.479C625.054 105.837 625.163 106.378 624.968 106.848C624.776 107.316 624.316 107.622 623.809 107.622Z" fill="#005EB8"/>
<path d="M595.37 151.76C594.475 151.76 593.742 151.037 593.732 150.142C593.719 149.237 594.444 148.494 595.346 148.48L606.524 148.338C606.534 148.338 606.541 148.338 606.548 148.338C607.443 148.338 608.172 149.057 608.186 149.952C608.196 150.858 607.474 151.6 606.568 151.614L595.391 151.76C595.384 151.76 595.377 151.76 595.37 151.76Z" fill="#005EB8"/>
<path d="M595.37 141.369C594.475 141.369 593.742 140.65 593.732 139.751C593.719 138.845 594.444 138.103 595.346 138.093L606.524 137.947C606.534 137.947 606.541 137.947 606.548 137.947C607.443 137.947 608.172 138.666 608.186 139.564C608.196 140.466 607.474 141.213 606.568 141.223L595.391 141.369C595.384 141.369 595.377 141.369 595.37 141.369Z" fill="#005EB8"/>
<path d="M595.37 130.979C594.475 130.979 593.742 130.257 593.732 129.362C593.719 128.456 594.444 127.714 595.346 127.7L606.524 127.558C606.534 127.558 606.541 127.558 606.548 127.558C607.443 127.558 608.172 128.277 608.186 129.175C608.196 130.077 607.474 130.823 606.568 130.834L595.391 130.979C595.384 130.979 595.377 130.979 595.37 130.979Z" fill="#005EB8"/>
<path d="M595.37 120.588C594.475 120.588 593.742 119.869 593.732 118.971C593.719 118.065 594.444 117.322 595.346 117.312L606.524 117.166C606.534 117.166 606.541 117.166 606.548 117.166C607.443 117.166 608.172 117.885 608.186 118.784C608.196 119.686 607.474 120.432 606.568 120.442L595.391 120.588C595.384 120.588 595.377 120.588 595.37 120.588Z" fill="#005EB8"/>
<path d="M589.952 150.047H582.114V144.312H589.952V150.047Z" fill="white"/>
<path d="M583.751 148.409H588.312V145.954H583.751V148.409ZM589.95 151.685H582.113C581.208 151.685 580.475 150.953 580.475 150.047V144.313C580.475 143.411 581.208 142.675 582.113 142.675H589.95C590.852 142.675 591.588 143.411 591.588 144.313V150.047C591.588 150.953 590.852 151.685 589.95 151.685Z" fill="#005EB8"/>
<path d="M589.952 139.657H582.114V133.925H589.952V139.657Z" fill="white"/>
<path d="M583.751 138.019H588.312V135.564H583.751V138.019ZM589.95 141.295H582.113C581.208 141.295 580.475 140.563 580.475 139.657V133.926C580.475 133.021 581.208 132.285 582.113 132.285H589.95C590.852 132.285 591.588 133.021 591.588 133.926V139.657C591.588 140.563 590.852 141.295 589.95 141.295Z" fill="#005EB8"/>
<path d="M589.952 129.266H582.114V123.535H589.952V129.266Z" fill="white"/>
<path d="M583.751 127.628H588.312V125.172H583.751V127.628ZM589.95 130.904H582.113C581.208 130.904 580.475 130.171 580.475 129.266V123.531C580.475 122.629 581.208 121.893 582.113 121.893H589.95C590.852 121.893 591.588 122.629 591.588 123.531V129.266C591.588 130.171 590.852 130.904 589.95 130.904Z" fill="#005EB8"/>
<path d="M589.952 118.875H582.114V113.144H589.952V118.875Z" fill="white"/>
<path d="M583.751 117.237H588.312V114.781H583.751V117.237ZM589.95 120.516H582.113C581.208 120.516 580.475 119.78 580.475 118.875V113.143C580.475 112.238 581.208 111.505 582.113 111.505H589.95C590.852 111.505 591.588 112.238 591.588 113.143V118.875C591.588 119.78 590.852 120.516 589.95 120.516Z" fill="#005EB8"/>
<path d="M623.358 145.846L616.484 138.968L657.745 97.7069L664.619 104.584L623.358 145.846Z" fill="#B2DFF5"/>
<path d="M618.801 138.968L623.358 143.53L662.303 104.585L657.742 100.023L618.801 138.968ZM623.358 147.484C622.924 147.484 622.507 147.311 622.202 147.002L615.325 140.125C614.684 139.487 614.684 138.45 615.325 137.809L656.586 96.5474C657.2 95.9335 658.288 95.9335 658.902 96.5474L665.779 103.425C666.42 104.066 666.42 105.103 665.779 105.741L624.518 147.002C624.21 147.311 623.792 147.484 623.358 147.484Z" fill="#005EB8"/>
<path d="M615.274 150.672L611.065 146.462C611.065 145.725 611.065 145.31 611.065 144.57L616.965 138.672L623.065 144.774L617.167 150.672C616.427 150.672 616.014 150.672 615.274 150.672Z" fill="white"/>
<path d="M613.845 148.48H618.406L621.041 145.845L616.483 141.284L613.845 143.922V148.48ZM619.084 151.759H612.207C611.301 151.759 610.566 151.023 610.566 150.121V143.244C610.566 142.81 610.739 142.393 611.047 142.084L615.323 137.808C615.632 137.502 616.049 137.33 616.483 137.33C616.917 137.33 617.334 137.502 617.64 137.808L624.517 144.685C625.158 145.326 625.158 146.364 624.517 147.001L620.241 151.278C619.936 151.586 619.518 151.759 619.084 151.759Z" fill="#005EB8"/>
<path d="M110.331 481.009C110.33 451.56 86.4569 427.687 57.0082 427.687C27.5597 427.688 3.68692 451.56 3.68672 481.009C3.68672 510.458 27.5595 534.331 57.0082 534.331V538.018L56.2719 538.014C25.1265 537.619 0 512.248 0 481.009C0.000199515 449.524 25.5235 424.001 57.0082 424.001C88.4931 424.001 114.017 449.524 114.017 481.009L114.013 481.746C113.618 512.892 88.2472 538.018 57.0082 538.018V534.331C86.4571 534.331 110.331 510.458 110.331 481.009Z" fill="#B2DFF5"/>
<path d="M33.411 505.915C34.2786 505.302 35.3875 504.353 36.524 503.214L79.2151 460.525C81.4831 458.255 83.0082 456.097 82.6192 455.708C82.2282 455.317 80.07 456.842 77.7949 459.117L35.1107 501.801C32.8357 504.076 31.3155 506.227 31.7066 506.618C31.8961 506.82 32.5364 506.533 33.411 505.915Z" fill="white"/>
<path d="M81.793 458.708C81.1096 458.888 80.1594 459 79.1093 458.999L39.6992 459C37.6045 458.999 35.9043 458.551 35.9043 458.001C35.9043 457.448 37.6045 457 39.7047 457L79.1094 457C81.2096 457 82.9042 457.447 82.9042 458C82.9098 458.276 82.482 458.526 81.793 458.708Z" fill="white"/>
<path d="M78.9112 504.708C78.3005 504.888 77.4514 505 76.513 504.999L41.2955 505C39.4236 504.999 37.9043 504.551 37.9043 504.001C37.9043 503.448 39.4236 503 41.3004 503L76.5131 503C78.3899 503 79.9042 503.447 79.9042 504C79.9092 504.276 79.5269 504.526 78.9112 504.708Z" fill="white"/>
<path d="M80.9146 505.915C80.0471 505.302 78.9382 504.353 77.8017 503.214L35.1106 460.525C32.8426 458.255 31.3175 456.097 31.7064 455.708C32.0975 455.317 34.2557 456.842 36.5308 459.117L79.215 501.801C81.49 504.076 83.0102 506.227 82.6191 506.618C82.4296 506.82 81.7892 506.533 80.9146 505.915Z" fill="white"/>
<path d="M65.7797 480.85C65.7797 485.777 61.7859 489.771 56.8593 489.771C51.9328 489.771 47.939 485.777 47.939 480.85C47.939 475.924 51.9328 471.93 56.8593 471.93C61.7859 471.93 65.7797 475.924 65.7797 480.85Z" fill="#B2DFF5"/>
<path d="M56.9988 473.348C52.7814 473.348 49.3519 476.779 49.3519 480.997C49.3519 485.214 52.7814 488.644 56.9988 488.644C61.2162 488.644 64.6481 485.214 64.6481 480.997C64.6481 476.779 61.2162 473.348 56.9988 473.348ZM56.9988 490.996C51.4874 490.996 47 486.508 47 480.997C47 475.483 51.4874 470.996 56.9988 470.996C62.5126 470.996 67 475.483 67 480.997C67 486.508 62.5126 490.996 56.9988 490.996Z" fill="#005EB8"/>
<path d="M33.2926 501.054C33.1126 500.473 33 499.664 33.0014 498.77L33 465.23C33.0015 463.447 33.4492 462 33.9993 462C34.5523 462 35 463.447 35 465.235V498.771C35 500.558 34.5538 502 34.0007 502C33.7242 502.005 33.474 501.641 33.2926 501.054Z" fill="white"/>
<path d="M42.7797 503.855C42.7797 508.782 38.7859 512.775 33.8593 512.775C28.9328 512.775 24.939 508.782 24.939 503.855C24.939 498.928 28.9328 494.935 33.8593 494.935C38.7859 494.935 42.7797 498.928 42.7797 503.855Z" fill="#B2DFF5"/>
<path d="M33.9988 496.352C29.7814 496.352 26.3519 499.784 26.3519 504.002C26.3519 508.219 29.7814 511.649 33.9988 511.649C38.2162 511.649 41.6481 508.219 41.6481 504.002C41.6481 499.784 38.2162 496.352 33.9988 496.352ZM33.9988 514C28.4874 514 24 509.513 24 504.002C24 498.488 28.4874 494 33.9988 494C39.5126 494 44 498.488 44 504.002C44 509.513 39.5126 514 33.9988 514Z" fill="#005EB8"/>
<path d="M42.7796 457.855C42.7796 462.782 38.7858 466.776 33.8593 466.776C28.9327 466.776 24.9389 462.782 24.9389 457.855C24.9389 452.929 28.9327 448.935 33.8593 448.935C38.7858 448.935 42.7796 452.929 42.7796 457.855Z" fill="#B2DFF5"/>
<path d="M33.9988 450.352C29.7814 450.352 26.3519 453.784 26.3519 458.001C26.3519 462.219 29.7814 465.648 33.9988 465.648C38.2162 465.648 41.6481 462.219 41.6481 458.001C41.6481 453.784 38.2162 450.352 33.9988 450.352ZM33.9988 468C28.4874 468 24 463.513 24 458.001C24 452.488 28.4874 448 33.9988 448C39.5126 448 44 452.488 44 458.001C44 463.513 39.5126 468 33.9988 468Z" fill="#005EB8"/>
<path d="M81.2926 500.078C81.1126 499.511 81 498.723 81.0014 497.851L81 465.149C81.0015 463.411 81.4492 462 81.9993 462C82.5523 462 83 463.411 83 465.154V497.851C83 499.594 82.5538 501 82.0007 501C81.7242 501.005 81.474 500.65 81.2926 500.078Z" fill="white"/>
<path d="M88.7797 503.855C88.7797 508.782 84.7859 512.775 79.8594 512.775C74.9328 512.775 70.939 508.782 70.939 503.855C70.939 498.928 74.9328 494.935 79.8594 494.935C84.7859 494.935 88.7797 498.928 88.7797 503.855Z" fill="#B2DFF5"/>
<path d="M79.9988 496.352C75.7814 496.352 72.3519 499.784 72.3519 504.002C72.3519 508.219 75.7814 511.649 79.9988 511.649C84.2162 511.649 87.6481 508.219 87.6481 504.002C87.6481 499.784 84.2162 496.352 79.9988 496.352ZM79.9988 514C74.4874 514 70 509.513 70 504.002C70 498.488 74.4874 494 79.9988 494C85.5126 494 90 498.488 90 504.002C90 509.513 85.5126 514 79.9988 514Z" fill="#005EB8"/>
<path d="M88.7797 457.855C88.7797 462.782 84.7859 466.775 79.8594 466.775C74.9328 466.775 70.939 462.782 70.939 457.855C70.939 452.928 74.9328 448.935 79.8594 448.935C84.7859 448.935 88.7797 452.928 88.7797 457.855Z" fill="#B2DFF5"/>
<path d="M79.9988 450.352C75.7814 450.352 72.3519 453.784 72.3519 458.002C72.3519 462.219 75.7814 465.649 79.9988 465.649C84.2162 465.649 87.6481 462.219 87.6481 458.002C87.6481 453.784 84.2162 450.352 79.9988 450.352ZM79.9988 468C74.4874 468 70 463.513 70 458.002C70 452.488 74.4874 448 79.9988 448C85.5126 448 90 452.488 90 458.002C90 463.513 85.5126 468 79.9988 468Z" fill="#005EB8"/>
<path d="M166.11 76.6468C166.11 37.1384 198.138 5.11052 237.646 5.11052H420.799C460.307 5.11052 492.335 37.1384 492.335 76.6468V531.654C492.335 571.162 460.307 603.19 420.799 603.19H237.646C198.138 603.19 166.11 571.162 166.11 531.654V76.6468Z" fill="#005EB8"/>
<path d="M161 531.653V76.646C161 34.3156 195.316 1.2014e-06 237.646 0L237.646 5.11052C198.138 5.11052 166.11 37.1384 166.11 76.6468L166.11 531.653C166.11 571.161 198.138 603.189 237.646 603.189H420.799L421.723 603.184C460.498 602.693 491.838 571.352 492.329 532.577L492.335 531.653L492.335 76.6468C492.335 37.4472 460.806 5.61117 421.723 5.11597L420.799 5.11052L420.799 0C463.129 0.00027245 497.445 34.3157 497.445 76.646V531.653C497.445 573.983 463.129 608.298 420.799 608.299H237.646C195.316 608.299 161 573.983 161 531.653ZM420.799 0L420.799 5.11052H237.646L237.646 0H420.799Z" fill="#B2DFF5"/>
<path d="M267.061 519.788L263.188 516.575V516.485H263.097L240.425 497.566C238.743 496.215 236.371 496.215 234.659 497.596L212.046 516.485H211.956V516.575L208.082 519.788C207.122 520.569 207.001 522.011 207.812 522.972C208.263 523.512 208.893 523.782 209.554 523.782C210.064 523.782 210.575 523.602 210.995 523.272L211.986 522.461V554.203C211.986 555.434 213.007 556.455 214.239 556.455H260.965C262.197 556.455 263.218 555.434 263.218 554.203V522.461L264.209 523.272C265.17 524.083 266.581 523.933 267.392 523.002C268.203 522.041 268.052 520.629 267.121 519.818L267.061 519.788ZM232.827 551.92V531.5C232.827 531.23 232.947 531.08 232.917 531.05H242.197C242.197 531.05 242.377 531.23 242.377 531.5V551.92H232.827ZM258.713 551.92H246.851V531.5C246.851 528.767 244.779 526.545 242.257 526.545H232.917C230.395 526.545 228.323 528.767 228.323 531.5V551.92H216.461V518.677L237.602 501.05L258.713 518.677V551.92Z" fill="white"/>
<path d="M449.536 524.744C448.905 524.324 448.125 524.234 447.434 524.504L446.953 524.684V520.81C449.055 518.227 450.347 515.014 450.347 511.44C450.347 503.212 443.65 496.485 435.392 496.485C430.166 496.485 425.572 499.188 422.899 503.242H396.382C395.151 503.242 394.13 504.263 394.13 505.494V524.894L393.048 524.444C392.358 524.173 391.577 524.264 390.946 524.684C390.316 525.104 389.955 525.795 389.955 526.546V554.384C389.955 555.615 390.976 556.636 392.208 556.636H448.275C449.506 556.636 450.527 555.615 450.527 554.384V526.546C450.527 525.795 450.167 525.104 449.536 524.684V524.744ZM398.634 507.777H420.977C420.677 508.948 420.466 510.179 420.466 511.44C420.466 519.669 427.163 526.396 435.422 526.396C437.974 526.396 440.347 525.705 442.449 524.564V526.516L420.256 535.435L398.634 526.756V507.777ZM446.022 552.162H394.46V529.909L395.541 530.36L419.415 539.94C419.956 540.15 420.556 540.15 421.097 539.94L445.542 530.12L445.992 529.939V552.192L446.022 552.162Z" fill="white"/>
<path d="M435.391 500.419C429.295 500.419 424.34 505.374 424.34 511.47C424.34 517.567 429.295 522.522 435.391 522.522C441.488 522.522 446.443 517.567 446.443 511.47C446.443 505.374 441.488 500.419 435.391 500.419Z" fill="#D5281B"/>
<path d="M357.938 526.602C357.938 510.04 344.929 496.57 328.952 496.57C312.975 496.57 299.967 510.07 299.967 526.602C299.967 543.133 312.306 555.884 327.701 556.544C328.05 556.544 328.37 556.604 328.72 556.604C328.836 556.604 328.952 556.604 329.069 556.604C331.077 556.604 332.939 556.364 334.685 556.004C334.773 556.004 334.86 555.974 334.947 555.944C335.762 555.764 336.548 555.553 337.305 555.313C337.45 555.253 337.625 555.223 337.77 555.163C338.643 554.863 339.458 554.563 340.186 554.233C342.048 553.423 343.532 552.553 344.58 551.833L345.57 551.173V551.113C353.02 545.683 357.909 536.712 357.909 526.572L357.938 526.602ZM345.453 545.473C344.726 539.052 340.157 534.072 334.54 534.072H323.161C317.603 534.072 313.034 538.962 312.277 545.323C307.417 540.643 304.332 534.012 304.332 526.602C304.332 512.531 315.391 501.1 328.952 501.1C342.514 501.1 353.573 512.561 353.573 526.632C353.573 534.102 350.43 540.822 345.453 545.503V545.473Z" fill="white"/>
<path d="M328.865 532.632C335.535 532.632 340.943 527.058 340.943 520.181C340.943 513.305 335.535 507.73 328.865 507.73C322.195 507.73 316.788 513.305 316.788 520.181C316.788 527.058 322.195 532.632 328.865 532.632Z" fill="white"/>
<path d="M286.119 29.7022C286.119 28.6156 287 27.7348 288.087 27.7348H370.716C371.802 27.7348 372.683 28.6156 372.683 29.7022C372.683 30.7887 371.802 31.6696 370.716 31.6696H288.087C287 31.6696 286.119 30.7887 286.119 29.7022Z" fill="#B2DFF5"/>
<path d="M251.67 417.685C251.67 414.863 253.958 412.575 256.78 412.575H401.2C404.022 412.575 406.309 414.863 406.309 417.685V418.763C406.309 421.585 404.022 423.873 401.2 423.873H256.78C253.958 423.873 251.67 421.585 251.67 418.763V417.685Z" fill="#B2DFF5"/>
<path d="M430.895 441.358V446.467H227.085V441.358H430.895ZM451.334 420.918V415.527C451.334 404.239 442.184 395.088 430.895 395.088H227.085C215.797 395.088 206.646 404.239 206.646 415.527V420.918C206.646 432.207 215.797 441.358 227.085 441.358V446.467L226.425 446.459C212.62 446.109 201.536 434.808 201.536 420.918V415.527C201.536 401.417 212.974 389.978 227.085 389.978H430.895L431.555 389.987C445.36 390.337 456.444 401.637 456.444 415.527V420.918L456.435 421.578C456.091 435.165 445.141 446.115 431.554 446.459L430.895 446.467V441.358C442.184 441.357 451.334 432.207 451.334 420.918Z" fill="#B2DFF5"/>
<path d="M202.191 90.3909H306.043V132.616H202.191V90.3909Z" fill="#005EB8"/>
<path d="M306.062 132.616V90.3909H202.191V132.616H306.062ZM243.956 94.4645L236.788 128.455H225.527L218.454 104.938H218.359L213.656 128.455H205.121L212.347 94.4645H223.637L230.573 118.032H230.667L235.414 94.4645H243.956ZM276.14 94.4645L269.11 128.455H260.045L263.047 113.9H252.331L249.329 128.455H240.263L247.293 94.4645H256.351L253.691 107.47H264.399L267.067 94.4645H276.14ZM302.173 95.3893L299.985 102.156C298.24 101.334 295.863 100.6 292.519 100.6C288.935 100.6 286.027 101.129 286.027 103.859C286.027 108.674 299.163 106.876 299.163 117.203C299.163 126.598 290.483 129.034 282.632 129.034C279.142 129.034 275.115 128.205 272.163 127.273L274.293 120.359C276.082 121.533 279.673 122.311 282.632 122.311C285.445 122.311 289.851 121.775 289.851 118.267C289.851 112.814 276.714 114.854 276.714 105.268C276.714 96.4976 284.377 93.8699 291.792 93.8699C295.965 93.8846 299.89 94.325 302.173 95.3893Z" fill="white"/>
<path d="M201.536 202.321C201.536 188.211 212.975 176.772 227.085 176.772H430.895C445.006 176.772 456.444 188.211 456.444 202.321V320.691C456.444 334.802 445.006 346.24 430.895 346.24H227.085C212.974 346.24 201.536 334.802 201.536 320.691V202.321Z" fill="white"/>
<path d="M225.546 214.364C225.546 211.542 227.834 209.254 230.656 209.254H375.075C377.897 209.254 380.185 211.542 380.185 214.364V215.442C380.185 218.264 377.897 220.552 375.075 220.552H230.656C227.834 220.552 225.546 218.264 225.546 215.442V214.364Z" fill="#005EB8"/>
<path d="M225.545 260.964C225.545 258.142 227.833 255.855 230.655 255.855H375.075C377.897 255.855 380.184 258.142 380.184 260.964V262.043C380.184 264.865 377.897 267.152 375.075 267.152H230.655C227.833 267.152 225.545 264.865 225.545 262.043V260.964Z" fill="#005EB8"/>
<path d="M225.545 307.57C225.545 304.748 227.833 302.46 230.655 302.46H375.075C377.897 302.46 380.184 304.748 380.184 307.57V308.648C380.184 311.47 377.897 313.758 375.075 313.758H230.655C227.833 313.758 225.545 311.47 225.545 308.648V307.57Z" fill="#005EB8"/>
<path d="M419.76 227.453C419.301 227.453 418.825 227.276 418.489 226.906C417.819 226.199 417.836 225.087 418.542 224.417L428.446 214.919L418.56 205.652C417.854 204.981 417.819 203.869 418.472 203.163C419.143 202.456 420.255 202.421 420.961 203.074L432.206 213.613C432.559 213.948 432.753 214.407 432.771 214.884C432.788 215.361 432.576 215.837 432.223 216.173L420.978 226.959C420.643 227.294 420.202 227.453 419.76 227.453Z" fill="#B2DFF5"/>
<path d="M419.76 274.055C419.301 274.055 418.825 273.879 418.489 273.508C417.819 272.802 417.836 271.69 418.542 271.019L428.446 261.522L418.56 252.254C417.854 251.583 417.819 250.471 418.472 249.765C419.143 249.059 420.255 249.024 420.961 249.677L432.206 260.216C432.559 260.551 432.753 261.01 432.771 261.487C432.788 261.963 432.576 262.44 432.223 262.775L420.978 273.561C420.643 273.897 420.202 274.055 419.76 274.055Z" fill="#B2DFF5"/>
<path d="M419.76 320.658C419.301 320.658 418.825 320.482 418.489 320.111C417.819 319.405 417.836 318.293 418.542 317.622L428.446 308.125L418.56 298.857C417.854 298.186 417.819 297.074 418.472 296.368C419.143 295.662 420.255 295.626 420.961 296.279L432.206 306.818C432.559 307.154 432.753 307.613 432.771 308.089C432.788 308.566 432.576 309.042 432.223 309.378L420.978 320.164C420.643 320.499 420.202 320.658 419.76 320.658Z" fill="#B2DFF5"/>
</svg>
