<svg width="606" height="553" viewBox="0 0 606 553" fill="none" xmlns="http://www.w3.org/2000/svg">
<path d="M51.0604 111.424L51.0604 114.947L47.563 114.947L47.563 111.424L51.0604 111.424ZM65.0492 111.424L65.0492 114.947L58.0552 114.947L58.0552 111.424L65.0492 111.424ZM79.0388 111.424L79.0388 114.947L72.044 114.947L72.044 111.424L79.0388 111.424ZM93.0276 111.424L93.0276 114.947L86.0336 114.947L86.0336 111.424L93.0276 111.424ZM107.017 111.424L107.017 114.947L100.022 114.947L100.022 111.424L107.017 111.424ZM121.007 111.424L121.007 114.947L114.012 114.947L114.012 111.424L121.007 111.424ZM134.996 111.424L134.996 114.947L128.001 114.947L128.001 111.424L134.996 111.424ZM148.985 111.424L148.985 114.947L141.99 114.947L141.99 111.424L148.985 111.424ZM162.974 111.424L162.974 114.947L155.979 114.947L155.979 111.424L162.974 111.424ZM176.964 111.424L176.964 114.947L169.969 114.947L169.969 111.424L176.964 111.424ZM190.952 111.424L190.952 114.947L183.958 114.947L183.958 111.424L190.952 111.424ZM204.942 111.424L204.942 114.947L197.947 114.947L197.947 111.424L204.942 111.424ZM218.931 111.424L218.931 114.947L211.936 114.947L211.936 111.424L218.931 111.424ZM232.92 111.424L232.92 114.947L225.926 114.947L225.926 111.424L232.92 111.424ZM246.909 111.424L246.909 114.947L239.915 114.947L239.915 111.424L246.909 111.424ZM260.899 111.424L260.899 114.947L253.904 114.947L253.904 111.424L260.899 111.424ZM274.888 111.424L274.888 114.947L267.894 114.947L267.894 111.424L274.888 111.424ZM288.877 111.424L288.877 114.947L281.882 114.947L281.882 111.424L288.877 111.424ZM302.866 111.424L302.866 114.947L295.872 114.947L295.872 111.424L302.866 111.424ZM316.856 111.424L316.856 114.947L309.861 114.947L309.861 111.424L316.856 111.424ZM330.844 111.424L330.844 114.947L323.85 114.947L323.85 111.424L330.844 111.424ZM344.834 111.424L344.834 114.947L337.839 114.947L337.839 111.424L344.834 111.424ZM358.823 111.424L358.823 114.947L351.829 114.947L351.829 111.424L358.823 111.424ZM372.812 111.424L372.812 114.947L365.818 114.947L365.818 111.424L372.812 111.424ZM386.801 111.424L386.801 114.947L379.807 114.947L379.807 111.424L386.801 111.424ZM400.791 111.424L400.791 114.947L393.796 114.947L393.796 111.424L400.791 111.424ZM414.78 111.424L414.78 114.947L407.786 114.947L407.786 111.424L414.78 111.424ZM428.769 111.424L428.769 114.947L421.774 114.947L421.774 111.424L428.769 111.424ZM442.758 111.424L442.758 114.947L435.764 114.947L435.764 111.424L442.758 111.424ZM456.748 111.424L456.748 114.947L449.753 114.947L449.753 111.424L456.748 111.424ZM470.736 111.424L470.736 114.947L463.742 114.947L463.742 111.424L470.736 111.424ZM484.726 111.424L484.726 114.947L477.731 114.947L477.731 111.424L484.726 111.424ZM498.715 111.424L498.715 114.947L491.721 114.947L491.721 111.424L498.715 111.424ZM512.704 111.424L512.704 114.947L505.71 114.947L505.71 111.424L512.704 111.424ZM523.197 111.424L523.197 114.947L519.699 114.947L519.699 111.424L523.197 111.424Z" fill="#B2DFF5"/>
<path d="M51.0604 436.162L51.0604 439.685L47.563 439.685L47.563 436.162L51.0604 436.162ZM65.0492 436.162L65.0492 439.685L58.0552 439.685L58.0552 436.162L65.0492 436.162ZM79.0388 436.162L79.0388 439.685L72.044 439.685L72.044 436.162L79.0388 436.162ZM93.0276 436.162L93.0276 439.685L86.0336 439.685L86.0336 436.162L93.0276 436.162ZM107.017 436.162L107.017 439.685L100.022 439.685L100.022 436.162L107.017 436.162ZM121.007 436.162L121.007 439.685L114.012 439.685L114.012 436.162L121.007 436.162ZM134.996 436.162L134.996 439.685L128.001 439.685L128.001 436.162L134.996 436.162ZM148.985 436.162L148.985 439.685L141.99 439.685L141.99 436.162L148.985 436.162ZM162.974 436.162L162.974 439.685L155.979 439.685L155.979 436.162L162.974 436.162ZM176.964 436.162L176.964 439.685L169.969 439.685L169.969 436.162L176.964 436.162ZM190.952 436.162L190.952 439.685L183.958 439.685L183.958 436.162L190.952 436.162ZM204.942 436.162L204.942 439.685L197.947 439.685L197.947 436.162L204.942 436.162ZM218.931 436.162L218.931 439.685L211.936 439.685L211.936 436.162L218.931 436.162ZM232.92 436.162L232.92 439.685L225.926 439.685L225.926 436.162L232.92 436.162ZM246.909 436.162L246.909 439.685L239.915 439.685L239.915 436.162L246.909 436.162ZM260.899 436.162L260.899 439.685L253.904 439.685L253.904 436.162L260.899 436.162ZM274.888 436.162L274.888 439.685L267.894 439.685L267.894 436.162L274.888 436.162ZM288.877 436.162L288.877 439.685L281.882 439.685L281.882 436.162L288.877 436.162ZM302.866 436.162L302.866 439.685L295.872 439.685L295.872 436.162L302.866 436.162ZM316.856 436.162L316.856 439.685L309.861 439.685L309.861 436.162L316.856 436.162ZM330.844 436.162L330.844 439.685L323.85 439.685L323.85 436.162L330.844 436.162ZM344.834 436.162L344.834 439.685L337.839 439.685L337.839 436.162L344.834 436.162ZM358.823 436.162L358.823 439.685L351.829 439.685L351.829 436.162L358.823 436.162ZM372.812 436.162L372.812 439.685L365.818 439.685L365.818 436.162L372.812 436.162ZM386.801 436.162L386.801 439.685L379.807 439.685L379.807 436.162L386.801 436.162ZM400.791 436.162L400.791 439.685L393.796 439.685L393.796 436.162L400.791 436.162ZM414.78 436.162L414.78 439.685L407.786 439.685L407.786 436.162L414.78 436.162ZM428.769 436.162L428.769 439.685L421.774 439.685L421.774 436.162L428.769 436.162ZM442.758 436.162L442.758 439.685L435.764 439.685L435.764 436.162L442.758 436.162ZM456.748 436.162L456.748 439.685L449.753 439.685L449.753 436.162L456.748 436.162ZM470.736 436.162L470.736 439.685L463.742 439.685L463.742 436.162L470.736 436.162ZM484.726 436.162L484.726 439.685L477.731 439.685L477.731 436.162L484.726 436.162ZM498.715 436.162L498.715 439.685L491.721 439.685L491.721 436.162L498.715 436.162ZM512.704 436.162L512.704 439.685L505.71 439.685L505.71 436.162L512.704 436.162ZM523.197 436.162L523.197 439.685L519.699 439.685L519.699 436.162L523.197 436.162Z" fill="#B2DFF5"/>
<path d="M546.098 424.189L549.621 424.189L549.621 427.632L546.098 427.632L546.098 424.189ZM546.098 410.422L549.621 410.422L549.621 417.306L546.098 417.306L546.098 410.422ZM546.098 396.653L549.621 396.653L549.621 403.537L546.098 403.537L546.098 396.653ZM546.098 382.885L549.621 382.885L549.621 389.768L546.098 389.768L546.098 382.885ZM546.098 369.116L549.621 369.116L549.621 376.001L546.098 376.001L546.098 369.116ZM546.098 355.348L549.621 355.348L549.621 362.232L546.098 362.232L546.098 355.348ZM546.098 341.58L549.621 341.58L549.621 348.464L546.098 348.464L546.098 341.58ZM546.098 327.811L549.621 327.811L549.621 334.696L546.098 334.696L546.098 327.811ZM546.098 314.043L549.621 314.043L549.621 320.927L546.098 320.927L546.098 314.043ZM546.098 300.275L549.621 300.275L549.621 307.159L546.098 307.159L546.098 300.275ZM546.098 286.506L549.621 286.506L549.621 293.39L546.098 293.39L546.098 286.506ZM546.098 272.738L549.621 272.738L549.621 279.623L546.098 279.623L546.098 272.738ZM546.098 258.969L549.621 258.969L549.621 265.854L546.098 265.854L546.098 258.969ZM546.098 245.202L549.621 245.202L549.621 252.085L546.098 252.085L546.098 245.202ZM546.098 231.433L549.621 231.433L549.621 238.317L546.098 238.317L546.098 231.433ZM546.098 217.664L549.621 217.664L549.621 224.549L546.098 224.549L546.098 217.664ZM546.098 203.896L549.621 203.896L549.621 210.781L546.098 210.781L546.098 203.896ZM546.098 190.128L549.621 190.128L549.621 197.012L546.098 197.012L546.098 190.128ZM546.098 176.36L549.621 176.36L549.621 183.243L546.098 183.243L546.098 176.36ZM546.098 166.033L549.621 166.033L549.621 169.476L546.098 169.476L546.098 166.033Z" fill="#B2DFF5"/>
<path d="M52.8481 424.189L56.3714 424.189L56.3714 427.632L52.8481 427.632L52.8481 424.189ZM52.8481 410.422L56.3714 410.422L56.3714 417.306L52.8481 417.306L52.8481 410.422ZM52.8481 396.653L56.3714 396.653L56.3714 403.537L52.8481 403.537L52.8481 396.653ZM52.8481 382.885L56.3714 382.885L56.3714 389.768L52.8481 389.768L52.8481 382.885ZM52.8481 369.116L56.3714 369.116L56.3714 376.001L52.8481 376.001L52.8481 369.116ZM52.8481 355.348L56.3714 355.348L56.3714 362.232L52.8481 362.232L52.8481 355.348ZM52.8481 341.58L56.3714 341.58L56.3714 348.464L52.8481 348.464L52.8481 341.58ZM52.8481 327.811L56.3714 327.811L56.3714 334.696L52.8481 334.696L52.8481 327.811ZM52.8481 314.043L56.3714 314.043L56.3714 320.927L52.8481 320.927L52.8481 314.043ZM52.8481 300.275L56.3714 300.275L56.3714 307.159L52.8481 307.159L52.8481 300.275ZM52.8481 286.506L56.3713 286.506L56.3713 293.39L52.8481 293.39L52.8481 286.506ZM52.8481 272.738L56.3713 272.738L56.3713 279.623L52.8481 279.623L52.8481 272.738ZM52.8481 258.969L56.3713 258.969L56.3713 265.854L52.8481 265.854L52.8481 258.969ZM52.8481 245.202L56.3713 245.202L56.3713 252.085L52.8481 252.085L52.8481 245.202ZM52.8481 231.433L56.3713 231.433L56.3713 238.317L52.8481 238.317L52.8481 231.433ZM52.8481 217.664L56.3713 217.664L56.3713 224.549L52.8481 224.549L52.8481 217.664ZM52.8481 203.896L56.3713 203.896L56.3713 210.781L52.8481 210.781L52.8481 203.896ZM52.8481 190.128L56.3713 190.128L56.3713 197.012L52.8481 197.012L52.8481 190.128ZM52.8481 176.36L56.3713 176.36L56.3713 183.243L52.8481 183.243L52.8481 176.36ZM52.8481 166.033L56.3713 166.033L56.3713 169.476L52.8481 169.476L52.8481 166.033Z" fill="#B2DFF5"/>
<path d="M601.231 437.142C601.231 465.744 578.044 488.931 549.442 488.931C520.84 488.931 497.653 465.744 497.653 437.142C497.653 408.54 520.84 385.354 549.442 385.354C578.044 385.354 601.231 408.54 601.231 437.142Z" fill="#005EB8"/>
<path d="M597.882 437.142C597.881 410.39 576.194 388.703 549.442 388.703C522.689 388.703 501.003 410.39 501.002 437.142C501.002 463.894 522.689 485.582 549.442 485.582V488.931L548.773 488.927C520.479 488.568 497.653 465.52 497.653 437.142C497.654 408.54 520.84 385.354 549.442 385.354C578.044 385.354 601.23 408.54 601.231 437.142L601.227 437.811C600.868 466.105 577.82 488.931 549.442 488.931V485.582C576.194 485.582 597.882 463.894 597.882 437.142Z" fill="#B2DFF5"/>
<path d="M558.163 447.742C556.231 449.672 554.245 451.471 552.214 453.143L533.33 434.259C534.999 432.225 536.798 430.24 538.731 428.309C549.118 417.923 561.198 411.264 572.227 408.95C575.384 408.288 578.183 411.088 577.519 414.246C575.198 425.281 568.541 437.362 558.163 447.742Z" fill="#B2DFF5"/>
<path d="M534.762 434.192L552.281 451.709C554.043 450.224 555.768 448.639 557.415 446.991C567.324 437.08 574.098 425.375 576.484 414.028C576.727 412.878 576.39 411.745 575.559 410.914C574.729 410.084 573.594 409.744 572.445 409.985C561.108 412.365 549.4 419.138 539.48 429.056C537.836 430.702 536.252 432.424 534.762 434.192ZM552.216 454.201C551.944 454.201 551.672 454.095 551.466 453.89L532.582 435.005C532.196 434.62 532.165 434.006 532.512 433.583C534.223 431.506 536.064 429.479 537.983 427.559C548.19 417.352 560.275 410.375 572.011 407.915C573.848 407.529 575.732 408.092 577.056 409.416C578.381 410.744 578.942 412.63 578.557 414.464C576.087 426.207 569.11 438.292 558.912 448.488C556.988 450.414 554.961 452.255 552.888 453.96C552.691 454.12 552.452 454.201 552.216 454.201Z" fill="#34426F"/>
<path d="M575.889 420.15C573.531 419.883 571.246 418.842 569.438 417.032C567.628 415.224 566.583 412.935 566.315 410.577C568.307 409.902 570.284 409.358 572.23 408.951C575.383 408.287 578.185 411.09 577.522 414.241C577.112 416.186 576.568 418.163 575.889 420.15Z" fill="#B2DFF5"/>
<path d="M567.501 411.3C567.885 413.174 568.82 414.918 570.185 416.285C571.572 417.672 573.282 418.588 575.168 418.965C575.701 417.315 576.143 415.656 576.485 414.024C576.726 412.878 576.389 411.743 575.558 410.912C574.728 410.084 573.593 409.746 572.449 409.988C570.827 410.325 569.169 410.768 567.501 411.3ZM575.889 421.209C575.852 421.209 575.81 421.207 575.771 421.2C573.071 420.896 570.621 419.715 568.689 417.782C566.782 415.875 565.566 413.358 565.264 410.695C565.209 410.2 565.505 409.733 565.976 409.573C568.005 408.888 570.036 408.329 572.013 407.915C573.843 407.529 575.729 408.09 577.055 409.416C578.381 410.741 578.942 412.628 578.556 414.46C578.14 416.452 577.579 418.483 576.891 420.492C576.744 420.924 576.338 421.209 575.889 421.209Z" fill="#34426F"/>
<path d="M550.484 428.592C552.526 426.55 555.837 426.55 557.879 428.592C559.922 430.634 559.922 433.945 557.879 435.987C555.837 438.03 552.526 438.03 550.484 435.987C548.442 433.945 548.442 430.634 550.484 428.592Z" fill="white"/>
<path d="M554.183 428.121C553.115 428.121 552.046 428.528 551.233 429.339C549.607 430.967 549.607 433.612 551.233 435.238C552.859 436.864 555.504 436.864 557.132 435.238C558.758 433.612 558.758 430.967 557.132 429.339C556.319 428.528 555.25 428.121 554.183 428.121ZM554.183 438.575C552.572 438.575 550.961 437.962 549.736 436.737C547.284 434.285 547.284 430.294 549.736 427.842C552.186 425.39 556.177 425.39 558.629 427.842C561.081 430.294 561.081 434.285 558.629 436.737C557.404 437.962 555.793 438.575 554.183 438.575Z" fill="#34426F"/>
<path d="M547.116 462.497C545.082 458.147 542.104 453.061 537.538 448.552C533.142 444.213 528.223 441.34 523.972 439.355C527.526 437.418 530.618 435.733 533.328 434.256L552.215 453.14L547.116 462.497Z" fill="#B2DFF5"/>
<path d="M526.28 439.305C530.987 441.698 534.927 444.489 538.282 447.803C541.761 451.236 544.682 455.306 547.169 460.192L550.908 453.331L533.141 435.564L526.28 439.305ZM547.117 463.56C547.106 463.56 547.095 463.56 547.084 463.558C546.685 463.547 546.326 463.31 546.157 462.949C543.589 457.453 540.525 452.992 536.794 449.308C533.182 445.743 528.842 442.8 523.523 440.317C523.162 440.146 522.927 439.789 522.914 439.39C522.901 438.992 523.114 438.619 523.466 438.428L532.823 433.327C533.235 433.104 533.746 433.176 534.079 433.509L552.963 452.393C553.296 452.726 553.371 453.237 553.145 453.649L548.046 463.008C547.86 463.348 547.502 463.56 547.117 463.56Z" fill="#34426F"/>
<path d="M538.734 428.312C537.745 429.3 536.79 430.302 535.876 431.318L528.457 423.901L530.03 422.328C534.647 417.711 541.871 417.31 546.946 421.116C544.128 423.272 541.374 425.671 538.734 428.312Z" fill="white"/>
<path d="M529.956 423.9L535.841 429.786C536.518 429.056 537.235 428.313 537.984 427.562C540.246 425.3 542.645 423.162 545.134 421.185C540.548 418.54 534.599 419.255 530.777 423.076L529.956 423.9ZM535.876 432.376C535.596 432.376 535.326 432.264 535.127 432.065L527.71 424.647C527.295 424.233 527.295 423.565 527.71 423.151L529.281 421.58C534.178 416.682 542.045 416.119 547.582 420.269C547.847 420.469 548.003 420.78 548.005 421.111C548.007 421.444 547.854 421.755 547.589 421.957C544.758 424.121 542.029 426.512 539.483 429.061C538.475 430.069 537.526 431.066 536.663 432.025C536.468 432.242 536.194 432.367 535.905 432.376C535.894 432.376 535.885 432.376 535.876 432.376Z" fill="#34426F"/>
<path d="M564.144 456.442L562.573 458.013L555.16 450.6C556.177 449.686 557.178 448.731 558.167 447.743C560.811 445.096 563.213 442.341 565.36 439.53C569.162 444.598 568.757 451.829 564.144 456.442Z" fill="white"/>
<path d="M556.692 450.636L562.573 456.516L563.395 455.694C567.217 451.874 567.931 445.927 565.293 441.343C563.323 443.826 561.182 446.225 558.914 448.491C558.167 449.241 557.422 449.959 556.692 450.636ZM562.573 459.073C562.302 459.073 562.03 458.97 561.824 458.762L554.411 451.351C554.205 451.145 554.093 450.862 554.102 450.573C554.109 450.281 554.236 450.008 554.453 449.812C555.412 448.951 556.409 448.002 557.417 446.995C559.972 444.439 562.363 441.711 564.522 438.887C564.721 438.626 565.032 438.473 565.363 438.473C565.363 438.473 565.365 438.473 565.367 438.473C565.698 438.473 566.012 438.63 566.209 438.896C570.357 444.429 569.789 452.293 564.892 457.19L563.321 458.762C563.115 458.97 562.843 459.073 562.573 459.073Z" fill="#34426F"/>
<path d="M575.889 420.15C573.531 419.883 571.246 418.842 569.438 417.032C567.628 415.224 566.583 412.935 566.315 410.577C568.307 409.902 570.284 409.358 572.23 408.951C575.383 408.287 578.185 411.09 577.522 414.241C577.112 416.186 576.568 418.163 575.889 420.15Z" fill="white"/>
<path d="M567.501 411.3C567.885 413.174 568.82 414.918 570.185 416.285C571.572 417.672 573.282 418.588 575.168 418.965C575.701 417.315 576.143 415.656 576.485 414.024C576.726 412.878 576.389 411.743 575.558 410.912C574.728 410.084 573.593 409.746 572.449 409.988C570.827 410.325 569.169 410.768 567.501 411.3ZM575.889 421.209C575.852 421.209 575.81 421.207 575.771 421.2C573.071 420.896 570.621 419.715 568.689 417.782C566.782 415.875 565.566 413.358 565.264 410.695C565.209 410.2 565.505 409.733 565.976 409.573C568.005 408.888 570.036 408.329 572.013 407.915C573.843 407.529 575.729 408.09 577.055 409.416C578.381 410.741 578.942 412.628 578.556 414.46C578.14 416.452 577.579 418.483 576.891 420.492C576.744 420.924 576.338 421.209 575.889 421.209Z" fill="#34426F"/>
<path d="M524.509 445.19L521.154 448.545Z" fill="#B2DFF5"/>
<path d="M521.154 449.604C520.882 449.604 520.612 449.501 520.404 449.296C519.992 448.881 519.992 448.211 520.404 447.799L523.759 444.444C524.173 444.03 524.844 444.03 525.256 444.444C525.67 444.856 525.67 445.527 525.256 445.941L521.901 449.296C521.695 449.501 521.423 449.604 521.154 449.604Z" fill="#34426F"/>
<path d="M528.701 449.383L525.346 452.738Z" fill="#B2DFF5"/>
<path d="M525.345 453.799C525.075 453.799 524.804 453.696 524.598 453.488C524.184 453.076 524.184 452.405 524.598 451.991L527.953 448.636C528.364 448.222 529.035 448.222 529.449 448.636C529.863 449.05 529.863 449.721 529.449 450.133L526.094 453.488C525.888 453.696 525.617 453.799 525.345 453.799Z" fill="#34426F"/>
<path d="M532.894 453.577L529.54 456.932Z" fill="#B2DFF5"/>
<path d="M529.54 457.992C529.268 457.992 528.999 457.887 528.79 457.681C528.378 457.266 528.378 456.598 528.79 456.184L532.145 452.829C532.559 452.415 533.23 452.415 533.642 452.829C534.056 453.243 534.056 453.912 533.642 454.326L530.289 457.681C530.081 457.887 529.812 457.992 529.54 457.992Z" fill="#34426F"/>
<path d="M537.087 457.769L533.734 461.124Z" fill="#B2DFF5"/>
<path d="M533.734 462.184C533.462 462.184 533.19 462.081 532.984 461.875C532.57 461.46 532.57 460.79 532.984 460.376L536.339 457.021C536.753 456.609 537.422 456.609 537.836 457.021C538.25 457.435 538.25 458.106 537.836 458.52L534.481 461.875C534.275 462.081 534.003 462.184 533.734 462.184Z" fill="#34426F"/>
<path d="M541.28 461.964L537.925 465.317Z" fill="#B2DFF5"/>
<path d="M537.925 466.376C537.653 466.376 537.384 466.271 537.176 466.065C536.764 465.651 536.764 464.981 537.176 464.569L540.53 461.214C540.945 460.8 541.615 460.8 542.029 461.214C542.441 461.628 542.441 462.299 542.029 462.71L538.675 466.065C538.466 466.271 538.197 466.376 537.925 466.376Z" fill="#34426F"/>
<path d="M103.577 437.142C103.577 465.744 80.3908 488.931 51.7887 488.931C23.1866 488.931 0 465.744 0 437.142C0 408.54 23.1866 385.354 51.7887 385.354C80.3908 385.354 103.577 408.54 103.577 437.142Z" fill="#005EB8"/>
<path d="M103.577 115.649C103.577 144.251 80.3908 167.438 51.7887 167.438C23.1866 167.438 0 144.251 0 115.649C0 87.0469 23.1866 63.8604 51.7887 63.8604C80.3908 63.8604 103.577 87.0469 103.577 115.649Z" fill="#005EB8"/>
<path d="M100.228 115.649C100.228 88.8964 78.5405 67.2095 51.7883 67.2095C25.0362 67.2097 3.34933 88.8965 3.34914 115.649C3.34914 142.401 25.036 164.088 51.7883 164.089V167.438L51.1194 167.434C22.8258 167.075 0 144.027 0 115.649C0.000181247 87.0468 23.1865 63.8605 51.7883 63.8604C80.3902 63.8604 103.577 87.0467 103.577 115.649L103.573 116.318C103.215 144.612 80.1669 167.438 51.7883 167.438V164.089C78.5406 164.089 100.228 142.401 100.228 115.649Z" fill="#B2DFF5"/>
<path d="M80.2029 115.654C80.2029 113.846 80.0298 112.082 79.6992 110.367L85.0663 105.535C84.4051 103.35 83.5399 101.271 82.468 99.2871L75.2775 99.6512C73.2629 96.7068 70.7292 94.1731 67.7848 92.1586L68.1619 84.968C66.1809 83.8962 64.0862 83.031 61.9141 82.3698L57.0688 87.7368C55.3512 87.4062 53.5898 87.2331 51.7792 87.2331C49.9713 87.2331 48.2072 87.4062 46.4923 87.7368L41.6599 82.3698C39.4722 83.031 37.3957 83.8962 35.4121 84.968L35.7891 92.1586C32.8473 94.1576 30.2981 96.7068 28.2836 99.6512L21.106 99.2871C20.0367 101.271 19.1714 103.35 18.5103 105.535L23.8618 110.352C23.5312 112.067 23.3581 113.846 23.3581 115.654C23.3581 117.465 23.5312 119.244 23.8618 120.959L18.5103 125.774C19.1714 127.961 20.0367 130.04 21.106 132.021L28.2836 131.66C30.2981 134.604 32.8473 137.153 35.7891 139.153L35.4121 146.343C37.3957 147.399 39.4722 148.28 41.6599 148.926L46.4923 143.574C48.2072 143.905 49.9713 144.078 51.7792 144.078C53.5898 144.078 55.3512 143.905 57.0688 143.574L61.8986 148.926C64.0862 148.28 66.1809 147.399 68.1619 146.343L67.7848 139.153C70.7292 137.138 73.2629 134.604 75.2775 131.66L82.468 132.021C83.5399 130.04 84.4051 127.961 85.0663 125.774L79.6992 120.944C80.0298 119.229 80.2029 117.465 80.2029 115.654Z" fill="#B2DFF5"/>
<path d="M57.0684 142.327C57.417 142.327 57.7554 142.475 57.993 142.738L62.2908 147.498C63.8249 147.002 65.3617 146.367 66.8752 145.605L66.5394 139.218C66.5162 138.784 66.7203 138.368 67.0793 138.123C69.9048 136.191 72.3146 133.778 74.2465 130.955C74.4919 130.599 74.9077 130.39 75.3391 130.415L81.734 130.736C82.4805 129.269 83.1158 127.737 83.6324 126.167L78.8646 121.872C78.5391 121.58 78.3893 121.138 78.4745 120.709C78.7922 119.051 78.9523 117.352 78.9523 115.655C78.9523 113.96 78.7922 112.261 78.4745 110.603C78.3893 110.174 78.5391 109.732 78.8646 109.441L83.6324 105.145C83.1158 103.575 82.4805 102.043 81.734 100.576L75.3391 100.897C74.9077 100.92 74.4919 100.713 74.2465 100.354C72.3146 97.5339 69.9048 95.1216 67.0793 93.1897C66.7203 92.9443 66.5162 92.5285 66.5394 92.0946L66.8752 85.7021C65.4185 84.9609 63.8843 84.3255 62.3037 83.8038L57.993 88.5742C57.7011 88.897 57.2595 89.0468 56.8307 88.9616C53.5222 88.3262 50.0406 88.3262 46.7294 88.9616C46.2981 89.0468 45.8564 88.897 45.5646 88.5716L41.2694 83.8012C39.699 84.3178 38.1675 84.9557 36.7005 85.7021L37.0362 92.0946C37.0595 92.531 36.8528 92.9469 36.4912 93.1922C33.6708 95.1087 31.2559 97.5184 29.311 100.354C29.0657 100.713 28.6499 100.92 28.2211 100.897L21.8416 100.576C21.0952 102.043 20.4598 103.575 19.9407 105.145L24.6956 109.425C25.021 109.717 25.1682 110.159 25.0856 110.587C24.7653 112.246 24.6052 113.95 24.6052 115.655C24.6052 117.362 24.7653 119.067 25.0856 120.725C25.1682 121.154 25.021 121.595 24.6956 121.887L19.9407 126.167C20.4598 127.737 21.0952 129.269 21.8416 130.736L28.2211 130.415C28.6473 130.39 29.0657 130.599 29.311 130.955C31.2559 133.794 33.6708 136.204 36.4912 138.12C36.8528 138.365 37.0595 138.781 37.0362 139.218L36.7005 145.607C38.2191 146.372 39.7481 147.005 41.2668 147.498L45.5646 142.738C45.859 142.415 46.2981 142.265 46.7268 142.348C50.0432 142.988 53.5144 142.988 56.8307 142.348C56.9108 142.335 56.9883 142.327 57.0684 142.327ZM41.6594 150.174C41.5432 150.174 41.4243 150.156 41.3081 150.122C39.1489 149.487 36.969 148.585 34.8253 147.446C34.3966 147.219 34.1409 146.762 34.1667 146.279L34.5077 139.781C31.8655 137.893 29.5642 135.597 27.6581 132.941L21.1701 133.269C20.6742 133.3 20.2351 133.04 20.0078 132.616C18.8998 130.563 17.9959 128.383 17.3166 126.136C17.1745 125.673 17.3165 125.172 17.6756 124.847L22.5106 120.498C22.2445 118.907 22.1102 117.282 22.1102 115.655C22.1102 114.03 22.2445 112.406 22.5106 110.815L17.6756 106.463C17.3165 106.14 17.1745 105.639 17.3166 105.176C17.9959 102.929 18.8998 100.749 20.0078 98.6962C20.2351 98.2726 20.6871 98.0091 21.1701 98.0427L27.6581 98.3707C29.5642 95.7156 31.8655 93.4195 34.5077 91.5315L34.1667 85.0332C34.1409 84.5502 34.394 84.0982 34.8202 83.8684C36.8735 82.7603 39.056 81.8537 41.3004 81.1771C41.7601 81.035 42.2638 81.1771 42.5892 81.5361L46.9541 86.3866C50.1336 85.8545 53.4292 85.8545 56.606 86.3866L60.989 81.5335C61.3119 81.1745 61.8155 81.035 62.2778 81.1771C64.5429 81.8667 66.7228 82.7733 68.7555 83.8684C69.1791 84.0982 69.4348 84.5502 69.4089 85.0332L69.068 91.5341C71.7102 93.435 74.0037 95.7285 75.9021 98.3707L82.4056 98.0427C82.9015 98.0169 83.338 98.2726 83.5678 98.6962C84.6733 100.749 85.5798 102.929 86.2591 105.176C86.3985 105.639 86.2591 106.14 85.9001 106.463L81.0496 110.83C81.3156 112.421 81.4499 114.041 81.4499 115.655C81.4499 117.272 81.3156 118.891 81.0496 120.482L85.9001 124.847C86.2591 125.172 86.3985 125.673 86.2591 126.136C85.5798 128.383 84.6733 130.563 83.5678 132.616C83.338 133.04 82.9015 133.3 82.4056 133.269L75.9021 132.941C74.0037 135.584 71.7102 137.877 69.068 139.776L69.4089 146.279C69.4348 146.762 69.1765 147.219 68.7477 147.446C66.6195 148.578 64.4319 149.479 62.252 150.122C61.7897 150.256 61.2938 150.117 60.9735 149.763L56.606 144.926C53.424 145.458 50.1336 145.458 46.9541 144.926L42.5866 149.763C42.3464 150.029 42.0081 150.174 41.6594 150.174Z" fill="#34426F"/>
<path d="M31.4067 115.647C31.4067 104.391 40.5317 95.266 51.7876 95.266C63.046 95.266 72.1709 104.391 72.1709 115.647C72.1709 126.905 63.046 136.03 51.7876 136.03C40.5317 136.03 31.4067 126.905 31.4067 115.647Z" fill="white"/>
<path d="M51.7872 96.5131C41.2364 96.5131 32.6538 105.096 32.6538 115.646C32.6538 126.197 41.2364 134.782 51.7872 134.782C62.3379 134.782 70.9231 126.197 70.9231 115.646C70.9231 105.096 62.3379 96.5131 51.7872 96.5131ZM51.7872 137.277C39.8598 137.277 30.1562 127.574 30.1562 115.646C30.1562 103.722 39.8598 94.0181 51.7872 94.0181C63.7145 94.0181 73.4181 103.722 73.4181 115.646C73.4181 127.574 63.7145 137.277 51.7872 137.277Z" fill="#34426F"/>
<path d="M44.9726 123.463C44.6549 123.463 44.3347 123.342 44.0919 123.099L37.5238 116.531C37.0357 116.043 37.0357 115.255 37.5238 114.767L44.0919 108.199C44.58 107.71 45.3678 107.71 45.856 108.199C46.3441 108.687 46.3441 109.477 45.856 109.963L40.1712 115.647L45.856 121.335C46.3441 121.82 46.3441 122.611 45.856 123.099C45.6132 123.342 45.2929 123.463 44.9726 123.463Z" fill="#34426F"/>
<path d="M58.6003 123.463C58.2827 123.463 57.9624 123.342 57.7196 123.099C57.2315 122.611 57.2315 121.82 57.7196 121.335L63.4043 115.647L57.7196 109.963C57.2315 109.477 57.2315 108.687 57.7196 108.199C58.2052 107.71 58.9955 107.71 59.4837 108.199L66.0491 114.767C66.5373 115.255 66.5373 116.043 66.0491 116.531L59.4837 123.099C59.2383 123.342 58.9206 123.463 58.6003 123.463Z" fill="#34426F"/>
<path d="M48.2593 126.306C48.1276 126.306 47.9907 126.285 47.859 126.242C47.2056 126.019 46.8569 125.312 47.0764 124.658L53.4404 105.838C53.6625 105.184 54.3702 104.835 55.0236 105.055C55.6771 105.274 56.0258 105.985 55.8062 106.636L49.4422 125.459C49.264 125.978 48.7785 126.306 48.2593 126.306Z" fill="#34426F"/>
<path d="M597.707 114.768C597.707 143.37 574.521 166.557 545.919 166.557C517.317 166.557 494.13 143.37 494.13 114.768C494.13 86.1661 517.317 62.9795 545.919 62.9795C574.521 62.9795 597.707 86.1661 597.707 114.768Z" fill="#005EB8"/>
<path d="M594.358 114.768C594.358 88.0156 572.671 66.3286 545.919 66.3286C519.167 66.3287 497.48 88.0156 497.48 114.768C497.48 141.52 519.166 163.208 545.919 163.208V166.557L545.25 166.553C516.956 166.195 494.13 143.147 494.13 114.768C494.131 86.1659 517.317 62.9796 545.919 62.9795C574.521 62.9795 597.707 86.1659 597.707 114.768C597.707 143.37 574.521 166.557 545.919 166.557V163.208C572.671 163.208 594.358 141.52 594.358 114.768Z" fill="#B2DFF5"/>
<path d="M567.706 146.317H524.32V83.812H556.091L567.706 95.4202V108.951" fill="white"/>
<path d="M567.706 147.805H524.32C523.497 147.805 522.832 147.139 522.832 146.317V83.8087C522.832 82.9892 523.497 82.3207 524.32 82.3207H556.091C556.486 82.3207 556.865 82.4778 557.142 82.7582L568.759 94.3664C569.037 94.6467 569.194 95.0256 569.194 95.42V108.951C569.194 109.773 568.528 110.442 567.706 110.442C566.883 110.442 566.218 109.773 566.218 108.951V96.0361L555.475 85.2998H525.808V144.829H567.706C568.528 144.829 569.194 145.494 569.194 146.317C569.194 147.139 568.528 147.805 567.706 147.805Z" fill="#34426F"/>
<path d="M556.091 95.4194V83.8113L567.706 95.4194H556.091Z" fill="#B2DFF5"/>
<path d="M557.58 93.9322H564.111L557.58 87.4042V93.9322ZM567.706 96.9082H556.092C555.269 96.9082 554.601 96.2428 554.601 95.4202V83.8089C554.601 83.2082 554.964 82.666 555.522 82.4349C556.076 82.2039 556.717 82.3333 557.142 82.7584L568.76 94.3666C569.185 94.7917 569.311 95.4325 569.083 95.9902C568.852 96.5447 568.31 96.9082 567.706 96.9082Z" fill="#34426F"/>
<path d="M566.222 131.881L559.977 125.633L597.46 88.1499L603.705 94.3976L566.222 131.881Z" fill="#B2DFF5"/>
<path d="M562.082 125.633L566.222 129.777L601.601 94.3979L597.458 90.2544L562.082 125.633ZM566.222 133.369C565.828 133.369 565.449 133.212 565.172 132.932L558.924 126.684C558.342 126.105 558.342 125.162 558.924 124.58L596.407 87.0966C596.965 86.539 597.954 86.539 598.511 87.0966L604.759 93.3443C605.341 93.9266 605.341 94.8693 604.759 95.4485L567.276 132.932C566.995 133.212 566.617 133.369 566.222 133.369Z" fill="#34426F"/>
<path d="M558.245 137.919L553.936 133.609C553.936 132.854 553.936 132.429 553.936 131.671L559.977 125.633L566.221 131.881L560.183 137.919C559.425 137.919 559.003 137.919 558.245 137.919Z" fill="white"/>
<path d="M557.58 134.274H561.723L564.117 131.88L559.976 127.737L557.58 130.133V134.274ZM562.339 137.253H556.092C555.269 137.253 554.601 136.584 554.601 135.765V129.517C554.601 129.123 554.758 128.744 555.038 128.464L558.923 124.579C559.203 124.302 559.582 124.144 559.976 124.144C560.371 124.144 560.75 124.302 561.027 124.579L567.275 130.827C567.857 131.409 567.857 132.351 567.275 132.931L563.39 136.815C563.113 137.096 562.734 137.253 562.339 137.253Z" fill="#34426F"/>
<path d="M551.858 135.634L541.704 135.766Z" fill="#B2DFF5"/>
<path d="M541.705 137.253C540.892 137.253 540.226 136.597 540.217 135.783C540.205 134.961 540.864 134.286 541.683 134.274L551.837 134.144C551.847 134.144 551.853 134.144 551.859 134.144C552.672 134.144 553.335 134.798 553.347 135.611C553.356 136.433 552.7 137.108 551.877 137.12L541.723 137.253C541.717 137.253 541.711 137.253 541.705 137.253Z" fill="#34426F"/>
<path d="M551.858 126.194L541.704 126.326Z" fill="#B2DFF5"/>
<path d="M541.705 127.813C540.892 127.813 540.226 127.16 540.217 126.344C540.205 125.521 540.864 124.847 541.683 124.838L551.837 124.705C551.847 124.705 551.853 124.705 551.859 124.705C552.672 124.705 553.335 125.358 553.347 126.175C553.356 126.994 552.7 127.672 551.877 127.681L541.723 127.813C541.717 127.813 541.711 127.813 541.705 127.813Z" fill="#34426F"/>
<path d="M551.858 116.754L541.704 116.886Z" fill="#B2DFF5"/>
<path d="M541.705 118.375C540.892 118.375 540.226 117.719 540.217 116.906C540.205 116.083 540.864 115.409 541.683 115.396L551.837 115.267C551.847 115.267 551.853 115.267 551.859 115.267C552.672 115.267 553.335 115.92 553.347 116.737C553.356 117.556 552.7 118.234 551.877 118.243L541.723 118.375C541.717 118.375 541.711 118.375 541.705 118.375Z" fill="#34426F"/>
<path d="M551.858 107.315L541.704 107.447Z" fill="#B2DFF5"/>
<path d="M541.705 108.936C540.892 108.936 540.226 108.282 540.217 107.466C540.205 106.643 540.864 105.969 541.683 105.96L551.837 105.827C551.847 105.827 551.853 105.827 551.859 105.827C552.672 105.827 553.335 106.48 553.347 107.297C553.356 108.116 552.7 108.794 551.877 108.803L541.723 108.936C541.717 108.936 541.711 108.936 541.705 108.936Z" fill="#34426F"/>
<path d="M536.783 135.697H529.663V130.487H536.783V135.697Z" fill="#B2DFF5"/>
<path d="M531.15 134.21H535.293V131.979H531.15V134.21ZM536.781 137.186H529.662C528.839 137.186 528.174 136.52 528.174 135.698V130.488C528.174 129.669 528.839 129 529.662 129H536.781C537.601 129 538.269 129.669 538.269 130.488V135.698C538.269 136.52 537.601 137.186 536.781 137.186Z" fill="#34426F"/>
<path d="M536.783 126.258H529.663V121.052H536.783V126.258Z" fill="#B2DFF5"/>
<path d="M531.15 124.771H535.293V122.54H531.15V124.771ZM536.781 127.747H529.662C528.839 127.747 528.174 127.081 528.174 126.259V121.052C528.174 120.23 528.839 119.561 529.662 119.561H536.781C537.601 119.561 538.269 120.23 538.269 121.052V126.259C538.269 127.081 537.601 127.747 536.781 127.747Z" fill="#34426F"/>
<path d="M536.783 116.819H529.663V111.613H536.783V116.819Z" fill="#B2DFF5"/>
<path d="M531.15 115.331H535.293V113.1H531.15V115.331ZM536.781 118.307H529.662C528.839 118.307 528.174 117.641 528.174 116.819V111.609C528.174 110.79 528.839 110.121 529.662 110.121H536.781C537.601 110.121 538.269 110.79 538.269 111.609V116.819C538.269 117.641 537.601 118.307 536.781 118.307Z" fill="#34426F"/>
<path d="M536.783 107.379H529.663V102.173H536.783V107.379Z" fill="#B2DFF5"/>
<path d="M531.15 105.891H535.293V103.661H531.15V105.891ZM536.781 108.87H529.662C528.839 108.87 528.174 108.202 528.174 107.379V102.173C528.174 101.35 528.839 100.685 529.662 100.685H536.781C537.601 100.685 538.269 101.35 538.269 102.173V107.379C538.269 108.202 537.601 108.87 536.781 108.87Z" fill="#34426F"/>
<path d="M100.228 437.142C100.228 410.39 78.5405 388.703 51.7883 388.703C25.0362 388.703 3.34933 410.39 3.34914 437.142C3.34914 463.895 25.036 485.582 51.7883 485.582V488.931L51.1194 488.927C22.8258 488.569 0 465.521 0 437.142C0.000181247 408.54 23.1865 385.354 51.7883 385.354C80.3902 385.354 103.577 408.54 103.577 437.142L103.573 437.812C103.215 466.106 80.1669 488.931 51.7883 488.931V485.582C78.5406 485.582 100.228 463.895 100.228 437.142Z" fill="#B2DFF5"/>
<path d="M32.7261 438.588C32.7261 428.617 40.8098 420.533 50.7811 420.533C60.7524 420.533 68.8338 428.617 68.8338 438.588C68.8338 448.557 60.7524 456.641 50.7811 456.641C40.8098 456.641 32.7261 448.557 32.7261 438.588Z" fill="#B2DFF5"/>
<path d="M50.781 421.654C41.4428 421.654 33.8483 429.25 33.8483 438.588C33.8483 447.924 41.4428 455.521 50.781 455.521C60.1169 455.521 67.7137 447.924 67.7137 438.588C67.7137 429.25 60.1169 421.654 50.781 421.654ZM50.781 457.761C40.2068 457.761 31.606 449.16 31.606 438.588C31.606 428.014 40.2068 419.413 50.781 419.413C61.3529 419.413 69.9537 428.014 69.9537 438.588C69.9537 449.16 61.3529 457.761 50.781 457.761Z" fill="#34426F"/>
<path d="M50.7812 468.704C34.1755 468.704 20.6655 455.194 20.6655 438.588C20.6655 421.98 34.1755 408.472 50.7812 408.472C51.398 408.472 51.9012 408.973 51.9012 409.592C51.9012 410.209 51.398 410.712 50.7812 410.712C35.4115 410.712 22.9056 423.216 22.9056 438.588C22.9056 453.958 35.4115 466.461 50.7812 466.461C66.1509 466.461 78.6545 453.958 78.6545 438.588C78.6545 437.969 79.1577 437.468 79.7769 437.468C80.3937 437.468 80.8969 437.969 80.8969 438.588C80.8969 455.194 67.3869 468.704 50.7812 468.704Z" fill="#34426F"/>
<path d="M67.8711 421.495L75.3496 421.303L81.5411 415.113L76.6389 412.727L74.255 407.827L68.0659 414.017L67.8711 421.495Z" fill="#B2DFF5"/>
<path d="M69.1745 414.493L69.0215 420.346L74.8744 420.195L79.6375 415.432L76.1498 413.734C75.9249 413.625 75.7417 413.444 75.6327 413.217L73.9353 409.732L69.1745 414.493ZM67.8713 422.616C67.5745 422.616 67.2892 422.5 67.0782 422.289C66.8626 422.071 66.7443 421.774 66.7513 421.468L66.9461 413.987C66.953 413.702 67.0713 413.428 67.273 413.224L73.4622 407.035C73.7196 406.78 74.0813 406.662 74.4408 406.722C74.7979 406.782 75.104 407.012 75.2617 407.336L77.4785 411.891L82.0306 414.105C82.3575 414.263 82.5848 414.571 82.6451 414.929C82.7054 415.286 82.5894 415.65 82.332 415.905L76.1428 422.094C75.9411 422.298 75.6675 422.414 75.3799 422.421L67.9014 422.616C67.8922 422.616 67.8806 422.616 67.8713 422.616Z" fill="#34426F"/>
<path d="M42.1636 438.588C42.1636 433.827 46.0222 429.971 50.7806 429.971C55.539 429.971 59.3977 433.827 59.3977 438.588C59.3977 443.346 55.539 447.203 50.7806 447.203C46.0222 447.203 42.1636 443.346 42.1636 438.588Z" fill="white"/>
<path d="M50.7806 431.092C46.6459 431.092 43.2835 434.454 43.2835 438.589C43.2835 442.721 46.6459 446.084 50.7806 446.084C54.9129 446.084 58.2753 442.721 58.2753 438.589C58.2753 434.454 54.9129 431.092 50.7806 431.092ZM50.7806 448.324C45.4123 448.324 41.0435 443.957 41.0435 438.589C41.0435 433.218 45.4123 428.852 50.7806 428.852C56.1488 428.852 60.5177 433.218 60.5177 438.589C60.5177 443.957 56.1488 448.324 50.7806 448.324Z" fill="#34426F"/>
<path d="M67.802 421.565L50.7812 438.588Z" fill="#B2DFF5"/>
<path d="M50.781 439.708C50.4934 439.708 50.2059 439.599 49.9879 439.378C49.5496 438.942 49.5496 438.233 49.9879 437.794L67.0087 420.774C67.4469 420.335 68.1566 420.335 68.5925 420.774C69.0308 421.212 69.0308 421.919 68.5925 422.357L51.5717 439.378C51.3537 439.599 51.0662 439.708 50.781 439.708Z" fill="#34426F"/>
<path d="M150.855 69.6286C150.855 33.7379 179.951 4.64258 215.842 4.64258H382.224C418.115 4.64258 447.21 33.7378 447.21 69.6286V482.973C447.21 518.864 418.115 547.959 382.224 547.959H215.842C179.951 547.959 150.855 518.864 150.855 482.973V69.6286Z" fill="#005EB8"/>
<path d="M146.213 482.972V69.6279C146.213 31.1735 177.387 1.09139e-06 215.841 0V4.64186C179.95 4.64186 150.855 33.7371 150.855 69.6279V482.972C150.855 518.863 179.95 547.958 215.841 547.958H382.224L383.064 547.954C418.288 547.507 446.758 519.036 447.204 483.812L447.21 482.972V69.6279C447.21 34.0176 418.567 5.09738 383.064 4.64753L382.224 4.64186V0C420.678 0.000247504 451.852 31.1736 451.852 69.6279V482.972C451.852 521.426 420.678 552.6 382.224 552.6H215.841C177.387 552.6 146.213 521.426 146.213 482.972ZM382.224 0V4.64186H215.841V0H382.224Z" fill="#B2DFF5"/>
<path d="M242.563 472.194L239.044 469.275V469.193H238.962L218.366 452.007C216.838 450.779 214.683 450.779 213.128 452.034L192.586 469.193H192.504V469.275L188.985 472.194C188.112 472.903 188.003 474.213 188.739 475.086C189.148 475.577 189.721 475.822 190.321 475.822C190.785 475.822 191.249 475.659 191.631 475.359L192.531 474.622V503.457C192.531 504.576 193.459 505.503 194.577 505.503H237.025C238.144 505.503 239.071 504.576 239.071 503.457V474.622L239.972 475.359C240.845 476.095 242.127 475.959 242.863 475.113C243.6 474.24 243.463 472.958 242.618 472.221L242.563 472.194ZM211.464 501.384V482.833C211.464 482.588 211.573 482.452 211.545 482.424H219.975C219.975 482.424 220.139 482.588 220.139 482.833V501.384H211.491H211.464ZM234.979 501.384H224.204V482.833C224.204 480.351 222.321 478.332 220.03 478.332H211.545C209.254 478.332 207.372 480.351 207.372 482.833V501.384H196.596V471.185L215.801 455.171L234.979 471.185V501.384Z" fill="white"/>
<path d="M408.33 476.696C407.757 476.314 407.048 476.232 406.42 476.478L405.984 476.642V473.122C407.893 470.776 409.066 467.857 409.066 464.611C409.066 457.136 402.983 451.025 395.481 451.025C390.734 451.025 386.56 453.48 384.132 457.163H360.043C358.924 457.163 357.997 458.091 357.997 459.209V476.833L357.015 476.423C356.387 476.178 355.678 476.26 355.105 476.642C354.532 477.024 354.205 477.651 354.205 478.333V503.622C354.205 504.741 355.132 505.668 356.251 505.668H407.184C408.303 505.668 409.23 504.741 409.23 503.622V478.333C409.23 477.651 408.903 477.024 408.33 476.642V476.696ZM362.089 461.283H382.386C382.113 462.346 381.922 463.465 381.922 464.611C381.922 472.086 388.006 478.197 395.508 478.197C397.827 478.197 399.982 477.569 401.892 476.532V478.306L381.731 486.408L362.089 478.524V461.283ZM405.138 501.604H358.297V481.388L359.279 481.798L380.967 490.5C381.458 490.691 382.004 490.691 382.495 490.5L404.701 481.579L405.111 481.416V501.631L405.138 501.604Z" fill="white"/>
<path d="M395.48 454.599C389.942 454.599 385.441 459.1 385.441 464.638C385.441 470.176 389.942 474.677 395.48 474.677C401.018 474.677 405.52 470.176 405.52 464.638C405.52 459.1 401.018 454.599 395.48 454.599Z" fill="#D5281B"/>
<path d="M325.119 478.384C325.119 463.339 313.301 451.102 298.787 451.102C284.273 451.102 272.456 463.366 272.456 478.384C272.456 493.401 283.665 504.984 297.65 505.584C297.967 505.584 298.258 505.639 298.576 505.639C298.681 505.639 298.787 505.639 298.893 505.639C300.717 505.639 302.409 505.421 303.995 505.093C304.074 505.093 304.154 505.066 304.233 505.039C304.973 504.875 305.687 504.685 306.375 504.467C306.507 504.412 306.665 504.385 306.798 504.33C307.591 504.058 308.331 503.785 308.992 503.485C310.684 502.75 312.032 501.959 312.984 501.305L313.883 500.705V500.651C320.651 495.718 325.092 487.569 325.092 478.356L325.119 478.384ZM313.777 495.527C313.116 489.694 308.965 485.17 303.863 485.17H293.526C288.477 485.17 284.326 489.613 283.639 495.391C279.223 491.139 276.421 485.116 276.421 478.384C276.421 465.601 286.467 455.217 298.787 455.217C311.107 455.217 321.153 465.628 321.153 478.411C321.153 485.197 318.298 491.302 313.777 495.554V495.527Z" fill="white"/>
<path d="M298.708 483.862C304.767 483.862 309.679 478.798 309.679 472.551C309.679 466.304 304.767 461.24 298.708 461.24C292.648 461.24 287.736 466.304 287.736 472.551C287.736 478.798 292.648 483.862 298.708 483.862Z" fill="white"/>
<path d="M259.876 26.9825C259.876 25.9955 260.676 25.1953 261.663 25.1953H336.727C337.714 25.1953 338.514 25.9955 338.514 26.9825V26.9825C338.514 27.9696 337.714 28.7698 336.727 28.7698H261.663C260.676 28.7698 259.876 27.9696 259.876 26.9825V26.9825Z" fill="#B2DFF5"/>
<path d="M228.582 379.44C228.582 376.876 230.66 374.798 233.223 374.798H364.419C366.983 374.798 369.061 376.876 369.061 379.44V380.419C369.061 382.983 366.983 385.061 364.419 385.061H233.223C230.66 385.061 228.582 382.983 228.582 380.419V379.44Z" fill="#B2DFF5"/>
<path d="M391.396 400.945V405.587H206.247V400.945H391.396ZM409.963 382.377V377.479C409.963 367.225 401.65 358.912 391.396 358.912H206.247C195.992 358.912 187.679 367.225 187.679 377.479V382.377C187.679 392.632 195.992 400.945 206.247 400.945V405.587L205.647 405.579C193.106 405.261 183.038 394.995 183.038 382.377V377.479C183.038 364.661 193.429 354.27 206.247 354.27H391.396L391.995 354.278C404.536 354.596 414.605 364.862 414.605 377.479V382.377L414.597 382.977C414.285 395.319 404.337 405.267 391.994 405.579L391.396 405.587V400.945C401.65 400.945 409.963 392.632 409.963 382.377Z" fill="#B2DFF5"/>
<path d="M183.633 82.1138H277.976V120.473H183.633V82.1138Z" fill="#005EB8"/>
<path d="M277.993 120.473V82.1138H183.633V120.473H277.993ZM221.574 85.8143L215.062 116.692H204.833L198.407 95.329H198.321L194.048 116.692H186.295L192.859 85.8143H203.116L209.416 107.224H209.502L213.814 85.8143H221.574V85.8143ZM250.811 85.8143L244.425 116.692H236.189L238.917 103.47H229.182L226.455 116.692H218.219L224.605 85.8143H232.834L230.417 97.6294H240.145L242.569 85.8143H250.811V85.8143ZM274.46 86.6544L272.472 92.802C270.887 92.0552 268.728 91.3885 265.69 91.3885C262.434 91.3885 259.792 91.8685 259.792 94.3489C259.792 98.7229 271.726 97.0893 271.726 106.471C271.726 115.005 263.841 117.219 256.708 117.219C253.538 117.219 249.88 116.465 247.198 115.619L249.133 109.338C250.758 110.405 254.02 111.111 256.708 111.111C259.264 111.111 263.266 110.625 263.266 107.437C263.266 102.483 251.333 104.337 251.333 95.6291C251.333 87.6612 258.293 85.2742 265.03 85.2742C268.82 85.2876 272.387 85.6876 274.46 86.6544Z" fill="white"/>
<path d="M183.038 183.795C183.038 170.977 193.429 160.586 206.247 160.586H391.396C404.214 160.586 414.605 170.977 414.605 183.795V291.327C414.605 304.145 404.214 314.537 391.396 314.537H206.247C193.429 314.537 183.038 304.146 183.038 291.327V183.795Z" fill="white"/>
<path d="M204.849 194.736C204.849 192.172 206.927 190.094 209.491 190.094H340.687C343.25 190.094 345.329 192.172 345.329 194.736V195.715C345.329 198.279 343.25 200.357 340.687 200.357H209.491C206.927 200.357 204.849 198.279 204.849 195.715V194.736Z" fill="#005EB8"/>
<path d="M204.849 237.069C204.849 234.505 206.927 232.427 209.49 232.427H340.686C343.25 232.427 345.328 234.505 345.328 237.069V238.049C345.328 240.612 343.25 242.691 340.686 242.691H209.49C206.927 242.691 204.849 240.612 204.849 238.049V237.069Z" fill="#005EB8"/>
<path d="M204.849 279.407C204.849 276.844 206.927 274.766 209.49 274.766H340.686C343.25 274.766 345.328 276.844 345.328 279.407V280.387C345.328 282.951 343.25 285.029 340.686 285.029H209.49C206.927 285.029 204.849 282.951 204.849 280.387V279.407Z" fill="#005EB8"/>
<path d="M381.281 206.626C380.864 206.626 380.431 206.466 380.126 206.129C379.517 205.487 379.533 204.477 380.174 203.868L389.171 195.24L380.19 186.821C379.549 186.212 379.517 185.201 380.11 184.56C380.719 183.918 381.73 183.886 382.371 184.48L392.586 194.053C392.907 194.358 393.083 194.775 393.099 195.208C393.116 195.641 392.923 196.074 392.602 196.379L382.387 206.177C382.082 206.482 381.682 206.626 381.281 206.626Z" fill="#34426F"/>
<path d="M381.281 248.961C380.864 248.961 380.431 248.801 380.126 248.464C379.517 247.823 379.533 246.813 380.174 246.203L389.171 237.576L380.19 229.156C379.549 228.547 379.517 227.537 380.11 226.895C380.719 226.254 381.73 226.222 382.371 226.815L392.586 236.389C392.907 236.693 393.083 237.11 393.099 237.543C393.116 237.976 392.923 238.409 392.602 238.714L382.387 248.512C382.082 248.817 381.682 248.961 381.281 248.961Z" fill="#34426F"/>
<path d="M381.281 291.297C380.864 291.297 380.431 291.136 380.126 290.8C379.517 290.158 379.533 289.148 380.174 288.539L389.171 279.911L380.19 271.492C379.549 270.882 379.517 269.872 380.11 269.231C380.719 268.589 381.73 268.557 382.371 269.15L392.586 278.724C392.907 279.029 393.083 279.446 393.099 279.879C393.116 280.312 392.923 280.745 392.602 281.05L382.387 290.848C382.082 291.153 381.682 291.297 381.281 291.297Z" fill="#34426F"/>
</svg>
