<svg width="606" height="818" viewBox="0 0 606 818" fill="none" xmlns="http://www.w3.org/2000/svg">
<g clip-path="url(#clip0_832_375)">
<path d="M211 116C211 109.373 216.373 104 223 104H384C390.627 104 396 109.373 396 116C396 122.627 390.627 128 384 128H223C216.373 128 211 122.627 211 116Z" fill="white"/>
<path d="M60 863V128C60 90.4446 90.4446 60 128 60V72C97.0721 72 72 97.0721 72 128V863C72 893.928 97.0721 919 128 919H478L478.724 918.995C509.318 918.608 534 893.686 534 863V128C534 97.3136 509.318 72.3923 478.724 72.0049L478 72V60C515.555 60 546 90.4446 546 128V863C546 900.555 515.555 931 478 931H128C90.4446 931 60 900.555 60 863ZM478 60V72H128V60H478Z" fill="white"/>
<path d="M467.281 688.444C465.908 687.528 464.207 687.332 462.702 687.921L461.656 688.313V679.875C466.235 674.249 469.048 667.249 469.048 659.465C469.048 641.54 454.46 626.887 436.47 626.887C425.088 626.887 415.079 632.775 409.257 641.606H351.494C348.812 641.606 346.588 643.83 346.588 646.512V688.771L344.233 687.79C342.728 687.201 341.027 687.398 339.654 688.313C338.28 689.229 337.495 690.734 337.495 692.369V753.01C337.495 755.693 339.719 757.917 342.401 757.917H464.534C467.216 757.917 469.44 755.693 469.44 753.01V692.369C469.44 690.734 468.655 689.229 467.281 688.313V688.444ZM356.4 651.484H405.07C404.416 654.035 403.958 656.717 403.958 659.465C403.958 677.389 418.546 692.042 436.536 692.042C442.096 692.042 447.264 690.538 451.843 688.052V692.304L403.5 711.732L356.4 692.827V651.484ZM459.628 748.17H347.307V699.696L349.662 700.677L401.669 721.545C402.846 722.003 404.154 722.003 405.332 721.545L458.581 700.154L459.562 699.761V748.235L459.628 748.17Z" fill="white"/>
<path d="M436.47 635.457C423.19 635.457 412.397 646.25 412.397 659.53C412.397 672.81 423.19 683.603 436.47 683.603C449.749 683.603 460.543 672.81 460.543 659.53C460.543 646.25 449.749 635.457 436.47 635.457Z" fill="#D5281B"/>
<path d="M264.535 696.565C264.535 660.455 236.171 631.083 201.335 631.083C166.499 631.083 138.135 660.521 138.135 696.565C138.135 732.61 165.039 760.412 198.607 761.851C199.368 761.851 200.066 761.982 200.827 761.982C201.081 761.982 201.335 761.982 201.589 761.982C205.967 761.982 210.028 761.459 213.835 760.674C214.026 760.674 214.216 760.608 214.407 760.543C216.183 760.15 217.897 759.693 219.546 759.169C219.864 759.038 220.244 758.973 220.562 758.842C222.465 758.188 224.242 757.534 225.828 756.814C229.889 755.048 233.126 753.151 235.41 751.581L237.567 750.142V750.011C253.812 738.17 264.472 718.611 264.472 696.5L264.535 696.565ZM237.314 737.713C235.727 723.713 225.765 712.854 213.518 712.854H188.708C176.588 712.854 166.626 723.517 164.976 737.385C154.379 727.18 147.653 712.723 147.653 696.565C147.653 665.885 171.765 640.961 201.335 640.961C230.905 640.961 255.017 665.95 255.017 696.631C255.017 712.92 248.164 727.573 237.314 737.778V737.713Z" fill="white"/>
<path d="M201.145 709.714C215.688 709.714 227.478 697.56 227.478 682.566C227.478 667.573 215.688 655.418 201.145 655.418C186.601 655.418 174.811 667.573 174.811 682.566C174.811 697.56 186.601 709.714 201.145 709.714Z" fill="white"/>
<path d="M194 531C194 528.791 195.791 527 198 527H409C411.209 527 413 528.791 413 531V539C413 541.209 411.209 543 409 543H198C195.791 543 194 541.209 194 539V531Z" fill="#4D8ECD"/>
<path d="M464 567V575H143V567H464ZM476 555V515C476 508.373 470.627 503 464 503H143C136.373 503 131 508.373 131 515V555C131 561.627 136.373 567 143 567V575C131.954 575 123 566.046 123 555V515C123 504.127 131.676 495.281 142.483 495.007L143 495H464L464.517 495.007C475.324 495.281 484 504.127 484 515V555L483.993 555.517C483.719 566.324 474.873 575 464 575V567C470.627 567 476 561.627 476 555Z" fill="white"/>
<path d="M123 219C123 207.954 131.954 199 143 199H464C475.046 199 484 207.954 484 219V419C484 430.046 475.046 439 464 439H143C131.954 439 123 430.046 123 419V219Z" fill="white"/>
<path d="M464 427V439H143L143 427H464ZM472 419V219C472 214.582 468.418 211 464 211H143C138.582 211 135 214.582 135 219V419C135 423.418 138.582 427 143 427L143 439C132.127 439 123.281 430.324 123.007 419.517L123 419V219C123 208.127 131.676 199.281 142.483 199.007L143 199H464L464.517 199.007C475.324 199.281 484 208.127 484 219V419C484 430.046 475.046 439 464 439V427C468.418 427 472 423.418 472 419Z" fill="white"/>
<path d="M157 249C157 246.791 158.791 245 161 245H372C374.209 245 376 246.791 376 249V257C376 259.209 374.209 261 372 261H161C158.791 261 157 259.209 157 257V249Z" fill="#2676C3" fill-opacity="0.8"/>
<path d="M157 315C157 312.791 158.791 311 161 311H372C374.209 311 376 312.791 376 315V323C376 325.209 374.209 327 372 327H161C158.791 327 157 325.209 157 323V315Z" fill="#2676C3" fill-opacity="0.8"/>
<path d="M157 381C157 378.791 158.791 377 161 377H372C374.209 377 376 378.791 376 381V389C376 391.209 374.209 393 372 393H161C158.791 393 157 391.209 157 389V381Z" fill="#2676C3" fill-opacity="0.8"/>
<path d="M432.05 270.775C431.4 270.775 430.725 270.525 430.25 270C429.3 269 429.325 267.425 430.325 266.475L444.35 253.025L430.35 239.9C429.35 238.95 429.3 237.375 430.225 236.375C431.175 235.375 432.75 235.325 433.75 236.25L449.675 251.175C450.175 251.65 450.45 252.3 450.475 252.975C450.5 253.65 450.2 254.325 449.7 254.8L433.775 270.075C433.3 270.55 432.675 270.775 432.05 270.775Z" fill="#4D8ECD" fill-opacity="0.5"/>
<path d="M432.05 336.775C431.4 336.775 430.725 336.525 430.25 336C429.3 335 429.325 333.425 430.325 332.475L444.35 319.025L430.35 305.9C429.35 304.95 429.3 303.375 430.225 302.375C431.175 301.375 432.75 301.325 433.75 302.25L449.675 317.175C450.175 317.65 450.45 318.3 450.475 318.975C450.5 319.65 450.2 320.325 449.7 320.8L433.775 336.075C433.3 336.55 432.675 336.775 432.05 336.775Z" fill="#4D8ECD" fill-opacity="0.5"/>
<path d="M432.05 402.775C431.4 402.775 430.725 402.525 430.25 402C429.3 401 429.325 399.425 430.325 398.475L444.35 385.025L430.35 371.9C429.35 370.95 429.3 369.375 430.225 368.375C431.175 367.375 432.75 367.325 433.75 368.25L449.675 383.175C450.175 383.65 450.45 384.3 450.475 384.975C450.5 385.65 450.2 386.325 449.7 386.8L433.775 402.075C433.3 402.55 432.675 402.775 432.05 402.775Z" fill="#4D8ECD" fill-opacity="0.5"/>
</g>
<defs>
<clipPath id="clip0_832_375">
<rect width="606" height="818" fill="white"/>
</clipPath>
</defs>
</svg>
