<svg width="667" height="609" viewBox="0 0 667 609" fill="none" xmlns="http://www.w3.org/2000/svg">
<path d="M56.207 122.654V126.533H52.357V122.654L56.207 122.654ZM71.6057 122.654V126.533H63.9068V122.654H71.6057ZM87.0054 122.654V126.533H79.3056V122.654H87.0054ZM102.404 122.654V126.533H94.7053V122.654H102.404ZM117.804 122.654V126.533H110.104V122.654H117.804ZM133.204 122.654V126.533H125.504V122.654H133.204ZM148.602 122.654V126.533H140.902V122.654H148.602ZM164.002 122.654V126.533H156.302V122.654H164.002ZM179.401 122.654V126.533H171.701V122.654H179.401ZM194.8 122.654V126.533L187.101 126.533V122.654H194.8ZM210.199 122.654V126.533H202.499V122.654H210.199ZM225.599 122.654V126.533H217.899V122.654H225.599ZM240.998 122.654V126.533H233.298V122.654H240.998ZM256.397 122.654V126.533H248.697V122.654H256.397ZM271.796 122.654V126.533H264.097V122.654H271.796ZM287.196 122.654V126.533L279.496 126.533V122.654H287.196ZM302.595 122.654V126.533H294.896V122.654H302.595ZM317.994 122.654V126.533H310.294V122.654L317.994 122.654ZM333.393 122.654V126.533H325.694V122.654H333.393ZM348.793 122.654V126.533H341.093V122.654H348.793ZM364.191 122.654V126.533H356.492V122.654H364.191ZM379.591 122.654V126.533H371.891V122.654H379.591ZM394.99 122.654V126.533H387.291V122.654H394.99ZM410.39 122.655V126.533H402.69V122.655H410.39ZM425.788 122.655V126.533H418.089V122.655H425.788ZM441.188 122.655V126.533H433.488V122.655H441.188ZM456.587 122.655V126.533L448.888 126.533V122.655H456.587ZM471.986 122.655V126.533H464.287V122.655H471.986ZM487.385 122.655V126.533H479.686V122.655H487.385ZM502.785 122.655V126.533H495.085V122.655H502.785ZM518.184 122.655V126.533H510.485V122.655H518.184ZM533.583 122.655V126.533H525.883V122.655H533.583ZM548.982 122.655V126.533L541.283 126.533V122.655H548.982ZM564.382 122.655V126.533H556.682V122.655H564.382ZM575.932 122.655V126.533H572.082V122.655H575.932Z" fill="#B2DFF5"/>
<path d="M56.207 480.124V484.003H52.357V480.124L56.207 480.124ZM71.6057 480.124V484.003H63.9068V480.124H71.6057ZM87.0054 480.124V484.003H79.3056V480.124H87.0054ZM102.404 480.124V484.003H94.7053V480.124H102.404ZM117.804 480.124V484.003H110.104V480.124H117.804ZM133.204 480.124V484.003H125.504V480.124H133.204ZM148.602 480.124V484.003H140.902V480.124H148.602ZM164.002 480.124V484.003H156.302V480.124H164.002ZM179.401 480.124V484.003H171.701V480.124H179.401ZM194.8 480.124V484.003H187.101V480.124H194.8ZM210.199 480.124V484.003H202.499V480.124H210.199ZM225.599 480.124V484.003H217.899V480.124H225.599ZM240.998 480.124V484.003H233.298V480.124H240.998ZM256.397 480.124V484.003H248.697V480.124H256.397ZM271.796 480.124V484.003H264.097V480.124H271.796ZM287.196 480.124V484.003H279.496V480.124H287.196ZM302.595 480.124V484.003H294.896V480.124H302.595ZM317.994 480.124V484.003H310.294V480.124H317.994ZM333.393 480.124V484.003H325.694V480.124H333.393ZM348.793 480.124V484.003H341.093V480.124H348.793ZM364.191 480.124V484.003H356.492V480.124H364.191ZM379.591 480.124V484.003H371.891V480.124H379.591ZM394.99 480.124V484.003H387.291V480.124H394.99ZM410.39 480.124V484.003H402.69V480.124H410.39ZM425.788 480.124V484.003H418.089V480.124H425.788ZM441.188 480.124V484.003H433.488V480.124H441.188ZM456.587 480.124V484.003H448.888V480.124H456.587ZM471.986 480.124V484.003H464.287V480.124H471.986ZM487.385 480.124V484.003H479.686V480.124H487.385ZM502.785 480.124V484.003H495.085V480.124H502.785ZM518.184 480.124V484.003H510.485V480.124H518.184ZM533.583 480.124V484.003H525.883V480.124H533.583ZM548.982 480.124V484.003H541.283V480.124H548.982ZM564.382 480.124V484.003H556.682V480.124H564.382ZM575.932 480.124V484.003H572.082V480.124H575.932Z" fill="#B2DFF5"/>
<path d="M601.141 466.945H605.019V470.734H601.141V466.945ZM601.141 451.79H605.019V459.367H601.141V451.79ZM601.141 436.633H605.019V444.211H601.141V436.633ZM601.141 421.477H605.019V429.055H601.141V421.477ZM601.141 406.32H605.019V413.899H601.141V406.32ZM601.141 391.165H605.019V398.743H601.141V391.165ZM601.141 376.009H605.019V383.586H601.141V376.009ZM601.141 360.852H605.019V368.431H601.141V360.852ZM601.141 345.696H605.019V353.275H601.141V345.696ZM601.141 330.541H605.019V338.118H601.141V330.541ZM601.141 315.384H605.019V322.962H601.141V315.384ZM601.141 300.228H605.019V307.807H601.141V300.228ZM601.141 285.072H605.019V292.65H601.141V285.072ZM601.141 269.916H605.019V277.494H601.141V269.916ZM601.141 254.76H605.019V262.338H601.141V254.76ZM601.141 239.603H605.019V247.182H601.141V239.603ZM601.141 224.447H605.019V232.026H601.141V224.447ZM601.141 209.292H605.019V216.869H601.141V209.292ZM601.141 194.135H605.019V201.713H601.141V194.135ZM601.141 182.768H605.019V186.558H601.141V182.768Z" fill="#B2DFF5"/>
<path d="M58.1749 466.945H62.0532V470.734H58.1749V466.945ZM58.1749 451.79H62.0532V459.367H58.1749V451.79ZM58.1749 436.633H62.0532V444.211H58.1749V436.633ZM58.1749 421.477H62.0532V429.055H58.1749L58.1749 421.477ZM58.1749 406.32H62.0532V413.899H58.1749V406.32ZM58.1749 391.165H62.0532V398.743H58.1749V391.165ZM58.1749 376.009H62.0532V383.586H58.1749V376.009ZM58.1749 360.852H62.0532L62.0532 368.431H58.1749V360.852ZM58.1749 345.696H62.0532V353.275H58.1749V345.696ZM58.1749 330.541H62.0532V338.118H58.1749V330.541ZM58.1749 315.384H62.0532V322.962H58.1749V315.384ZM58.1749 300.228H62.0532V307.807H58.1749V300.228ZM58.1749 285.072H62.0532V292.65H58.1749V285.072ZM58.1749 269.916H62.0532L62.0532 277.494H58.1749V269.916ZM58.1749 254.76H62.0532V262.338H58.1749V254.76ZM58.1749 239.603H62.0532V247.182H58.1749V239.603ZM58.1749 224.447H62.0532V232.026H58.1749V224.447ZM58.1749 209.292H62.0532V216.869H58.1749V209.292ZM58.1749 194.135H62.0532V201.713H58.1749V194.135ZM58.1749 182.768H62.0532V186.558H58.1749V182.768Z" fill="#B2DFF5"/>
<path d="M661.831 481.204C661.831 512.689 636.308 538.212 604.823 538.212C573.338 538.212 547.814 512.689 547.814 481.204C547.814 449.719 573.338 424.195 604.823 424.195C636.308 424.195 661.831 449.719 661.831 481.204Z" fill="#005EB8"/>
<path d="M658.145 481.203C658.144 451.755 634.271 427.882 604.822 427.882C575.374 427.882 551.501 451.755 551.501 481.203C551.501 510.652 575.373 534.525 604.822 534.526L604.823 538.212L604.086 538.208C572.94 537.813 547.814 512.443 547.814 481.204C547.814 449.719 573.338 424.195 604.823 424.195C636.308 424.195 661.831 449.719 661.831 481.204L661.827 481.94C661.432 513.086 636.062 538.212 604.823 538.212L604.822 534.526C634.271 534.526 658.145 510.652 658.145 481.203Z" fill="#B2DFF5"/>
<path d="M613.139 494.414C610.797 496.754 608.39 498.935 605.928 500.961L583.04 478.073C585.064 475.609 587.245 473.202 589.587 470.863C602.176 458.274 616.817 450.203 630.184 447.399C634.011 446.596 637.403 449.991 636.598 453.818C633.785 467.192 625.717 481.834 613.139 494.414Z" fill="#B2DFF5"/>
<path d="M584.776 477.994L606.01 499.224C608.145 497.424 610.235 495.504 612.232 493.507C624.242 481.494 632.451 467.307 635.344 453.555C635.638 452.161 635.229 450.788 634.223 449.781C633.216 448.775 631.841 448.363 630.449 448.655C616.708 451.539 602.517 459.748 590.495 471.769C588.503 473.763 586.582 475.851 584.776 477.994ZM605.93 502.244C605.601 502.244 605.272 502.117 605.022 501.867L582.134 478.979C581.667 478.512 581.629 477.768 582.049 477.256C584.123 474.738 586.354 472.281 588.681 469.955C601.051 457.584 615.698 449.128 629.923 446.145C632.149 445.678 634.433 446.36 636.037 447.965C637.644 449.574 638.323 451.861 637.856 454.084C634.863 468.316 626.407 482.963 614.046 495.32C611.715 497.655 609.258 499.886 606.746 501.952C606.507 502.146 606.217 502.244 605.93 502.244Z" fill="#34426F"/>
<path d="M634.623 460.975C631.765 460.651 628.995 459.389 626.804 457.196C624.611 455.005 623.344 452.229 623.02 449.372C625.434 448.554 627.829 447.895 630.188 447.401C634.009 446.596 637.406 449.993 636.602 453.812C636.105 456.171 635.446 458.566 634.623 460.975Z" fill="#B2DFF5"/>
<path d="M624.457 450.249C624.922 452.519 626.056 454.633 627.71 456.29C629.392 457.972 631.463 459.082 633.75 459.539C634.395 457.539 634.932 455.528 635.346 453.55C635.638 452.161 635.229 450.785 634.222 449.778C633.216 448.775 631.84 448.366 630.454 448.658C628.488 449.067 626.478 449.603 624.457 450.249ZM634.623 462.258C634.578 462.258 634.528 462.255 634.48 462.247C631.208 461.878 628.239 460.447 625.896 458.104C623.586 455.794 622.112 452.742 621.745 449.516C621.679 448.915 622.038 448.35 622.609 448.156C625.068 447.324 627.53 446.647 629.925 446.145C632.143 445.678 634.43 446.358 636.037 447.965C637.644 449.571 638.323 451.858 637.856 454.078C637.351 456.492 636.671 458.954 635.837 461.39C635.659 461.913 635.168 462.258 634.623 462.258Z" fill="#34426F"/>
<path d="M603.832 471.207C606.307 468.732 610.32 468.732 612.795 471.207C615.271 473.682 615.271 477.695 612.795 480.171C610.32 482.646 606.307 482.646 603.832 480.171C601.357 477.695 601.357 473.682 603.832 471.207Z" fill="white"/>
<path d="M608.314 470.635C607.021 470.635 605.725 471.129 604.74 472.112C602.769 474.085 602.769 477.291 604.74 479.261C606.71 481.232 609.916 481.232 611.889 479.261C613.86 477.291 613.86 474.085 611.889 472.112C610.904 471.129 609.608 470.635 608.314 470.635ZM608.314 483.306C606.362 483.306 604.41 482.563 602.926 481.078C599.954 478.106 599.954 473.27 602.926 470.298C605.895 467.326 610.731 467.326 613.703 470.298C616.675 473.27 616.675 478.106 613.703 481.078C612.219 482.563 610.266 483.306 608.314 483.306Z" fill="#34426F"/>
<path d="M599.749 512.299C597.285 507.028 593.675 500.863 588.141 495.398C582.813 490.139 576.851 486.658 571.698 484.251C576.006 481.904 579.753 479.861 583.039 478.071L605.929 500.959L599.749 512.299Z" fill="#B2DFF5"/>
<path d="M574.496 484.19C580.201 487.091 584.976 490.474 589.042 494.49C593.26 498.651 596.8 503.583 599.814 509.506L604.345 501.19L582.812 479.657L574.496 484.19ZM599.751 513.588C599.737 513.588 599.724 513.588 599.711 513.585C599.227 513.572 598.792 513.285 598.587 512.847C595.475 506.186 591.762 500.779 587.239 496.314C582.862 491.993 577.601 488.426 571.155 485.417C570.717 485.21 570.433 484.777 570.417 484.294C570.401 483.811 570.659 483.359 571.086 483.128L582.427 476.945C582.926 476.674 583.545 476.762 583.948 477.166L606.836 500.054C607.24 500.457 607.33 501.076 607.057 501.575L600.877 512.918C600.651 513.33 600.218 513.588 599.751 513.588Z" fill="#34426F"/>
<path d="M589.59 470.867C588.393 472.065 587.235 473.279 586.127 474.511L577.134 465.521L579.041 463.614C584.637 458.018 593.394 457.532 599.544 462.145C596.129 464.759 592.791 467.667 589.59 470.867Z" fill="white"/>
<path d="M578.952 465.52L586.085 472.654C586.906 471.77 587.774 470.869 588.682 469.958C591.423 467.217 594.331 464.625 597.348 462.23C591.79 459.024 584.579 459.89 579.947 464.522L578.952 465.52ZM586.128 475.793C585.788 475.793 585.461 475.658 585.219 475.416L576.229 466.426C575.727 465.924 575.727 465.114 576.229 464.612L578.133 462.708C584.069 456.772 593.604 456.09 600.315 461.12C600.636 461.361 600.825 461.739 600.828 462.14C600.83 462.543 600.644 462.92 600.323 463.165C596.892 465.789 593.585 468.686 590.499 471.775C589.277 472.997 588.127 474.205 587.081 475.368C586.845 475.631 586.513 475.782 586.162 475.793C586.149 475.793 586.138 475.793 586.128 475.793Z" fill="#34426F"/>
<path d="M620.388 504.96L618.484 506.864L609.499 497.88C610.731 496.772 611.945 495.614 613.143 494.417C616.349 491.208 619.259 487.87 621.862 484.463C626.47 490.605 625.979 499.37 620.388 504.96Z" fill="white"/>
<path d="M611.356 497.924L618.484 505.049L619.48 504.053C624.112 499.424 624.978 492.216 621.78 486.66C619.393 489.669 616.798 492.577 614.049 495.324C613.144 496.232 612.241 497.103 611.356 497.924ZM618.484 508.149C618.155 508.149 617.826 508.024 617.576 507.771L608.591 498.789C608.342 498.54 608.206 498.197 608.217 497.847C608.225 497.493 608.379 497.161 608.642 496.925C609.805 495.881 611.014 494.731 612.235 493.51C615.332 490.413 618.23 487.106 620.846 483.683C621.087 483.367 621.464 483.181 621.865 483.181C621.865 483.181 621.868 483.181 621.871 483.181C622.272 483.181 622.652 483.372 622.891 483.694C627.918 490.4 627.23 499.931 621.294 505.867L619.39 507.771C619.14 508.024 618.811 508.149 618.484 508.149Z" fill="#34426F"/>
<path d="M634.623 460.975C631.765 460.651 628.995 459.389 626.804 457.196C624.611 455.005 623.344 452.229 623.02 449.372C625.434 448.554 627.829 447.895 630.188 447.401C634.009 446.596 637.406 449.993 636.602 453.812C636.105 456.171 635.446 458.566 634.623 460.975Z" fill="white"/>
<path d="M624.457 450.249C624.922 452.519 626.056 454.633 627.71 456.29C629.392 457.972 631.463 459.082 633.75 459.539C634.395 457.539 634.932 455.528 635.346 453.55C635.638 452.161 635.229 450.785 634.222 449.778C633.216 448.775 631.84 448.366 630.454 448.658C628.488 449.067 626.478 449.603 624.457 450.249ZM634.623 462.258C634.578 462.258 634.528 462.255 634.48 462.247C631.208 461.878 628.239 460.447 625.896 458.104C623.586 455.794 622.112 452.742 621.745 449.516C621.679 448.915 622.038 448.35 622.609 448.156C625.068 447.324 627.53 446.647 629.925 446.145C632.143 445.678 634.43 446.358 636.037 447.965C637.644 449.571 638.323 451.858 637.856 454.078C637.351 456.492 636.671 458.954 635.837 461.39C635.659 461.913 635.168 462.258 634.623 462.258Z" fill="#34426F"/>
<path d="M572.349 491.323L568.283 495.389Z" fill="#B2DFF5"/>
<path d="M568.283 496.673C567.954 496.673 567.627 496.549 567.375 496.299C566.875 495.797 566.875 494.984 567.375 494.485L571.441 490.419C571.943 489.917 572.755 489.917 573.255 490.419C573.757 490.918 573.757 491.731 573.255 492.233L569.189 496.299C568.939 496.549 568.61 496.673 568.283 496.673Z" fill="white"/>
<path d="M577.43 496.406L573.364 500.472Z" fill="#B2DFF5"/>
<path d="M573.363 501.757C573.036 501.757 572.707 501.632 572.457 501.38C571.955 500.88 571.955 500.068 572.457 499.566L576.523 495.5C577.022 494.998 577.835 494.998 578.337 495.5C578.839 496.002 578.839 496.814 578.337 497.314L574.271 501.38C574.021 501.632 573.692 501.757 573.363 501.757Z" fill="white"/>
<path d="M582.513 501.488L578.447 505.554Z" fill="#B2DFF5"/>
<path d="M578.447 506.839C578.118 506.839 577.791 506.712 577.539 506.462C577.039 505.96 577.039 505.15 577.539 504.648L581.605 500.582C582.107 500.08 582.919 500.08 583.419 500.582C583.921 501.084 583.921 501.894 583.419 502.396L579.355 506.462C579.103 506.712 578.776 506.839 578.447 506.839Z" fill="white"/>
<path d="M587.594 506.569L583.53 510.635Z" fill="#B2DFF5"/>
<path d="M583.531 511.919C583.202 511.919 582.872 511.794 582.623 511.544C582.121 511.042 582.121 510.23 582.623 509.728L586.689 505.662C587.191 505.162 588.001 505.162 588.503 505.662C589.005 506.163 589.005 506.976 588.503 507.478L584.436 511.544C584.187 511.794 583.858 511.919 583.531 511.919Z" fill="white"/>
<path d="M592.676 511.654L588.61 515.718Z" fill="#B2DFF5"/>
<path d="M588.61 517.002C588.281 517.002 587.954 516.875 587.702 516.625C587.203 516.123 587.203 515.31 587.702 514.811L591.768 510.745C592.27 510.243 593.083 510.243 593.585 510.745C594.084 511.247 594.084 512.06 593.585 512.559L589.519 516.625C589.266 516.875 588.94 517.002 588.61 517.002Z" fill="white"/>
<path d="M114.017 481.203C114.017 512.688 88.4937 538.212 57.0087 538.212C25.5236 538.212 0 512.688 0 481.203C0 449.718 25.5236 424.195 57.0087 424.195C88.4937 424.195 114.017 449.718 114.017 481.203Z" fill="#005EB8"/>
<path d="M114.017 127.306C114.017 158.791 88.4937 184.314 57.0087 184.314C25.5236 184.314 0 158.791 0 127.306C0 95.8207 25.5236 70.2971 57.0087 70.2971C88.4937 70.2971 114.017 95.8207 114.017 127.306Z" fill="#005EB8"/>
<path d="M110.331 127.305C110.33 97.8566 86.4569 73.9838 57.0082 73.9838C27.5597 73.984 3.68692 97.8567 3.68672 127.305C3.68672 156.754 27.5595 180.628 57.0082 180.628L57.0087 184.314L56.2719 184.31C25.1265 183.916 0 158.545 0 127.306C0 95.8207 25.5236 70.2971 57.0087 70.2971C88.4937 70.2971 114.017 95.8207 114.017 127.306L114.013 128.042C113.618 159.188 88.2477 184.314 57.0087 184.314L57.0082 180.628C86.4571 180.628 110.331 156.754 110.331 127.305Z" fill="#B2DFF5"/>
<path d="M88.287 127.312C88.287 125.322 88.0965 123.38 87.7326 121.492L93.6406 116.173C92.9128 113.767 91.9603 111.479 90.7804 109.295L82.8652 109.696C80.6475 106.455 77.8584 103.666 74.6173 101.448L75.0324 93.5328C72.8517 92.3529 70.5459 91.4004 68.1548 90.6726L62.8212 96.5806C60.9305 96.2166 58.9915 96.0262 56.9984 96.0262C55.0082 96.0262 53.0664 96.2166 51.1786 96.5806L45.8591 90.6726C43.451 91.4004 41.1651 92.3529 38.9816 93.5328L39.3966 101.448C36.1583 103.649 33.3522 106.455 31.1345 109.696L23.2335 109.295C22.0564 111.479 21.104 113.767 20.3762 116.173L26.2671 121.475C25.9032 123.363 25.7127 125.322 25.7127 127.312C25.7127 129.305 25.9032 131.264 26.2671 133.152L20.3762 138.451C21.104 140.859 22.0564 143.148 23.2335 145.329L31.1345 144.931C33.3522 148.172 36.1583 150.978 39.3966 153.179L38.9816 161.094C41.1651 162.257 43.451 163.226 45.8591 163.937L51.1786 158.046C53.0664 158.41 55.0082 158.6 56.9984 158.6C58.9915 158.6 60.9305 158.41 62.8212 158.046L68.1378 163.937C70.5459 163.226 72.8517 162.257 75.0324 161.094L74.6173 153.179C77.8584 150.961 80.6475 148.172 82.8652 144.931L90.7804 145.329C91.9603 143.148 92.9128 140.859 93.6406 138.451L87.7326 133.135C88.0965 131.247 88.287 129.305 88.287 127.312Z" fill="#B2DFF5"/>
<path d="M62.8207 156.673C63.2045 156.673 63.5769 156.835 63.8385 157.125L68.5695 162.365C70.2583 161.819 71.9499 161.12 73.616 160.281L73.2464 153.25C73.2208 152.772 73.4454 152.314 73.8406 152.044C76.951 149.918 79.6036 147.262 81.7303 144.155C82.0004 143.762 82.4582 143.532 82.933 143.56L89.9725 143.913C90.7942 142.298 91.4936 140.612 92.0622 138.883L86.8138 134.155C86.4556 133.834 86.2906 133.348 86.3845 132.876C86.7342 131.051 86.9104 129.18 86.9104 127.312C86.9104 125.447 86.7342 123.576 86.3845 121.751C86.2906 121.279 86.4556 120.793 86.8138 120.471L92.0622 115.743C91.4936 114.015 90.7942 112.329 89.9725 110.714L82.933 111.066C82.4582 111.092 82.0004 110.864 81.7303 110.469C79.6036 107.365 76.951 104.709 73.8406 102.583C73.4454 102.312 73.2208 101.855 73.2464 101.377L73.616 94.3403C72.0125 93.5243 70.3237 92.8249 68.5837 92.2506L63.8385 97.5018C63.5172 97.8572 63.031 98.0221 62.5591 97.9283C58.917 97.2289 55.0845 97.2289 51.4396 97.9283C50.9648 98.0221 50.4787 97.8572 50.1574 97.499L45.4293 92.2478C43.7006 92.8164 42.0147 93.5186 40.3998 94.3403L40.7694 101.377C40.795 101.858 40.5675 102.315 40.1695 102.585C37.0648 104.695 34.4065 107.348 32.2656 110.469C31.9955 110.864 31.5378 111.092 31.0658 111.066L24.0433 110.714C23.2216 112.329 22.5222 114.015 21.9508 115.743L27.1849 120.454C27.5432 120.776 27.7052 121.262 27.6142 121.734C27.2617 123.559 27.0854 125.436 27.0854 127.312C27.0854 129.191 27.2617 131.068 27.6142 132.893C27.7052 133.365 27.5432 133.851 27.1849 134.172L21.9508 138.883C22.5222 140.612 23.2216 142.298 24.0433 143.913L31.0658 143.56C31.5349 143.532 31.9955 143.762 32.2656 144.155C34.4065 147.279 37.0648 149.932 40.1695 152.041C40.5675 152.312 40.795 152.769 40.7694 153.25L40.3998 160.284C42.0716 161.125 43.7547 161.822 45.4264 162.365L50.1574 157.125C50.4815 156.77 50.9648 156.605 51.4368 156.696C55.0874 157.401 58.9085 157.401 62.5591 156.696C62.6472 156.681 62.7325 156.673 62.8207 156.673ZM45.8586 165.31C45.7307 165.31 45.5998 165.29 45.4719 165.253C43.095 164.554 40.6955 163.562 38.3357 162.308C37.8637 162.058 37.5822 161.555 37.6107 161.023L37.986 153.87C35.0775 151.791 32.5442 149.264 30.446 146.341L23.3041 146.702C22.7582 146.736 22.2749 146.449 22.0247 145.983C20.805 143.722 19.8099 141.323 19.0622 138.849C18.9058 138.34 19.0621 137.789 19.4573 137.431L24.7797 132.643C24.4868 130.891 24.339 129.103 24.339 127.312C24.339 125.524 24.4868 123.735 24.7797 121.984L19.4573 117.193C19.0621 116.838 18.9058 116.286 19.0622 115.777C19.8099 113.304 20.805 110.904 22.0247 108.644C22.2749 108.178 22.7724 107.888 23.3041 107.925L30.446 108.286C32.5442 105.363 35.0775 102.836 37.986 100.757L37.6107 93.6039C37.5822 93.0722 37.8609 92.5747 38.33 92.3217C40.5903 91.102 42.9927 90.104 45.4634 89.3591C45.9695 89.2027 46.5239 89.3591 46.8821 89.7543L51.687 95.0937C55.1869 94.508 58.8147 94.508 62.3117 95.0937L67.1365 89.7515C67.4919 89.3563 68.0463 89.2027 68.5552 89.3591C71.0487 90.1182 73.4483 91.1162 75.6858 92.3217C76.1521 92.5747 76.4335 93.0722 76.4051 93.6039L76.0298 100.76C78.9383 102.853 81.463 105.377 83.5527 108.286L90.7117 107.925C91.2576 107.896 91.7381 108.178 91.9911 108.644C93.208 110.904 94.2059 113.304 94.9536 115.777C95.1072 116.286 94.9536 116.838 94.5584 117.193L89.2191 122.001C89.5119 123.752 89.6598 125.535 89.6598 127.312C89.6598 129.092 89.5119 130.874 89.2191 132.626L94.5584 137.431C94.9536 137.789 95.1072 138.34 94.9536 138.849C94.2059 141.323 93.208 143.722 91.9911 145.983C91.7381 146.449 91.2576 146.736 90.7117 146.702L83.5527 146.341C81.463 149.25 78.9383 151.774 76.0298 153.864L76.4051 161.023C76.4335 161.555 76.1492 162.058 75.6773 162.308C73.3345 163.553 70.9264 164.546 68.5268 165.253C68.0179 165.401 67.472 165.248 67.1195 164.858L62.3117 159.533C58.809 160.119 55.1869 160.119 51.687 159.533L46.8792 164.858C46.6148 165.151 46.2424 165.31 45.8586 165.31Z" fill="#34426F"/>
<path d="M34.5725 127.304C34.5725 114.913 44.6173 104.869 57.0076 104.869C69.4008 104.869 79.4455 114.913 79.4455 127.304C79.4455 139.697 69.4008 149.742 57.0076 149.742C44.6173 149.742 34.5725 139.697 34.5725 127.304Z" fill="white"/>
<path d="M57.0072 106.241C45.393 106.241 35.9453 115.689 35.9453 127.303C35.9453 138.918 45.393 148.368 57.0072 148.368C68.6213 148.368 78.0719 138.918 78.0719 127.303C78.0719 115.689 68.6213 106.241 57.0072 106.241ZM57.0072 151.115C43.8776 151.115 33.196 140.433 33.196 127.303C33.196 114.177 43.8776 103.495 57.0072 103.495C70.1367 103.495 80.8183 114.177 80.8183 127.303C80.8183 140.433 70.1367 151.115 57.0072 151.115Z" fill="#34426F"/>
<path d="M49.5058 135.908C49.1561 135.908 48.8035 135.774 48.5363 135.507L41.3062 128.277C40.7688 127.739 40.7688 126.872 41.3062 126.335L48.5363 119.105C49.0736 118.567 49.9408 118.567 50.4781 119.105C51.0155 119.642 51.0155 120.512 50.4781 121.047L44.2204 127.304L50.4781 133.565C51.0155 134.099 51.0155 134.969 50.4781 135.507C50.2109 135.774 49.8583 135.908 49.5058 135.908Z" fill="#34426F"/>
<path d="M64.5071 135.908C64.1574 135.908 63.8048 135.774 63.5376 135.507C63.0002 134.969 63.0002 134.099 63.5376 133.565L69.7953 127.304L63.5376 121.047C63.0002 120.512 63.0002 119.642 63.5376 119.105C64.0721 118.567 64.9421 118.567 65.4795 119.105L72.7067 126.335C73.244 126.872 73.244 127.739 72.7067 128.277L65.4795 135.507C65.2094 135.774 64.8596 135.908 64.5071 135.908Z" fill="#34426F"/>
<path d="M53.1238 139.037C52.9788 139.037 52.8281 139.015 52.6831 138.966C51.9638 138.722 51.5799 137.943 51.8216 137.224L58.8271 116.506C59.0716 115.786 59.8505 115.403 60.5699 115.644C61.2892 115.886 61.673 116.668 61.4313 117.384L54.4259 138.105C54.2297 138.676 53.6952 139.037 53.1238 139.037Z" fill="#34426F"/>
<path d="M657.953 126.336C657.953 157.821 632.429 183.344 600.944 183.344C569.459 183.344 543.936 157.821 543.936 126.336C543.936 94.8507 569.459 69.327 600.944 69.327C632.429 69.327 657.953 94.8507 657.953 126.336Z" fill="#005EB8"/>
<path d="M654.266 126.335C654.265 96.8866 630.393 73.0138 600.944 73.0138C571.496 73.0139 547.623 96.8866 547.622 126.335C547.622 155.784 571.495 179.658 600.944 179.658L600.944 183.344L600.208 183.34C569.062 182.946 543.936 157.575 543.936 126.336C543.936 94.8507 569.459 69.327 600.944 69.327C632.429 69.327 657.953 94.8507 657.953 126.336C657.953 157.821 632.429 183.344 600.944 183.344L600.944 179.658C630.393 179.658 654.266 155.784 654.266 126.335Z" fill="#B2DFF5"/>
<path d="M624.927 161.064H577.168V92.2594H612.142L624.927 105.038V119.932" fill="white"/>
<path d="M624.927 162.702H577.168C576.263 162.702 575.53 161.97 575.53 161.064V92.2558C575.53 91.3537 576.263 90.6178 577.168 90.6178H612.142C612.576 90.6178 612.993 90.7908 613.299 91.0994L626.087 103.878C626.392 104.186 626.565 104.603 626.565 105.037V119.932C626.565 120.837 625.833 121.573 624.927 121.573C624.022 121.573 623.289 120.837 623.289 119.932V105.716L611.464 93.8971H578.806V159.426H624.927C625.833 159.426 626.565 160.159 626.565 161.064C626.565 161.97 625.833 162.702 624.927 162.702Z" fill="#34426F"/>
<path d="M612.142 105.037L612.142 92.2594L624.927 105.038L612.142 105.037Z" fill="#B2DFF5"/>
<path d="M613.78 103.4H620.97L613.78 96.2136V103.4ZM624.927 106.676H612.142C611.237 106.676 610.501 105.943 610.501 105.038V92.256C610.501 91.5947 610.901 90.9979 611.515 90.7436C612.125 90.4892 612.831 90.6314 613.299 91.0994L626.087 103.878C626.555 104.346 626.694 105.051 626.443 105.665C626.189 106.275 625.592 106.676 624.927 106.676Z" fill="#34426F"/>
<path d="M623.294 145.173L616.419 138.296L657.681 97.0346L664.555 103.912L623.294 145.173Z" fill="#B2DFF5"/>
<path d="M618.736 138.296L623.294 142.857L662.239 103.912L657.678 99.3511L618.736 138.296ZM623.294 146.812C622.86 146.812 622.443 146.639 622.138 146.33L615.26 139.453C614.619 138.815 614.619 137.777 615.26 137.136L656.521 95.8751C657.135 95.2613 658.224 95.2613 658.838 95.8751L665.715 102.753C666.356 103.393 666.356 104.431 665.715 105.069L624.454 146.33C624.145 146.639 623.728 146.812 623.294 146.812Z" fill="#34426F"/>
<path d="M614.513 151.82L609.769 147.076C609.769 146.245 609.769 145.777 609.769 144.943L616.419 138.296L623.294 145.173L616.646 151.82C615.812 151.82 615.348 151.82 614.513 151.82Z" fill="white"/>
<path d="M613.78 147.808H618.342L620.977 145.173L616.419 140.611L613.78 143.25V147.808ZM619.02 151.087H612.142C611.237 151.087 610.501 150.351 610.501 149.449V142.571C610.501 142.137 610.674 141.72 610.983 141.412L615.259 137.135C615.568 136.83 615.985 136.657 616.419 136.657C616.853 136.657 617.27 136.83 617.575 137.135L624.453 144.013C625.094 144.654 625.094 145.691 624.453 146.329L620.176 150.605C619.871 150.914 619.454 151.087 619.02 151.087Z" fill="#34426F"/>
<path d="M607.482 149.304L596.304 149.45Z" fill="#B2DFF5"/>
<path d="M596.306 151.087C595.41 151.087 594.678 150.365 594.668 149.469C594.654 148.564 595.38 147.821 596.282 147.808L607.459 147.665C607.47 147.665 607.476 147.665 607.483 147.665C608.378 147.665 609.108 148.384 609.121 149.279C609.131 150.185 608.409 150.927 607.503 150.941L596.326 151.087C596.319 151.087 596.312 151.087 596.306 151.087Z" fill="#34426F"/>
<path d="M607.482 138.913L596.304 139.059Z" fill="#B2DFF5"/>
<path d="M596.306 140.696C595.41 140.696 594.678 139.977 594.668 139.078C594.654 138.173 595.38 137.43 596.282 137.42L607.459 137.274C607.47 137.274 607.476 137.274 607.483 137.274C608.378 137.274 609.108 137.993 609.121 138.892C609.131 139.794 608.409 140.54 607.503 140.55L596.326 140.696C596.319 140.696 596.312 140.696 596.306 140.696Z" fill="#34426F"/>
<path d="M607.482 128.521L596.304 128.667Z" fill="#B2DFF5"/>
<path d="M596.306 130.307C595.41 130.307 594.678 129.584 594.668 128.689C594.654 127.784 595.38 127.041 596.282 127.027L607.459 126.885C607.47 126.885 607.476 126.885 607.483 126.885C608.378 126.885 609.108 127.604 609.121 128.503C609.131 129.405 608.409 130.151 607.503 130.161L596.326 130.307C596.319 130.307 596.312 130.307 596.306 130.307Z" fill="#34426F"/>
<path d="M607.482 118.131L596.304 118.277Z" fill="#B2DFF5"/>
<path d="M596.306 119.915C595.41 119.915 594.678 119.196 594.668 118.298C594.654 117.392 595.38 116.649 596.282 116.639L607.459 116.493C607.47 116.493 607.476 116.493 607.483 116.493C608.378 116.493 609.108 117.212 609.121 118.111C609.131 119.013 608.409 119.759 607.503 119.769L596.326 119.915C596.319 119.915 596.312 119.915 596.306 119.915Z" fill="#34426F"/>
<path d="M590.887 149.374H583.05V143.639H590.887V149.374Z" fill="#B2DFF5"/>
<path d="M584.687 147.737H589.248V145.281H584.687V147.737ZM590.886 151.013H583.049C582.143 151.013 581.411 150.28 581.411 149.375V143.64C581.411 142.738 582.143 142.002 583.049 142.002H590.886C591.788 142.002 592.524 142.738 592.524 143.64V149.375C592.524 150.28 591.788 151.013 590.886 151.013Z" fill="#34426F"/>
<path d="M590.887 138.984H583.05V133.253H590.887V138.984Z" fill="#B2DFF5"/>
<path d="M584.687 137.346H589.248V134.891H584.687V137.346ZM590.886 140.622H583.049C582.143 140.622 581.411 139.89 581.411 138.984V133.253C581.411 132.348 582.143 131.612 583.049 131.612H590.886C591.788 131.612 592.524 132.348 592.524 133.253V138.984C592.524 139.89 591.788 140.622 590.886 140.622Z" fill="#34426F"/>
<path d="M590.887 128.594H583.05V122.862H590.887V128.594Z" fill="#B2DFF5"/>
<path d="M584.687 126.955H589.248V124.5H584.687V126.955ZM590.886 130.231H583.049C582.143 130.231 581.411 129.498 581.411 128.593V122.858C581.411 121.956 582.143 121.22 583.049 121.22H590.886C591.788 121.22 592.524 121.956 592.524 122.858V128.593C592.524 129.498 591.788 130.231 590.886 130.231Z" fill="#34426F"/>
<path d="M590.887 118.202H583.05V112.471H590.887V118.202Z" fill="#B2DFF5"/>
<path d="M584.687 116.564H589.248V114.109H584.687V116.564ZM590.886 119.843H583.049C582.143 119.843 581.411 119.107 581.411 118.202V112.471C581.411 111.565 582.143 110.833 583.049 110.833H590.886C591.788 110.833 592.524 111.565 592.524 112.471V118.202C592.524 119.107 591.788 119.843 590.886 119.843Z" fill="#34426F"/>
<path d="M110.331 481.203C110.33 451.755 86.4569 427.882 57.0082 427.882C27.5597 427.882 3.68692 451.755 3.68672 481.203C3.68672 510.652 27.5595 534.525 57.0082 534.526L57.0087 538.212L56.2719 538.208C25.1265 537.813 0 512.442 0 481.203C0 449.718 25.5236 424.195 57.0087 424.195C88.4937 424.195 114.017 449.718 114.017 481.203L114.013 481.94C113.618 513.086 88.2477 538.212 57.0087 538.212L57.0082 534.526C86.4571 534.526 110.331 510.652 110.331 481.203Z" fill="#B2DFF5"/>
<path d="M36.0246 482.797C36.0246 471.82 44.9231 462.922 55.8995 462.922C66.8758 462.922 75.7718 471.82 75.7718 482.797C75.7718 493.77 66.8758 502.669 55.8995 502.669C44.9231 502.669 36.0246 493.77 36.0246 482.797Z" fill="#B2DFF5"/>
<path d="M55.8994 464.155C45.6199 464.155 37.26 472.517 37.26 482.797C37.26 493.074 45.6199 501.436 55.8994 501.436C66.1763 501.436 74.5387 493.074 74.5387 482.797C74.5387 472.517 66.1763 464.155 55.8994 464.155ZM55.8994 503.902C44.2593 503.902 34.7916 494.434 34.7916 482.797C34.7916 471.157 44.2593 461.689 55.8994 461.689C67.5369 461.689 77.0046 471.157 77.0046 482.797C77.0046 494.434 67.5369 503.902 55.8994 503.902Z" fill="#34426F"/>
<path d="M55.8996 515.947C37.6201 515.947 22.7484 501.076 22.7484 482.796C22.7484 464.514 37.6201 449.645 55.8996 449.645C56.5786 449.645 57.1325 450.196 57.1325 450.878C57.1325 451.557 56.5786 452.111 55.8996 452.111C38.9807 452.111 25.2143 465.875 25.2143 482.796C25.2143 499.715 38.9807 513.479 55.8996 513.479C72.8185 513.479 86.5823 499.715 86.5823 482.796C86.5823 482.115 87.1363 481.563 87.8178 481.563C88.4968 481.563 89.0507 482.115 89.0507 482.796C89.0507 501.076 74.1791 515.947 55.8996 515.947Z" fill="white"/>
<path d="M74.712 463.98L82.9443 463.768L89.7598 456.955L84.3636 454.328L81.7394 448.935L74.9265 455.748L74.712 463.98Z" fill="#B2DFF5"/>
<path d="M76.1468 456.272L75.9784 462.715L82.4212 462.549L87.6644 457.306L83.8252 455.437C83.5776 455.317 83.3759 455.118 83.2559 454.868L81.3874 451.032L76.1468 456.272ZM74.7123 465.214C74.3855 465.214 74.0715 465.086 73.8392 464.854C73.6019 464.614 73.4717 464.287 73.4793 463.95L73.6938 455.716C73.7014 455.402 73.8316 455.1 74.0537 454.876L80.8667 448.063C81.15 447.782 81.5482 447.652 81.9439 447.718C82.337 447.785 82.6739 448.037 82.8475 448.395L85.2878 453.408L90.2987 455.846C90.6586 456.019 90.9088 456.359 90.9751 456.752C91.0415 457.145 90.9139 457.546 90.6305 457.827L83.8175 464.64C83.5954 464.864 83.2942 464.992 82.9777 465L74.7454 465.214C74.7352 465.214 74.7225 465.214 74.7123 465.214Z" fill="#34426F"/>
<path d="M46.4134 482.796C46.4134 477.555 50.6609 473.31 55.899 473.31C61.137 473.31 65.3846 477.555 65.3846 482.796C65.3846 488.034 61.137 492.279 55.899 492.279C50.6609 492.279 46.4134 488.034 46.4134 482.796Z" fill="white"/>
<path d="M55.8989 474.545C51.3475 474.545 47.6462 478.246 47.6462 482.797C47.6462 487.346 51.3475 491.047 55.8989 491.047C60.4477 491.047 64.149 487.346 64.149 482.797C64.149 478.246 60.4477 474.545 55.8989 474.545ZM55.8989 493.513C49.9895 493.513 45.1803 488.707 45.1803 482.797C45.1803 476.885 49.9895 472.079 55.8989 472.079C61.8082 472.079 66.6174 476.885 66.6174 482.797C66.6174 488.707 61.8082 493.513 55.8989 493.513Z" fill="#34426F"/>
<path d="M74.636 464.058L55.8996 482.797Z" fill="#B2DFF5"/>
<path d="M55.8993 484.029C55.5828 484.029 55.2663 483.909 55.0263 483.666C54.5439 483.186 54.5439 482.405 55.0263 481.923L73.7627 463.186C74.2451 462.704 75.0263 462.704 75.5062 463.186C75.9886 463.669 75.9886 464.447 75.5062 464.93L56.7698 483.666C56.5298 483.909 56.2133 484.029 55.8993 484.029Z" fill="#34426F"/>
<path d="M166.061 76.6468C166.061 37.1384 198.089 5.11052 237.597 5.11052H420.75C460.258 5.11052 492.286 37.1384 492.286 76.6468V531.654C492.286 571.162 460.258 603.19 420.75 603.19H237.597C198.089 603.19 166.061 571.162 166.061 531.654V76.6468Z" fill="#005EB8"/>
<path d="M160.951 531.653V76.646C160.951 34.3156 195.266 1.2014e-06 237.597 0L237.597 5.11052C198.089 5.11052 166.061 37.1384 166.061 76.6468L166.06 531.653C166.06 571.161 198.088 603.189 237.597 603.189H420.75L421.674 603.184C460.449 602.693 491.789 571.352 492.28 532.577L492.286 531.653L492.286 76.6468C492.286 37.4472 460.756 5.61117 421.674 5.11597L420.75 5.11052L420.75 0C463.08 0.00027245 497.396 34.3157 497.396 76.646V531.653C497.396 573.983 463.08 608.298 420.75 608.299H237.597C195.266 608.299 160.951 573.983 160.951 531.653ZM420.75 0L420.75 5.11052H237.597L237.597 0H420.75Z" fill="#B2DFF5"/>
<path d="M267.012 519.788L263.138 516.575V516.485H263.048L240.375 497.566C238.694 496.215 236.321 496.215 234.61 497.596L211.997 516.485H211.907V516.575L208.033 519.788C207.072 520.569 206.952 522.011 207.763 522.972C208.213 523.512 208.844 523.782 209.505 523.782C210.015 523.782 210.526 523.602 210.946 523.272L211.937 522.461V554.203C211.937 555.434 212.958 556.455 214.189 556.455H260.916C262.147 556.455 263.168 555.434 263.168 554.203V522.461L264.159 523.272C265.12 524.083 266.532 523.933 267.342 523.002C268.153 522.041 268.003 520.629 267.072 519.818L267.012 519.788ZM232.778 551.92V531.5C232.778 531.23 232.898 531.08 232.868 531.05H242.147C242.147 531.05 242.327 531.23 242.327 531.5V551.92H232.778ZM258.664 551.92H246.802V531.5C246.802 528.767 244.73 526.545 242.207 526.545H232.868C230.345 526.545 228.273 528.767 228.273 531.5V551.92H216.412V518.677L237.553 501.05L258.664 518.677V551.92Z" fill="white"/>
<path d="M449.487 524.744C448.856 524.324 448.075 524.234 447.385 524.504L446.904 524.684V520.81C449.006 518.227 450.297 515.014 450.297 511.44C450.297 503.212 443.601 496.485 435.342 496.485C430.117 496.485 425.522 499.188 422.85 503.242H396.333C395.101 503.242 394.08 504.263 394.08 505.494V524.894L392.999 524.444C392.308 524.173 391.528 524.264 390.897 524.684C390.266 525.104 389.906 525.795 389.906 526.546V554.384C389.906 555.615 390.927 556.636 392.158 556.636H448.225C449.457 556.636 450.478 555.615 450.478 554.384V526.546C450.478 525.795 450.117 525.104 449.487 524.684V524.744ZM398.585 507.777H420.928C420.627 508.948 420.417 510.179 420.417 511.44C420.417 519.669 427.114 526.396 435.372 526.396C437.925 526.396 440.297 525.705 442.399 524.564V526.516L420.207 535.435L398.585 526.756V507.777ZM445.973 552.162H394.411V529.909L395.492 530.36L419.366 539.94C419.907 540.15 420.507 540.15 421.048 539.94L445.493 530.12L445.943 529.939V552.192L445.973 552.162Z" fill="white"/>
<path d="M435.342 500.419C429.246 500.419 424.291 505.374 424.291 511.47C424.291 517.567 429.246 522.522 435.342 522.522C441.438 522.522 446.393 517.567 446.393 511.47C446.393 505.374 441.438 500.419 435.342 500.419Z" fill="#D5281B"/>
<path d="M357.889 526.602C357.889 510.04 344.88 496.57 328.903 496.57C312.926 496.57 299.918 510.07 299.918 526.602C299.918 543.133 312.257 555.884 327.652 556.544C328.001 556.544 328.321 556.604 328.67 556.604C328.787 556.604 328.903 556.604 329.02 556.604C331.028 556.604 332.89 556.364 334.636 556.004C334.723 556.004 334.811 555.974 334.898 555.944C335.713 555.764 336.499 555.553 337.255 555.313C337.401 555.253 337.575 555.223 337.721 555.163C338.594 554.863 339.409 554.563 340.136 554.233C341.999 553.423 343.483 552.553 344.531 551.833L345.52 551.173V551.113C352.97 545.683 357.86 536.712 357.86 526.572L357.889 526.602ZM345.404 545.473C344.676 539.052 340.107 534.072 334.491 534.072H323.112C317.553 534.072 312.984 538.962 312.228 545.323C307.368 540.643 304.283 534.012 304.283 526.602C304.283 512.531 315.342 501.1 328.903 501.1C342.465 501.1 353.523 512.561 353.523 526.632C353.523 534.102 350.38 540.822 345.404 545.503V545.473Z" fill="white"/>
<path d="M328.816 532.632C335.486 532.632 340.893 527.058 340.893 520.181C340.893 513.305 335.486 507.73 328.816 507.73C322.146 507.73 316.739 513.305 316.739 520.181C316.739 527.058 322.146 532.632 328.816 532.632Z" fill="white"/>
<path d="M286.07 29.7022C286.07 28.6156 286.951 27.7348 288.037 27.7348H370.667C371.753 27.7348 372.634 28.6156 372.634 29.7022C372.634 30.7887 371.753 31.6696 370.667 31.6696H288.037C286.951 31.6696 286.07 30.7887 286.07 29.7022Z" fill="#B2DFF5"/>
<path d="M251.621 417.685C251.621 414.863 253.909 412.575 256.731 412.575H401.15C403.972 412.575 406.26 414.863 406.26 417.685V418.763C406.26 421.585 403.972 423.873 401.15 423.873H256.731C253.909 423.873 251.621 421.585 251.621 418.763V417.685Z" fill="#B2DFF5"/>
<path d="M430.846 441.358V446.467H227.035V441.358H430.846ZM451.285 420.918V415.527C451.285 404.239 442.134 395.088 430.846 395.088H227.035C215.747 395.088 206.596 404.239 206.596 415.527V420.918C206.596 432.207 215.747 441.358 227.035 441.358V446.467L226.375 446.459C212.57 446.109 201.487 434.808 201.487 420.918V415.527C201.487 401.417 212.925 389.978 227.035 389.978H430.846L431.506 389.987C445.311 390.337 456.395 401.637 456.395 415.527V420.918L456.386 421.578C456.042 435.165 445.091 446.115 431.505 446.459L430.846 446.467V441.358C442.134 441.357 451.285 432.207 451.285 420.918Z" fill="#B2DFF5"/>
<path d="M202.142 90.3909H305.993V132.616H202.142V90.3909Z" fill="#005EB8"/>
<path d="M306.013 132.616V90.3909H202.142V132.616H306.013ZM243.907 94.4645L236.739 128.455H225.478L218.405 104.938H218.31L213.607 128.455H205.072L212.298 94.4645H223.588L230.523 118.032H230.618L235.365 94.4645H243.907ZM276.091 94.4645L269.061 128.455H259.995L262.998 113.9H252.282L249.28 128.455H240.214L247.244 94.4645H256.302L253.641 107.47H264.35L267.018 94.4645H276.091ZM302.124 95.3893L299.936 102.156C298.191 101.334 295.814 100.6 292.469 100.6C288.885 100.6 285.978 101.129 285.978 103.859C285.978 108.674 299.114 106.876 299.114 117.203C299.114 126.598 290.434 129.034 282.583 129.034C279.093 129.034 275.066 128.205 272.114 127.273L274.244 120.359C276.032 121.533 279.624 122.311 282.583 122.311C285.396 122.311 289.801 121.775 289.801 118.267C289.801 112.814 276.665 114.854 276.665 105.268C276.665 96.4976 284.327 93.8699 291.742 93.8699C295.915 93.8846 299.841 94.325 302.124 95.3893Z" fill="white"/>
<path d="M201.487 202.321C201.487 188.211 212.925 176.772 227.035 176.772H430.846C444.956 176.772 456.395 188.211 456.395 202.321V320.691C456.395 334.802 444.956 346.24 430.846 346.24H227.035C212.925 346.24 201.487 334.802 201.487 320.691V202.321Z" fill="white"/>
<path d="M225.497 214.364C225.497 211.542 227.784 209.254 230.606 209.254H375.026C377.848 209.254 380.136 211.542 380.136 214.364V215.442C380.136 218.264 377.848 220.552 375.026 220.552H230.606C227.784 220.552 225.497 218.264 225.497 215.442V214.364Z" fill="#005EB8"/>
<path d="M225.496 260.964C225.496 258.142 227.784 255.855 230.606 255.855H375.025C377.847 255.855 380.135 258.142 380.135 260.964V262.043C380.135 264.865 377.847 267.152 375.025 267.152H230.606C227.784 267.152 225.496 264.865 225.496 262.043V260.964Z" fill="#005EB8"/>
<path d="M225.496 307.57C225.496 304.748 227.784 302.46 230.606 302.46H375.025C377.847 302.46 380.135 304.748 380.135 307.57V308.648C380.135 311.47 377.847 313.758 375.025 313.758H230.606C227.784 313.758 225.496 311.47 225.496 308.648V307.57Z" fill="#005EB8"/>
<path d="M419.711 227.453C419.252 227.453 418.775 227.276 418.44 226.906C417.769 226.199 417.787 225.087 418.493 224.417L428.396 214.919L418.511 205.652C417.805 204.981 417.769 203.869 418.422 203.163C419.093 202.456 420.205 202.421 420.911 203.074L432.156 213.613C432.509 213.948 432.704 214.407 432.721 214.884C432.739 215.361 432.527 215.837 432.174 216.173L420.929 226.959C420.594 227.294 420.152 227.453 419.711 227.453Z" fill="#B2DFF5"/>
<path d="M419.711 274.055C419.252 274.055 418.775 273.879 418.44 273.508C417.769 272.802 417.787 271.69 418.493 271.019L428.396 261.522L418.511 252.254C417.805 251.583 417.769 250.471 418.422 249.765C419.093 249.059 420.205 249.024 420.911 249.677L432.156 260.216C432.509 260.551 432.704 261.01 432.721 261.487C432.739 261.963 432.527 262.44 432.174 262.775L420.929 273.561C420.594 273.897 420.152 274.055 419.711 274.055Z" fill="#B2DFF5"/>
<path d="M419.711 320.658C419.252 320.658 418.775 320.482 418.44 320.111C417.769 319.405 417.787 318.293 418.493 317.622L428.396 308.125L418.511 298.857C417.805 298.186 417.769 297.074 418.422 296.368C419.093 295.662 420.205 295.626 420.911 296.279L432.156 306.818C432.509 307.154 432.704 307.613 432.721 308.089C432.739 308.566 432.527 309.042 432.174 309.378L420.929 320.164C420.594 320.499 420.152 320.658 419.711 320.658Z" fill="#B2DFF5"/>
</svg>
